<mxfile host="app.diagrams.net" modified="2022-06-29T04:22:20.572Z" agent="5.0 (Macintosh; Intel Mac OS X 10_15_7) AppleWebKit/537.36 (KHTML, like Gecko) Chrome/102.0.0.0 Safari/537.36" etag="NFgg6sSl3ozf6fBQumJY" version="16.1.0" type="github">
  <diagram name="Page-1" id="0783ab3e-0a74-02c8-0abd-f7b4e66b4bec">
    <mxGraphModel dx="925" dy="544" grid="1" gridSize="10" guides="1" tooltips="1" connect="1" arrows="1" fold="1" page="1" pageScale="1" pageWidth="850" pageHeight="1100" background="none" math="0" shadow="0">
      <root>
        <mxCell id="0" />
        <mxCell id="1" parent="0" />
        <mxCell id="7oJAKyxnwEzEujUSBb01-1" value="Pool" style="swimlane;childLayout=stackLayout;resizeParent=1;resizeParentMax=0;startSize=20;" vertex="1" parent="1">
          <mxGeometry x="240" y="20" width="365" height="520" as="geometry" />
        </mxCell>
        <mxCell id="7oJAKyxnwEzEujUSBb01-2" value="User" style="swimlane;startSize=20;" vertex="1" parent="7oJAKyxnwEzEujUSBb01-1">
          <mxGeometry y="20" width="120" height="500" as="geometry" />
        </mxCell>
        <mxCell id="7oJAKyxnwEzEujUSBb01-8" value="" style="edgeStyle=orthogonalEdgeStyle;rounded=0;orthogonalLoop=1;jettySize=auto;html=1;strokeColor=#000000;" edge="1" parent="7oJAKyxnwEzEujUSBb01-2" source="7oJAKyxnwEzEujUSBb01-5" target="7oJAKyxnwEzEujUSBb01-7">
          <mxGeometry relative="1" as="geometry" />
        </mxCell>
        <mxCell id="7oJAKyxnwEzEujUSBb01-5" value="" style="ellipse;html=1;shape=startState;fillColor=#ffcccc;strokeColor=#36393d;" vertex="1" parent="7oJAKyxnwEzEujUSBb01-2">
          <mxGeometry x="45" y="40" width="30" height="30" as="geometry" />
        </mxCell>
        <mxCell id="7oJAKyxnwEzEujUSBb01-7" value="&lt;font style=&quot;font-size: 11px&quot;&gt;输入账号密码&lt;/font&gt;" style="whiteSpace=wrap;html=1;fillColor=#eeeeee;strokeColor=#36393d;" vertex="1" parent="7oJAKyxnwEzEujUSBb01-2">
          <mxGeometry x="25" y="100" width="70" height="35" as="geometry" />
        </mxCell>
        <mxCell id="7oJAKyxnwEzEujUSBb01-20" value="&lt;font style=&quot;font-size: 11px&quot;&gt;发送Cookie&lt;br&gt;换取Token&lt;br&gt;&lt;/font&gt;" style="whiteSpace=wrap;html=1;fillColor=#eeeeee;strokeColor=#36393d;" vertex="1" parent="7oJAKyxnwEzEujUSBb01-2">
          <mxGeometry x="25" y="190" width="70" height="35" as="geometry" />
        </mxCell>
        <mxCell id="7oJAKyxnwEzEujUSBb01-34" value="获得token" style="whiteSpace=wrap;html=1;fillColor=#eeeeee;strokeColor=#36393d;" vertex="1" parent="7oJAKyxnwEzEujUSBb01-2">
          <mxGeometry x="20" y="385" width="70" height="35" as="geometry" />
        </mxCell>
        <mxCell id="7oJAKyxnwEzEujUSBb01-3" value="URS" style="swimlane;startSize=20;" vertex="1" parent="7oJAKyxnwEzEujUSBb01-1">
          <mxGeometry x="120" y="20" width="125" height="500" as="geometry" />
        </mxCell>
        <mxCell id="7oJAKyxnwEzEujUSBb01-29" value="" style="edgeStyle=orthogonalEdgeStyle;rounded=0;orthogonalLoop=1;jettySize=auto;html=1;fontSize=11;strokeColor=#000000;" edge="1" parent="7oJAKyxnwEzEujUSBb01-3" source="7oJAKyxnwEzEujUSBb01-11" target="7oJAKyxnwEzEujUSBb01-28">
          <mxGeometry relative="1" as="geometry" />
        </mxCell>
        <mxCell id="7oJAKyxnwEzEujUSBb01-11" value="&lt;font style=&quot;font-size: 11px&quot;&gt;校验账号密码&lt;/font&gt;" style="whiteSpace=wrap;html=1;fillColor=#eeeeee;strokeColor=#36393d;" vertex="1" parent="7oJAKyxnwEzEujUSBb01-3">
          <mxGeometry x="30" y="100" width="70" height="35" as="geometry" />
        </mxCell>
        <mxCell id="7oJAKyxnwEzEujUSBb01-28" value="&lt;font style=&quot;font-size: 11px&quot;&gt;验证通过&lt;br&gt;发送Cookie&lt;br&gt;&lt;/font&gt;" style="whiteSpace=wrap;html=1;fillColor=#eeeeee;strokeColor=#36393d;" vertex="1" parent="7oJAKyxnwEzEujUSBb01-3">
          <mxGeometry x="30" y="160" width="70" height="35" as="geometry" />
        </mxCell>
        <mxCell id="7oJAKyxnwEzEujUSBb01-30" value="合法" style="whiteSpace=wrap;html=1;fillColor=#eeeeee;strokeColor=#36393d;" vertex="1" parent="7oJAKyxnwEzEujUSBb01-3">
          <mxGeometry x="27.5" y="280" width="70" height="35" as="geometry" />
        </mxCell>
        <mxCell id="7oJAKyxnwEzEujUSBb01-4" value="Backend" style="swimlane;startSize=20;" vertex="1" parent="7oJAKyxnwEzEujUSBb01-1">
          <mxGeometry x="245" y="20" width="120" height="500" as="geometry" />
        </mxCell>
        <mxCell id="7oJAKyxnwEzEujUSBb01-25" value="Cookie合法性校验" style="whiteSpace=wrap;html=1;fillColor=#eeeeee;strokeColor=#36393d;" vertex="1" parent="7oJAKyxnwEzEujUSBb01-4">
          <mxGeometry x="25" y="225" width="70" height="35" as="geometry" />
        </mxCell>
        <mxCell id="7oJAKyxnwEzEujUSBb01-32" value="生成用户token" style="whiteSpace=wrap;html=1;fillColor=#eeeeee;strokeColor=#36393d;" vertex="1" parent="7oJAKyxnwEzEujUSBb01-4">
          <mxGeometry x="25" y="350" width="70" height="35" as="geometry" />
        </mxCell>
        <mxCell id="7oJAKyxnwEzEujUSBb01-12" value="" style="edgeStyle=orthogonalEdgeStyle;rounded=0;orthogonalLoop=1;jettySize=auto;html=1;fontSize=11;strokeColor=#000000;" edge="1" parent="7oJAKyxnwEzEujUSBb01-1" source="7oJAKyxnwEzEujUSBb01-7" target="7oJAKyxnwEzEujUSBb01-11">
          <mxGeometry relative="1" as="geometry" />
        </mxCell>
        <mxCell id="7oJAKyxnwEzEujUSBb01-22" style="edgeStyle=orthogonalEdgeStyle;rounded=0;orthogonalLoop=1;jettySize=auto;html=1;entryX=1;entryY=0.5;entryDx=0;entryDy=0;fontSize=11;strokeColor=#000000;exitX=0.5;exitY=1;exitDx=0;exitDy=0;" edge="1" parent="7oJAKyxnwEzEujUSBb01-1" source="7oJAKyxnwEzEujUSBb01-28" target="7oJAKyxnwEzEujUSBb01-20">
          <mxGeometry relative="1" as="geometry">
            <mxPoint x="185" y="220" as="sourcePoint" />
            <Array as="points">
              <mxPoint x="185" y="228" />
            </Array>
          </mxGeometry>
        </mxCell>
        <mxCell id="7oJAKyxnwEzEujUSBb01-26" value="" style="edgeStyle=orthogonalEdgeStyle;rounded=0;orthogonalLoop=1;jettySize=auto;html=1;fontSize=11;strokeColor=#000000;" edge="1" parent="7oJAKyxnwEzEujUSBb01-1" source="7oJAKyxnwEzEujUSBb01-20" target="7oJAKyxnwEzEujUSBb01-25">
          <mxGeometry relative="1" as="geometry">
            <Array as="points">
              <mxPoint x="60" y="263" />
            </Array>
          </mxGeometry>
        </mxCell>
        <mxCell id="7oJAKyxnwEzEujUSBb01-31" value="" style="edgeStyle=orthogonalEdgeStyle;rounded=0;orthogonalLoop=1;jettySize=auto;html=1;fontSize=11;strokeColor=#000000;" edge="1" parent="7oJAKyxnwEzEujUSBb01-1" source="7oJAKyxnwEzEujUSBb01-25" target="7oJAKyxnwEzEujUSBb01-30">
          <mxGeometry relative="1" as="geometry">
            <Array as="points">
              <mxPoint x="305" y="318" />
            </Array>
          </mxGeometry>
        </mxCell>
        <mxCell id="7oJAKyxnwEzEujUSBb01-33" value="" style="edgeStyle=orthogonalEdgeStyle;rounded=0;orthogonalLoop=1;jettySize=auto;html=1;fontSize=11;strokeColor=#000000;" edge="1" parent="7oJAKyxnwEzEujUSBb01-1" source="7oJAKyxnwEzEujUSBb01-30" target="7oJAKyxnwEzEujUSBb01-32">
          <mxGeometry relative="1" as="geometry">
            <Array as="points">
              <mxPoint x="183" y="388" />
            </Array>
          </mxGeometry>
        </mxCell>
        <mxCell id="7oJAKyxnwEzEujUSBb01-35" value="" style="edgeStyle=orthogonalEdgeStyle;rounded=0;orthogonalLoop=1;jettySize=auto;html=1;fontSize=11;strokeColor=#000000;" edge="1" parent="7oJAKyxnwEzEujUSBb01-1" source="7oJAKyxnwEzEujUSBb01-32" target="7oJAKyxnwEzEujUSBb01-34">
          <mxGeometry relative="1" as="geometry">
            <Array as="points">
              <mxPoint x="305" y="423" />
            </Array>
          </mxGeometry>
        </mxCell>
        <mxCell id="7oJAKyxnwEzEujUSBb01-36" value="展示层" style="whiteSpace=wrap;html=1;aspect=fixed;fontSize=11;fillColor=#cce5ff;strokeColor=none;" vertex="1" parent="1">
          <mxGeometry x="140" y="700" width="70" height="70" as="geometry" />
        </mxCell>
        <mxCell id="7oJAKyxnwEzEujUSBb01-37" value="各种终端设备" style="rounded=0;whiteSpace=wrap;html=1;fontSize=11;fillColor=#eeeeee;strokeColor=none;" vertex="1" parent="1">
          <mxGeometry x="230" y="700" width="400" height="70" as="geometry" />
        </mxCell>
        <mxCell id="7oJAKyxnwEzEujUSBb01-38" value="网关" style="whiteSpace=wrap;html=1;aspect=fixed;fontSize=11;fillColor=#cce5ff;strokeColor=none;" vertex="1" parent="1">
          <mxGeometry x="140" y="790" width="70" height="70" as="geometry" />
        </mxCell>
        <mxCell id="7oJAKyxnwEzEujUSBb01-39" value="" style="rounded=0;whiteSpace=wrap;html=1;fontSize=11;fillColor=#eeeeee;strokeColor=none;" vertex="1" parent="1">
          <mxGeometry x="230" y="790" width="400" height="70" as="geometry" />
        </mxCell>
        <mxCell id="7oJAKyxnwEzEujUSBb01-40" value="Nginx集群" style="outlineConnect=0;dashed=0;verticalLabelPosition=bottom;verticalAlign=top;align=center;html=1;shape=mxgraph.aws3.classic_load_balancer;fillColor=#F58534;gradientColor=none;fontSize=11;strokeColor=none;" vertex="1" parent="1">
          <mxGeometry x="290" y="800" width="38.33" height="40" as="geometry" />
        </mxCell>
        <mxCell id="7oJAKyxnwEzEujUSBb01-41" value="后端服务" style="whiteSpace=wrap;html=1;aspect=fixed;fontSize=11;fillColor=#cce5ff;strokeColor=none;" vertex="1" parent="1">
          <mxGeometry x="140" y="880" width="70" height="70" as="geometry" />
        </mxCell>
        <mxCell id="7oJAKyxnwEzEujUSBb01-42" value="" style="rounded=0;whiteSpace=wrap;html=1;fontSize=11;fillColor=#eeeeee;strokeColor=none;" vertex="1" parent="1">
          <mxGeometry x="230" y="880" width="400" height="70" as="geometry" />
        </mxCell>
        <mxCell id="7oJAKyxnwEzEujUSBb01-46" value="中间件" style="whiteSpace=wrap;html=1;aspect=fixed;fontSize=11;fillColor=#cce5ff;strokeColor=none;" vertex="1" parent="1">
          <mxGeometry x="140" y="970" width="70" height="70" as="geometry" />
        </mxCell>
        <mxCell id="7oJAKyxnwEzEujUSBb01-47" value="" style="rounded=0;whiteSpace=wrap;html=1;fontSize=11;fillColor=#eeeeee;strokeColor=none;" vertex="1" parent="1">
          <mxGeometry x="230" y="970" width="400" height="70" as="geometry" />
        </mxCell>
        <mxCell id="7oJAKyxnwEzEujUSBb01-50" value="存储" style="whiteSpace=wrap;html=1;aspect=fixed;fontSize=11;fillColor=#cce5ff;strokeColor=none;" vertex="1" parent="1">
          <mxGeometry x="140" y="1060" width="70" height="70" as="geometry" />
        </mxCell>
        <mxCell id="7oJAKyxnwEzEujUSBb01-51" value="" style="rounded=0;whiteSpace=wrap;html=1;fontSize=11;fillColor=#eeeeee;strokeColor=none;" vertex="1" parent="1">
          <mxGeometry x="230" y="1060" width="400" height="70" as="geometry" />
        </mxCell>
        <mxCell id="7oJAKyxnwEzEujUSBb01-54" value="" style="aspect=fixed;html=1;points=[];align=center;image;fontSize=12;image=img/lib/azure2/databases/Azure_Database_MySQL_Server.svg;" vertex="1" parent="1">
          <mxGeometry x="283.34" y="1070" width="35.25" height="47" as="geometry" />
        </mxCell>
        <mxCell id="7oJAKyxnwEzEujUSBb01-68" value="K8s 服务发现" style="outlineConnect=0;dashed=0;verticalLabelPosition=bottom;verticalAlign=top;align=center;html=1;shape=mxgraph.aws3.classic_load_balancer;fillColor=#F58534;gradientColor=none;fontSize=11;strokeColor=none;" vertex="1" parent="1">
          <mxGeometry x="500" y="800" width="38.33" height="40" as="geometry" />
        </mxCell>
        <mxCell id="7oJAKyxnwEzEujUSBb01-69" value="持续集成" style="whiteSpace=wrap;html=1;aspect=fixed;fontSize=11;fillColor=#cce5ff;strokeColor=none;" vertex="1" parent="1">
          <mxGeometry x="140" y="1150" width="70" height="70" as="geometry" />
        </mxCell>
        <mxCell id="7oJAKyxnwEzEujUSBb01-70" value="" style="rounded=0;whiteSpace=wrap;html=1;fontSize=11;fillColor=#eeeeee;strokeColor=none;" vertex="1" parent="1">
          <mxGeometry x="230" y="1150" width="400" height="70" as="geometry" />
        </mxCell>
        <mxCell id="7oJAKyxnwEzEujUSBb01-76" value="" style="sketch=0;aspect=fixed;html=1;points=[];align=center;image;fontSize=12;image=img/lib/mscae/Docker.svg;fontColor=#999999;" vertex="1" parent="1">
          <mxGeometry x="250" y="1164.5" width="50" height="41" as="geometry" />
        </mxCell>
        <mxCell id="7oJAKyxnwEzEujUSBb01-77" value="" style="shape=image;verticalLabelPosition=bottom;labelBackgroundColor=#ffffff;verticalAlign=top;aspect=fixed;imageAspect=0;image=data:image/png,iVBORw0KGgoAAAANSUhEUgAAAuAAAADWCAYAAACQYjeQAAAMbmlDQ1BJQ0MgUHJvZmlsZQAASImVVwdYU8kWnltSSQECCEgJvQkiNYCUEFoA6UWwEZJAQokxIajYy6KCaxdRrOiqiIuuroCsFXVtLIq9LxZUlHVRFxsqb0ICuu4r3zvfN/f+OXPmP+XO5N4DAPOdQC4vQHUBKJQVKZIiQ9mjMzLZpMeAACiAAciAKRAq5dyEhFgAZeD+d3lzDSDq+2VXNdc/5/+r6IvESiEAyFiIs0VKYSHExwDA1wvliiIAiGq9zeQiuRrPhthAAQOEeJUa52rwTjXO1uBD/TYpSTyILwJApgkEilwAGHegnl0szIU8jI8Qu8tEUhkAzGEQBwklAhHE6tiHFRZOVONKiB2hvRxiGA/gZH/Fmfs3/uxBfoEgdxBr8uoXcphUKS8QTP0/S/O/pbBANeDDHg6aRBGVpM4f1vBG/sQYNaZB3CXLjotX1xrid1KRpu4AoFSJKipVY4+aCZU8WD9gBLG7SBAWA7EZxBGygrhYrT47RxrBhxjuFnSKtIifArExxAvFyvBkrc1mxcQkrS+0PkfB42r1ZwSKfr9qX/dU+alcLf8riZiv5ccYJZKUdIipENsWS9PiIGZA7KbMT47R2owskfDiBmwUqiR1/LYQJ4llkaEafqw4RxGRpLUvK1QO5Ittlkj5cVq8r0iSEqWpD3ZSKOiPH+aCXRTLuKkDPGLl6NiBXETisHBN7thTsSw1WcvzTl4UmqRZi1PlBQlae9xaXBCp1ltD7KUsTtauxdOK4ObU8OM58qKEFE2ceEmeIDpBEw++DMQCHggDbKCCIxtMBHlA2trV0AV/aWYigAAoQC4QA1etZmBFev+MDF6TQQn4AyIxUA6uC+2fFYNiqP80qNVcXUFO/2xx/4p88BjiQhADCuBvVf8q2aC3NPAIaqT/8C6AQwjjLYBDPf/v9QPaLxou1MRqNaoBj2zmgCUxnBhGjCJGEJ1wUzwID8Bj4TUEDg+cg/sN5PHFnvCY0EZ4QLhKaCfcnCCdq/gmylGgHfJHaGuR/XUtcHvI6Y2H4oGQHTLjRrgpcMW9oB8uHgw9e0MtTxu3uirsb7j/lsFXT0NrR3GnoJQhlBCK47crGc4M70EWda2/ro8m1uzBevMGZ771z/uq+iJ4j/nWEluI7cdOY8exs9ghrAGwsaNYI9aCHVbjwd31qH93DXhL6o8nH/JI/+Fv4MmqK6l0r3XvdP+omSsSTylSHzzeRPlUhTRXUsTmwreDmM2XCd2GsT3cPTwAUL9rNH9frxP73yGIUcsX3bzfAQg82tfX98sXXfRRAH7yhcf/4BedIwcAPR0AzhwUqhTFGh2uvhDgvwQTnjQTYAFsgCPMxwP4gAAQAsJBNIgHKSADjIfRS+A+V4DJYDqYA0pBOVgGVoN1YBPYCnaCH8E+0AAOgePgV3AeXARXwW24ezrAc9AN3oBeBEFICB1hISaIJWKHuCAeCAcJQsKRWCQJyUCykFxEhqiQ6cg8pBxZgaxDtiA1yE/IQeQ4chZpQ24i95FO5BXyAcVQGmqAmqP26HCUg3LRGDQFHYfmopPQEnQ+ugStRKvR3Wg9ehw9j15F29HnaA8GMB3MCLPCXDEOxsPisUwsB1NgM7EyrAKrxuqwJvicL2PtWBf2HifiLJyNu8IdHIWn4kJ8Ej4TX4yvw3fi9fhJ/DJ+H+/GPxPoBDOCC8GfwCeMJuQSJhNKCRWE7YQDhFPwLHUQ3hCJRCOiA9EXnsUMYh5xGnExcQNxD/EYsY34kNhDIpFMSC6kQFI8SUAqIpWS1pJ2k46SLpE6SO/IOmRLsgc5gpxJlpHnkivIu8hHyJfIT8i9FF2KHcWfEk8RUaZSllK2UZooFygdlF6qHtWBGkhNoeZR51ArqXXUU9Q71Nc6OjrWOn46iTpSndk6lTp7dc7o3Nd5T9OnOdN4tLE0FW0JbQftGO0m7TWdTrenh9Az6UX0JfQa+gn6Pfo7BovhxuAzRIxZjCpGPeMS4wWTwrRjcpnjmSXMCuZ+5gVmly5F116XpyvQnalbpXtQ97pujx5Lb4RevF6h3mK9XXpn9Z7qk/Tt9cP1Rfrz9bfqn9B/yMJYNiweS8iax9rGOsXqMCAaOBjwDfIMyg1+NGg16DbUN/QyTDOcYlhleNiw3QgzsjfiGxUYLTXaZ3TN6MMQ8yHcIeIhi4bUDbk05K3xUOMQY7FxmfEe46vGH0zYJuEm+SbLTRpM7prips6miaaTTTeanjLtGmowNGCocGjZ0H1Db5mhZs5mSWbTzLaatZj1mFuYR5rLzdeanzDvsjCyCLHIs1hlccSi05JlGWQptVxledTyGduQzWUXsCvZJ9ndVmZWUVYqqy1WrVa91g7WqdZzrfdY37Wh2nBscmxW2TTbdNta2o6ynW5ba3vLjmLHsZPYrbE7bffW3sE+3X6BfYP9UwdjB75DiUOtwx1HumOw4yTHascrTkQnjlO+0wani86os7ezxLnK+YIL6uLjInXZ4NI2jDDMb5hsWPWw6640V65rsWut6303I7dYt7luDW4vhtsOzxy+fPjp4Z/dvd0L3Le53x6hPyJ6xNwRTSNeeTh7CD2qPK540j0jPGd5Nnq+9HLxEntt9LrhzfIe5b3Au9n7k4+vj8KnzqfT19Y3y3e973WOASeBs5hzxo/gF+o3y++Q33t/H/8i/33+fwa4BuQH7Ap4OtJhpHjktpEPA60DBYFbAtuD2EFZQZuD2oOtggXB1cEPQmxCRCHbQ55wnbh53N3cF6HuoYrQA6Fvef68GbxjYVhYZFhZWGu4fnhq+LrwexHWEbkRtRHdkd6R0yKPRRGiYqKWR13nm/OF/Bp+d7Rv9IzokzG0mOSYdTEPYp1jFbFNo9BR0aNWjroTZxcni2uIB/H8+JXxdxMcEiYl/JJITExIrEp8nDQiaXrS6WRW8oTkXclvUkJTlqbcTnVMVaU2pzHTxqbVpL1ND0tfkd4+evjoGaPPZ5hmSDMaM0mZaZnbM3vGhI9ZPaZjrPfY0rHXxjmMmzLu7HjT8QXjD09gThBM2J9FyErP2pX1URAvqBb0ZPOz12d3C3nCNcLnohDRKlGnOFC8QvwkJzBnRc7T3MDclbmdkmBJhaRLypOuk77Mi8rblPc2Pz5/R35fQXrBnkJyYVbhQZm+LF92cqLFxCkT2+Qu8lJ5+yT/SasndStiFNuViHKcsrHIAH7Ut6gcVd+p7hcHFVcVv5ucNnn/FL0psiktU52nLpr6pCSi5Idp+DThtObpVtPnTL8/gztjy0xkZvbM5lk2s+bP6pgdOXvnHOqc/Dm/zXWfu2LuX/PS5zXNN58/e/7D7yK/qy1llCpKry8IWLBpIb5QurB1keeitYs+l4nKzpW7l1eUf1wsXHzu+xHfV37ftyRnSetSn6UblxGXyZZdWx68fOcKvRUlKx6uHLWyfhV7Vdmqv1ZPWH22wqti0xrqGtWa9srYysa1tmuXrf24TrLualVo1Z71ZusXrX+7QbTh0saQjXWbzDeVb/qwWbr5xpbILfXV9tUVW4lbi7c+3pa27fQPnB9qtptuL9/+aYdsR/vOpJ0na3xranaZ7Vpai9aqajt3j9198cewHxvrXOu27DHaU74X7FXtffZT1k/X9sXsa97P2V/3s93P6w+wDpTVI/VT67sbJA3tjRmNbQejDzY3BTQd+MXtlx2HrA5VHTY8vPQI9cj8I31HS472HJMf6zqee/xh84Tm2ydGn7hyMvFk66mYU2d+jfj1xGnu6aNnAs8cOut/9uA5zrmG8z7n61u8Ww785v3bgVaf1voLvhcaL/pdbGob2XbkUvCl45fDLv96hX/l/NW4q23XUq/duD72evsN0Y2nNwtuvrxVfKv39uw7hDtld3XvVtwzu1f9u9Pve9p92g/fD7vf8iD5we2HwofPHykffeyY/5j+uOKJ5ZOapx5PD3VGdF58NuZZx3P5896u0j/0/lj/wvHFz3+G/NnSPbq746XiZd+rxa9NXu/4y+uv5p6EnntvCt/0vi17Z/Ju53vO+9Mf0j886Z38kfSx8pPTp6bPMZ/v9BX29ckFCkH/pwAGB5qTA8CrHQDQMwBgwb6NOkbTC/YLoulf+xH4T1jTL/aLDwB18Ps9sQt+3VwHYO822H5BfibsVRPoAKT4AdTTc3BoRZnj6aHhosE+hXCvr+817NlIKwH4tKyvr7e6r+/TVhgs7B2PyTQ9qFqIsGfYHPcpuzAb/BvR9Kdf5fjtHagj8ALf3v8FNfSQwUv6+PQAAABsZVhJZk1NACoAAAAIAAQBGgAFAAAAAQAAAD4BGwAFAAAAAQAAAEYBKAADAAAAAQACAACHaQAEAAAAAQAAAE4AAAAAAAAAkAAAAAEAAACQAAAAAQACoAIABAAAAAEAAALgoAMABAAAAAEAAADWAAAAAOPG65cAAAAJcEhZcwAAFiUAABYlAUlSJPAAAEAASURBVHgB7N3Xl2XHdR7w02FywiADRJhBJkASYBIlihKX7LVsP3j51Q/+J/1gyWvJskSJwaQYQRAgMgZpkDE5dvL+1e3dfeaic99zum9P1erqc+69J1R9VbXrq127dk0sRGhqqAhUBCoCFYGKQEWgIlARqAhUBHpBYLKXt9SXVAQqAhWBikBFoCJQEagIVAQqAgWBSsBrRagIVAQqAhWBikBFoCJQEagI9IhAJeA9gl1fVRGoCFQEKgIVgYpARaAiUBGoBLzWgYpARaAiUBGoCFQEKgIVgYpAjwhUAt4j2PVVFYGKQEWgIlARqAhUBCoCFYFKwGsdqAhUBCoCFYGKQEWgIlARqAj0iEAl4D2CXV9VEagIVAQqAhWBikBFoCJQEagEvNaBikBFoCJQEagIVAQqAhWBikCPCFQC3iPY9VUVgYpARaAiUBGoCFQEKgIVgUrAax2oCFQEKgIVgYpARaAiUBGoCPSIQCXgPYJdX1URqAhUBCoCFYGKQEWgIlARqAS81oGKQEWgIlARqAhUBCoCFYGKQI8IVALeI9j1VRWBikBFoCJQEagIVAQqAhWBSsBrHagIVAQqAhWBikBFoCJQEagI9IhAJeA9gl1fVRGoCFQEKgIVgYpARaAiUBGoBLzWgYpARaAiUBGoCFQEKgIVgYpAjwhUAt4j2PVVFYGKQEWgIlARqAhUBCoCFYFKwGsdqAhUBCoCFYGKQEWgIlARqAj0iEAl4D2CXV9VEagIVAQqAhWBikBFoCJQEagEvNaBikBFoCJQEagIVAQqAhWBikCPCFQC3iPY9VUVgYpARaAiUBGoCFQEKgIVgUrAax2oCFQEKgIVgYpARaAiUBGoCPSIQCXgPYJdX1URqAhUBCoCFYGKQEWgIlARqAS81oGKQEWgIlARqAhUBCoCFYGKQI8IVALeI9j1VRWBikBFoCJQEagIVAQqAhWBSsBrHagIVAQqAhWBikBFoCJQEagI9IhAJeA9gl1fVRGoCFQEKgIVgYpARaAiUBGoBLzWgYpARaAiUBGoCFQEKgIVgYpAjwhUAt4j2PVVFYGKQEWgIlARqAhUBCoCFYFKwGsdqAhUBCoCFYGKQEWgIlARqAj0iEAl4D2CXV9VEagIVAQqAhWBikBFoCJQEagEvNaBikBFoCJQEagIVAQqAhWBikCPCFQC3iPY9VUVgYpARaAiUBGoCFQEKgIVgUrAax2oCFQEKgIVgYpARaAiUBGoCPSIwHSP77ptXrWwsNC0405lfGJiopmcnGwca1gbgXZ5Od/JUMttJ9Gv764IVAQqAhWBikD3CFQC3gHGCNzc3NxS3AlClyRu//79lYSvU8bD5TU/P7/OHd39rNympqaaffv2lWN3b6pPrghUBCoCFYGKQEVgpxCoBHwEyM/MzDTXrl1rLl682Jw/f765dOlS+ex7RHwnCF0SOQT8wIEDzcGDB5vjx483d911V3P06NFmenq6EPMRZH/sHqE8lM2VK1eaL7/8srlw4UI5v3HjRvl+J8orQVRuyPehQ4dKeZ08ebIcjxw5Ur7P6+qxIlARqAhUBCoCFYHxRaAS8BGUHfL9/vvvN6+++mrzu9/9rnn77bebc+fOFRJOu7oTGnDZYn6CzB07dqy59957m2eeeab567/+6+bxxx8v3yHnt2NAvg2WlNO///u/l3I7e/ZsIeI7NWBql4MBk8HS6dOnm+9973vNs88+2zz66KPNHXfc0b6snlcEKgIVgYpARaAiMKYIVAK+jYJLLep7771XiPdvf/vbcnznnXeKJvz69es7Rr5lK7XgNN4IuEEBMo6UI3e3GwFHrpXZp59+2rz++uvNiy++2Pzyl79s/vznPzcfffRRIeWu2akBU1ZF5aLMDOqkVzneeeedlYAnQPVYEagIVAQqAhWBMUegEvBtFCAThjNnzjS/+c1vmn/4h39oXnrppUJyfY847TSR836EUnoQTMQbsaMZp0293TSqysQgBOH++7//+8aAieabGYrB0m4g36rj7Oxsc/ny5eaDDz4oGnrmQ7TgDz/88DZqa721IlARqAhUBCoCFYHdgkAl4NsoCcSWGcMf//jHQr7ffPPNbTytm1uRcMRTRML/9Kc/FTvw7373u2WAQLt6uwS2+W+88UYh3kxPXn755UK8Ed7dFNig37x5s5jEfPjhh6XcDBBqqAhUBCoCFYGKQEVgbyBQCfg2yjEJHVJHY7nbQ2rsH3nkkbJQFNG7ndwUfvHFF80vfvGL5qc//WmD2KbWe7eWm8FRxt2axpquikBFoCJQEagIVAQ2j0DdiGfzmJU7aJYR2nfffbdhA3716tUtPqm/22hVmVt8/vnnxd55txPQUSFD+887DZtqZkIWy8KB5nunzYTWyqPBEfMTkWvCGioCFYGKQEWgIlAR2BsIVAK+hXJs21Z//PHHzSeffFK0qVt4VK+3SDetN3d7CCn3e8jpXg85UHrttdfKgMkiTBjs9sBmnzcUkdvIGioCFYGKQEWgIlAR2BsIVAK+hXKkOUXqEFiL+ri02212xKtlCwmnCZfmcUr3avlZ73v5lU8LL9m/s4M3W2HB5W4PCHgulr3dPNbs9rKp6asIVAQqAhWBisB2EKgEfAvo0Z5+9tlnxZ1dkjlEb1yCwUIS8L2sAVcmInMT/tl///vfF83/uJQT0m0jHhEZr6EiUBGoCFQEKgIVgb2BQJ3X3kI5IuDsqJFwm/Ds5M6JW0j+kps7C0fHRXO/lXympp+NPr/fXEaauRiXgIDz/42AVw34uJRaTWdFoCJQEagIVATWR6BqwNfH6CtXIODsiMfFlng4A2lCg4zuZQJugMFDDfMTXk/GzeY9NeBIeCXgw7W4fq4IVAQqAhWBisD4IlA14FsoO5pVtt+i83ELbQI+DrbQW8GX6YmFpq+88kqx/TZbMQ4LL9t5rRrwNhr1vCJQEagIVAQqAnsHgaoB30JZIrDjbEOdu2PuVQ048i2P/H6z+xYNlsYtJAG/6667qgZ83AqvprciUBGoCFQEKgJrIFA14GuAs9pPtN7j7MavrQHfiyYo/Jsj3Hy0253Ulu5s9ccl2HwnfYCz/+YJpS7CHJfSq+msCFQEKgIVgYrA+ghUDfj6GH3lCp5D0gRlHL2IJAHfq4sw7VBqsx1bzfPRnp5qvlKQu/QL5Jv2+/Dhw82JEyeaY8eOVQK+S8uqJqsiUBGoCFQEKgJbQaBqwDeJGvMGtsQIOPd242oDzoQGUd1LGnBlk7bfyDe/38xQxm2QZNOdo0ePFvJ95MiRQsZpxWuoCFQEKgIVgYpARWBvIFA14JsoxyR4CDjyjYSPIwFHSMfZhn21IlM+8sZF5B//+Mey7TzPJ+MWaL/ZfaftdyXf41aCNb0VgYpARaAiUBFYG4GqAV8bn1t+tbAP+Wa6QXtsEeM4ehFJAj5ubvluKYwVPrD9Rr7Zfr/99tvN2bNnG9+NWzhw4MASAXdeQ0WgIlARqAhUBCoCewuBqgHfRHkirhZf0nxb1Id807qOW2B20taAj2MeVsJcnnLLeT7ake9xHCANa8BXymv9riJQEagIVAQqAhWB8UWgEvBNlB1zE6Yn7IppwseVuCKlBhAWJyKpBhbjtptnu9iUgzwZGKXtt3Iy0BjHMmoT8KoBb5d0Pa8IVAQqAhWBisDeQKAS8E2UI9KNfCcB38Stu+rSJKxpTjPu/sANHgyObLbD9tviy3G0/c5K0jZBQcZrqAhUBCoCFYGKQEVgbyFQCfgmyhPJY2MsjuPiy8wqAp6kdS94Q6HF/+ijj5p33nmn2H47H0fb7ywfpPvuu+9eWoSZ39djRaAiUBGoCFQEKgJ7A4FKwDdRjkj3XtCAZ5aZntAUj/tiTOmn9ab9zsHROJvUtDXg1QQla2s9VgQqAhWBikBFYO8gUL2gbKIs2yYo46wBzyyPOwFPUxqDopdeeqmQcLbf47jwUpkM74BpF8y6A2bW1nqsCFQEKgIVgYrA3kGgasA3UZZtDfheIuA8uyDj4xZyMSmPJzTgPKBwDzmuoe6AOa4lV9NdEagIVAQqAhWBzSFQNeAbxIu2NTXgtKx7gYDLA/I9riYoPLl8+OGHzVtvvVV8f9t2fpx39qw7YG6wMdbLKgIVgYpARaAiMOYIVA34BgowFy1a2Id87xUCnv7Ax5WAGzyw+/7DH/5QbL/H1e1gVsG2+0HndQfMRKYeKwIVgYpARaAisLcQqBrwDZQnUwfkO3fA5D97XO2M29lldjKOGnALLJFtCy7ZfvP9LR/jvPBSudTFl+3aWc8rAhWBikBFoCKwdxGoGvANlG0SVRu9IOLIN634uAf54oZw3DTgyDff5R9//HHzyiuvNK+//vpY235nPRrWgOf39VgRqAhUBCoCFYGKwN5CoGrAN1CebKWZneQGPHuBfMv2uNqAm4F47733mjfeeKPYftuAZ9y138qjTcCr+0GI3OZhfraZn73eLMxcG8S52QLIxMRU00ztayamDzaT+w/HMTZrmpiI38QaKgIVgYpARWAcEKgEfAOllIsvk4Bv4JaxuIQGnPZ73DTgzE3YfYsGRsj3XhgUtU1QkPEabm8EkO/5Sx83sxfPNrPnP2zmr4eHn5h4m9h3qJk8eKKZOnZfM33no83U4ZPNRBDyAQm/vTGrua8IVAQqAuOCQCXgGygpmmL2xgi4870SmHKkXXua1nCFt1sX/yHaBg003twOMj8xeNgL5FudQrrrDph7pXVtIx8LYeI2d7OZv/JZM/P5683MF28NCPi1i/HQ0HJPheb70B1BwO8PUn6xmb7ja83U0XuClB9bJOKhIa+hIlARqAhUBHY1ApWAb6B49qoGPP1os6dGwA0ukMCpqd3ZgactPteDr776anE/KO17JbQ14NUEZa+U6ubzUcj3tXPN3Ll3mpsf/rqZDQI+f+NqkPKZZmF+olmYiKU7F8IE5Yt3mplP/hxa8Meag498r9l39+kg5ifCJGV3tt/NI1HvqAhUBCoCexeBSsA3ULaIKe13bnO+gVvG4hKaY1pwAwxElm018r1bCbg0njlzpiy6fP/994v5yV7QftcdMMeiufSWyIXZ0H5fjR1dL33UzF14P44fBvGO10d7dbT+e1Dvp+K3T4KcX2km9x2IL+ea6bsea6aO3BWa8BDtiHoNqyMQYC6EnX0zd6OZvxkD+Zh1gCsbe2Y+E9Ni4DpZBzSrg1h/qQhUBLaKQCXgG0Bur2rAM+vpDcUukgcPHixa8PxtNx15ofn9739fonOd5V4g4HUHzN1Uy3ZBWuaDgF+LtQ0RgxmWBFljGdQwODX2Hdx6ITThhYkHebzySXP9vV8Vc5SDk9NlUebkgTBHsTizhlURQL4XZq4Efp82s+fOlEGPWYZm35Fm+vhDxcZ+6si9zUQsdK2hIlARqAiMGoFKwNdBVCeXBHyvbMAznGVacORbPHny5PDPO/6ZqYxZCFvO8/lty3nuE/cC+Qbu7bIDpvISladBn6jutc9zQa3rnIsrhVynkLMHBjGi2Zs8OoetuG/fvhJ9l/eu9Nzd8N1CeDtZuBH1O2IThHBAvov1dySPp5Ng4CXQiIcW9+aluOxaMxOa2qljQRhDG77vzlOVgC+idOshMIsZhoWbl2PAcq6Q77mLHwYBf6eZu/pF/DYb+B1p5i5/Hrb1j4ZZz2zY18M0tOEWuo5haLc5fVlG7U5bzHaWR1nURrJt5VG7cq4NidoUhQ1zuTRd9HsNuwuBlLs5292Wt1kH2vLWeTu0yz/lqaMyz+iz+jHKYEae5QGnC9aqqbdrBekU77jjjubRRx8t52fPni33y6f6rd6eOHGiefjhh8uxXV8TH+vKuDj2TljIo3s8Fz86dOjQWsnY1G+VgK8BV1ZKBY9807oqyL0WVDyVTXS+20KaADE7SdeDe8n2WwO/6667SnTeFgq7rSy2kx7tSf26du3akv/59EPvqEy1NdcgBo7KPkl44uIoEvgiIoAEZExScPjw4ebIkSPN8ePHiwA9duxYEZ46i10dimY2bL5nIoZZiRDZHYTCv0P7PT/oJCcmUxMemAWBvPnRS+XiqVikyR48PizeWA9l4GLAcuNCM/tlLGwVv3gzyPbHZRAzP3MjrHhiwDcR9eOLM83cifejDK43++59upk+8bWxJeDakjU+2hglhkXszCkRDW0x1//o27Q37RRR0U5y4No+amfaFkJy3333LS0c952Q7bTWuN2BgPJUtvr3JLTKPpVu6gBZ65qUv1mGjlkXyNWjR48uReXPaYAj2arvGmWQ1l/84hfNiy++WMxOfV4r6Auk9YUXXmj+x//4HyU9//N//s9yPxIvj+ru888/3/z3//7fm2984xul/8i8yrv2YXftf/zHfyxcQ9uRx+eee64893vf+14l4GsVwih/S8GV5HSv7IA5jJGKmXl0vtuCtL311ltl4eUHH3ywpzyfwJpQSALufFwDQa/N6MS1FYLdMTt4Ak5EtHUAIlKQJNz37tUReE52Cs4FgjKFpeMwAU/iDUPnNBU6DJ1DdhIIud90FnkN4iC6D9Hw3B0NvKDcvBrWJ1fDBKXVHgsLh4HUBVFcJOE+xXxB04Q5xez595rJA0eb2bufKJ5SJvYfGVviKF8jCVEv2ccb0MzHIIVd/cznrxbyPXs+TE9iwWuwzkI8DWyKnb3jTJj/0HyHWQ+TnsnAstjVDwpgJEkbxUOy3Wk32lqSaueidkWGUiCtR8A9IzWFbQKuvSQJ1060rSTg99xzTyEptIS+F7UnbU37S6VCtt1R5HknnpE4k0vklCOsfC+uF1J+pdyCb0bEcbv4ZDpSxipzJNuRHCZvkVj1IOWu39WXlNvubctbeUoCrlyzTMlU5Y2c3nnnnbfI15S5rt+OPIUxxac+/5133mk4X1CX1WlphKPnZ31Mef61r31tqY9hsvpv//ZvJe/Ky7Xu/du//dvm8ccfL32AMhBg8dprrzW/+tWvmp/+9Kfl3D205Z7tKE2jDLtcFTTKrG7+WYSRyqoSZKFvpKFt/k07e4dKppGKzndbMHrVkH73u9+V6aS9VgY6qCTgzsc1EGzaifZitiKj6TyCXwegjhH42lZGdc65ow6t3anlOUyGO6js0Bx1EgRyHp1n5+aYghox0HmYSqS9I1QfeeSRcrz33nvLb4T0Tga2yRYFLojzg8FHSQ/iZxOeCKH3LkfEcdkmPLykhHZ3LnyHz4SHlIn9R5t9Jx9uJoomfHD5bfkf+Z4NYhGLWm+e/W0zG64d5y6dLTb2MC4YJp4JUGA9f+NSeJl5LTj3vtCAP9QsHL4zlONRNxbLIC/d6aN2hziRkx999NFS1O58pvFuT+O7VtTm3JttLo/kqzalDeXReX7WxkRtKkmPdpVt6sEHHywmAKdPny4kh2xzvWeNc0j5RobhBY5wJLeS/K6Wv8QRDmQ8GQMzs3OpFEgiuNoz1vteGpSptFFYvfnmm0WLSw6b8UAwpTeVHClz5cu97fJvvyvTvpZMlQ/y9NSpU80TTzzRfP3rX28QYbJ2q/LUfQg+ouxcPXr77bfLIFIfAi91zgDwgQceKEeDgqeeeqrUS+Yn2e/Iq/zJPxz0Ufoj5eE58u9a5PuXv/xleUeWq3ouH+J2y6iNq/NKwIcRaX3OEVgScIW0F4OKRpiIzndLkBYNRifC9tvo1Mh9r4U2Ad+qsOoTE4IsO30aCZGGRf0h1D755JMl8k34IwIp8FxLGO5EWyJs4avDo7VJAo6Ei4Q4gU+oE+QErmsJ4F5DkO6yODA02rdowCUiiFAJsQhzYiI0b/EBrWkf58Irys3P3w3t7fHYpOfORVOUwW231X9eTsKGfj5s6efDzATxnvnkT2F68vbAxj68n7TDMD0spP3yJzGrcEczG4Ma9vWTNj2aHJ0NaPv9Gz1vtz3yELlGumi3kQ7yMsm3c8TCdWRpFwExS5JiEIt4GdTardj7EfJ2m6IZHSdCjuyRX3CEMTKbBBxH0E+RiWvJtCSxCBysUg4hrvfff38hrmSP72GzkZByWPrUAbLXUR1gqomAv/7660WDLP1k9Fpp3Mg7V7pGfgwmpB8Bp6nWBxiAKXt1Qvm7JgdxKz1n+Dv1hFyGhyOire+QX5iTzY899ljz5JNPFpIOR3h6F7yzjCiFMrjP/X6DFRkvTUj5mTNnCs+AnfYCX0H+PNOMj/NRhkrA10CTwNLo9pr7weEsq5TIk0rofLcE+GvIGoaRr4at8ey1QOiOkwYcASDMadZMDSofna3y0eESbknKlRcBmFoX9auLTmAjdYJAVaekPzX10q5jEAlYQpxQ/+Y3v9k8/fTTRZOHjBPofYWBd47oLMMEpSzIDHZdXh//yjb0kZCFiWinkaT4Js7jGNcsTMT6geljoTWfam58EvbLzeFm/z1PhvaWXfMOm9X0BV7rPQPyHTItPJzMnP1NmJ28VmYHyuLW+VXW8ihm0YgmzHoW5sKsKnYgtRPp5JG7m/1MUiLuZFCHEcF33323LEhHslIzqF1mm1PHnWfb6yrN2jNipP/wLn0m8vfb3/62DHSRcW2JVlQ00EWuRq1N7Cp/yOuvf/3rMgtrAzgyThmQZWRKErX13k+GJBHPQQvly7PPPtv81//6X4uNMRJLFm0kkGPkLLnLbtneGMgjAk4GI5HKJOtAV3I3+wN9dRJZmmQDMXn71re+1bCdRqI3M8BAjpFr96lXiLx36HfwFaT4+9//fvODH/ygEHDYqVPKRh0U3Tcc1FXkW6SE8RlulHza1PB97f7Z+ShDJeBroJnCRIEo1L0aCBINZ7dpwKVJw+D1hFDxeS8GQpjwQMKd77ZAwKr/qeHWIYnKRMdPaIk+IwY6ha6E/XawkSZ5yfwM1yekQBkYTMgfYa8DeOihh8r3tCsEcHfEIVgfrYsNd8KryUJsRb8QWtzlEB14+qSeWzRCKSR8qlmYpJnZ38zPhW/wWEw4a9fM0IDPXQlPHzevFc8obJlvi2ARK5OTcONY7L0/e7W5GZpv5743q/CV8VR+UYh3+Tcg4bToURazlz9tpi591szf8VDT91CGfEamtT/EShszs8TMgGwkI7U/hAIZ7LvteZ9IRoiIn6CdaC9nYpBLI5/aYyYFyJm2ljbiu7Fewh15hfVvfvOb5uc//3nZfRkBHAXGScbJS5ggmLS6qxHwxFldoO2mGDQYMNhJAq5O+B6pJOf6CDkI8U51VDnLGzkqLeqlemHwZTBm9lE/t56m3zXqSAZ1n8lTBnWHuQtlCZJOPgven0Tae1ND7zcD1CTgngdL8aWXXiplqyxcD7ssY3VYmjPdnjOqcJtI5K3BpfDWGklt7am77y6CRsXbbQRcw2X3LWosezVo4AQNEu58twXtgFCj7bYinSkQ4ZqaCHUnNW+uTcG12/KxXnpywE0g69jUO1OotDh/9Vd/1TzzzDNFY9IZAUee5sILRRDveUcLMIPYCA603Uv2x0kY/Yh8T59o5mcmm5lLl4N4hm/waNNzR843Mxc+baZPftFMH7s7bMJvD3GfpiMz4eHk5tnfhQY8dhItLgaDfC96lQHbUoDl0gzBImmhBV+MRZN+NQYyEZtwYdh3UB8NBhFtdZKmEynU/pBdclsb3AnyvRYWOdCVdvLhTBBxmmQ2utoTbxSIJ2KzGwPyTakAb9p8GlJ4j0q+eY4yowigyEBOyZs26Wzj4nrkUbkjjEi3SC5TGCDl6oJrPHcng7SmAk3azNLwTvKf/tN/KoRZHik8NhPIZzzA85xnv+lZbcXVMG8zoIGtoN/K5+B22o1BgvI1mDUAonDR30k/HJOA07hXE5TNlNg2r1VQCkd0vlcDAq7h7hYCToCk8NMojPClba+F1IAY1XdlY7YVzHSc6jvhRODpQGkUCFEEHBEw7TnKzmgr6Rz1PfKt3onavDwiDTo8dZJAbi8uagv9UaSFy8FCvkPjSgte3HHc8uBlAm5TnkLGJ/aFocSBIN8Tzez12dB8B3m/Htpznfv1WNNxMTaZufh5M3XwWCjINza1fcsrx+jDwOTkargV/Kx4g5n57I0wO3m9mY+dRAvxDkxuCYV4s7fFtP1WRjm3XFI+0KgzB+IWsr0o9qtXjuQbnb76RuYhGwaDSBZZiICThwiC9rmbgzqob0kFj3ZEjrTbExly6tSponxAfnaTbbhBQ8q9lAOjxhtGSRhX4xnZH5LFZhKUPzmMfBsUkM9k106T7mFs9CFIroGBOqy+IsPqA6UGUyTkdj1NuHylbPYsz2HC41m5VqetFEne5t3OmbIY9AmUevD0GzJO6aUt6dPURa4J813KX/po2kXvWy+twxis9/n2UImsh8Iqv2fDUFjO92pIcrFbCDgChPyYTiP4CJi9iD8hgsS1BcmoR9hbqbOEFmFPK6PDJ+SVBSFKgKknykjnsZeDdiG/NGCIEDx+/OMfN9/97neLacpqmqotY2LxJc8nsfgy/X/f8qwgjAtLmlomKDTfdxTyPXMxyPbVa2FuMvDjHA+I54QpSmjAxf0nH7zlUXvxw/yNmF7+7N1m5ksx/HhfPNMsMMWh9V6prtpynleTCDbnWdKOI+a3XB/13OCoaM+7r/PqHaKhvrGlZXec7U+71P7GUR4iUmQLrTLXcAYVr7zySvOd73yn+dGPflTWXiA8bTK1k/UUzshu1wqgxEW5r0SiyVozHurBz372szIQQ8ST3CKMu1kWJ6FV3n//939f+nP51NchwPq/tYL7kW4EOTkK7TnybdA2TOKHeZt3MFOh8NKO0hyKXEeyyXgkHFFXF73Pdb7zDsoxSrIuBoeVgK9S8u2RaU55rHLp2H+dGoqs3DudIZpGZg6Es8ay2zU9W8VLR6PRpyBBxgmJnQqmunX8MCcsEW9Tc8qCL1YC8HYKBLFIoJMB6iEhrL0oJzJC+ekARhEG7gfDVzUznvl9Ydd9OHSzTCIQSMe0AWfzfagoyJmdFM038r2o+c60MMWYvRR+ry99HiYpe1eBgDzPh+eXmS8/bK5/+Epz87PY1fLSJzGY+aKZaq4HakOk2SBmajqsTqL7c75gun75muEWOPw58R3lUV3S/rQxCgfaOe0PAaf5ppAgF8c5yKP2JB+iwUS2K7JQ/u1giPBoZxQUOxmQM3JPRIK7CnBBSEXnGb2TPE7yTRbbmMbAzG/k0DgE+ZFWZa3cfWbvjoBboKnfW4vc5oAUUZZvsjeJMfI+PGAzyDM4Ed1Le61eeR9PKmZg/OY6bQ3u3s/8h/mJd7jWcy3MZyJFxnfRN1cCvkINVkEUCoFASIgKa68GjUPD2A0EHPbwpnkVNbq9GjRqWlSxqwa+UezgDmtaFrj/+7//e5mWIzSRAkLpdg0pDwhuC7F0itoMmcAkZWQEHOEPnOduxHRyE95MpmIB0kQQyAUmKeFKy+CMD+rJWIgU283buXEmymY27lnSfLcKaX42FmKF3fLs1fOh4V3F60fr+nE9Rb5vfvp2c/2DPzdX32HzfTaystBMTt2MDXRisDSFQrcIdhBvPtLLIMpi17C3HybhxSrFbSXGv1j8WjzQdDBAzvpF7ml/f/jDH8qiP5pXdU5924vtT56QW+1I3p3/l//yX4p5AmK10wRcutIEtcsZB/UwBxylToYsRhyVPTOTlMdMABFHuBnIjFtQz+XLDMg///M/F8UGcmvARYYOE+nMX1ujrUxcS6strmQG6Jok4OQ07bU+Vp1C/A1g1Dca7tTC83zFU49n+w3/8+x2/5zpGeWxEvAV0FS5VfIcqRsJK5C9GuRNJZdnR40kBUKfedZwaBlpe2hdNRSDgr0asoGvJki6zjeBKMKYsCfgEW8r/m18xOQkr+k6Lbv9+XBQN0Xnpj51GDQxBDvBrc1sK0Q7tPvi3I2I14OMX7chimhDlAPN5HQQ78kjQSVjlT7zEjbfqflGMJc5ZkkG0j13OTbmuYKAI5lxQQcEclt53sbNRfN97XJz84v3m2vvv9Jcf//lIOKh/Q7PLxPT+5vpg7HBxn4DFlruRbeNk1w17gsYYhbBrAKb7mLXPQReO13Id3E/eLCURfun7ZyTu/qa1HqzQ6Xl1PbY+Gp/flff9mLQz4jkvr4WWULGBIszkR8kvAvN41p4wlvZ6A+RMYoJ6ewqeLZ3IKZkMHmsTrA/z4WWFl0ijONcF6RdNKDUv9NMs7lGwtmDm01cKbQJtXOydiVinO0pzUocEWzeUUQy233eg6BLB5mt/0W+RXVNXVQm7fesRPRXSutmv6sEfAXEFLKGJ9KCK9hxrvgrZPGWr+SN8EO+EQyCh41V3xoIDeZM2HxrnKbdcprolsTuoQ9JwAkFjb3vkOVO8P/rv/5r8VBAA2f6W4fg971c77eKt1kB3hwIa1OWpikJcUR8e0HHH9pvtsyxcHLmHHde87EFepDJI9E5TYY/8qmToe0O0sK2+yIXg8teZ6K4IiySNc7BoxOZu3IxSHh4bgjCPtDyBhndIyR8Psj39Y/eDM33K821M38omw/NX4+8hrzmrWRhbjJMdQI3GvC5y4FdmDUcvKPkf+FmTIXPxKwCYp6YZeHRerc478TUvrjveMQT8SzuHkcTkGvylr3pv/zLvxRNp3PtETnYy+S7jSCyk6SMvNG+/tt/+2+FoI1kYNt+2QbO9fc4QBI5ZLhLAo5wUzYpb+fybDYg7bzJYvjsFVmc9Z6izYATMcY3ViPgeImZCHzAuX6TvB1WXHku7gJDEadB7vWvtODp7IDSBDFHvn3HFziPPLTg+j71T/m3++dKwDfQcEZ1CfAVQhZ43xW/PeLv493eIcq3iqtTUOFU0r6C9xMy7B1zZbfG1GXQ+DRGeHu3wVYfeGee+hhh57vaR3kkrOSZEDTlbXEPzZuBjw6nhtURUC91kDoMmKV/8O0S8FL3EHCa6+vhzeOq2Z/YApzybSI0tdNhA34wfH3PMlW5HvFqIYpt3r1EHONLHjsWwnRl7vqVEudvhjlLmK5MTI233oXmW55ufh6a7/dovv/U3PiY5vvLwGkwvqDdnp8PudbEwDZI88RUaFInA5TQZgeAZUaA6clGxiKFgB86UXYUdb7dgBioQ0gFLScTA4sSDX59h/jdToEsEml4ESwzSwa2+iDu41JG94WJ8qEFRXz1hfrFLvsFz1fu3ut93kUuk89wMSDYS0F+RPyKZt+sB+0zLThS3OY/8g0f14rOkXXke1hxBT99F9y0LwpEBNy1+nr9rXeJ6hZ5zR997qTpWgszh9/jfvd2EcZbEneBSDyTEMgCd95nUPlElUdDVFG7bPztvKXgIXxMD6m0fQT5E804IDQi4ddlgDHNpUUgzpF+GgcCry+8CQGNW3TeV5BHAspCy//zf/5PMTsx8DHl7fsa1kZA/dAuEQY24QiDBTw0KdsKhTRHZxvPbpDH0u9GZxUyaGbuXHwO2bA/NpsgE7gIL2ag2k7rrXne+nIhOq2iCb96sZk6Gts0jzkBR75vfBQL0YJ8X33r92F2ciYwCo12YFYYNQ12mO7Ay66gC2G2M3WQzXf4R78WMzs8zayyE+aS8rs8w3PiL0j31KE7goDfEefbb6famLbGvIAtrAGwgS+lT9/9Tavm7PhpasKZ4vzjP/5jGYj85//8n0tftBIx6yrBygAhFp133R+QJfKuz6MEEtSRPvuirrBc67l4BpMbdtlkKQ00cj1sC450p0LUuX4b+R7uN/2GQ6QGG2m26FJ0ro9NAk656Dm8ntilUxqyDPJ+v7u3EvC1SrGD3xRkNkDnfQWEVwWhUTM60xiNhPvSSLYJuIrXV4CxPJr+0SDPhBkKTUBXAc5Gu0bdf/mXf1kEHeGX2v8upxvbeSIUCJLhkXz7mlGeJ3EkpEx5MqNAIBEBA87bTfO2HWxhqc4ylyK82dDrNAl5ZGFrAQNHHINgI5NimJKEpXCYk8Tq/+mYoZnFyhFLGu44jUsyLHHu/K4cY7AwE5vyhDZ9Lkw2pg6tbGeZz9jNRzbt8zTfn4VXinfD7OTdl5sbn7xbPL3EGNpkQVkzKdsxVIl/oV+aCrOg8CbDtCeM6+P+eMZNZidsixe9bMTNbh/cXU7KoKbA58Gxo+jU4bsiIuBb14CTc+Sa2ROaPx5OeLWw2BLRI39v54CIwgEZYwOvLdnhECnTHzFV6CNIg/YsOu86kCXItpgEvOt37obnwxbPYnJF+aVfIjuHCbh6oI88ffp0+Z2iI3cObSsJKdLcj0PZNI1ShILNtRSKnmNmhQ9yWnLX2hCKHbp7yHNHsy44gPd45zDRHyV2VQO+ApoE5U5owBX+t7/97eI03tQILcn/+l//qzcCrtIZlYp9dgaIr07I9I/GqCF0SYIT5x/84AfN3/7t35b3If2EgXx3+e52dUvBQrg47zqkpsVA5x/+4R9K50/bpK730dF0nb++n6+e6DS4stKB0JwY2CEMWwoYHxa9qP0eEOwg5B4W//yUfsDLeSHoi2/y2+J15ZvyYfG+GXblPKWExw9EdEwD8n09CPe1My83V17/XZDvMDu5Hq75DEbwbdkti1ZjgDIZpDoWXE4dil0Ww9f3zQsfhvb7Qlxr8BLlg3Qj10vHgW18fFu+G2x0FCTdbMH+e2Pta8RDsUBwGxpw5NvAl93rP/3TP5WBb+5xgHzVMEAACdWezMr99Kc/LbNNiFKfBDwVcFUudlcrc+Ch/9fvi8p42JQPAf7hD39YNOQUZcg0gs1kpU3AnfvOPg3MA/E4PMp3+nxWBe6j2baFvc/I+f3331+uR/xpww362u/pUkFWCfgK9UujSwKuELsOOgJRJbEY4Pvf/36pOLRr/+///b8yIuxjOqqtAe+LhGqERqN8frOB7FLrYMRL62xkrJHSfmuQGj7ipPG7puugrDV+RE2ZEwh9EPDUvtEu0b45GuzsZCeTWMBdhIvoe0H9yKgNqKN9tIWN1AHpEJFwJgTqkTLdMgHP/Bbtd+Q9OdkSmYbJYv0MxvnV3wepRs6XQpyzGS8EPEj4OBLwovmOtN/4/GyQ7zA7eeflWHx5puzwWarJgDOXAUj5vD9MRg7HoskwGVmYi/mDK7E9d9RzizaL1ttFrTj4Llh88TYzQA6Rn9wXBH7fsWbiQJjtHAgbcDuJptZ8CeD1T7Qv7YzJFw9Dv/zlLwsJZ/9tUKx+17CMgDaOlJn9ZY6ITNnJEFEiI1I2LN8x2jPl1acGfLSpH6+nqftmDslOCkfkdzjol5mn6LeVDfMR/WabfLvH96wH8ujZ6g55jFyrN2YrXYOU+6zvzef4zF84zbc66DnWH+AMXYVKwFdAFunucwSs4FUQIy1TJsihUaCOPRd4qXgqRZchBV9fGnANBIEx2GEHKRp5dhU0JA3Q6NdIF9YamIafpE9ZdB28S1oIFu8nJIan3UadBljrVGiURJq4rmca1ssDrHWoBh+EJEHoXEw8kuSqmwS1jpmGzPfytBuCgQ1yZeoSSTCY23KgykWuh01MIqtsmkO1Wx49sG+O0zYE5dyAZfHt5RjPsmgzMJu/ESYsgdu4BYOHG59+0FwN8n3p1d82N86+FSY1sVC4aL5DVx2Q0FiHw5iiCZ8KH98H7n0sfIAfCOL9WTMfbhjnwkY8bHEGWdfGs5nH+eC09V3+ePhEM3307oH9eLg1LC/agnzQzigYmHzxduJcW6zke+2aqB8yQ4cQ5SwduZmyYe27t/5r3/3/1lO6N+4kz80EiSuZ4Ogj8CFlr83oP5Hj4aA/8Zt+xD2CupKDtuxv/J51qP2cfI/f13rP8Hu387kS8CH0dOoqgelkBLgPDXiO2JBDNkpGeiqS0ZnpF0fp6YOA92mCYlABYyYRTFBoEbu0Q05NCuKNhMNbo8yBQF+kTnlLC/KNhHet/VafzTLozJAAA52c+h6q/p18bAs+A0p5Tk1x+0jwEbJrEXD1E+GVJ3UFIc86qz7tBClva3BW6kA2DSrijEy2uXJ8V0xSGDpHWJGglx/Kz3HB8rFowAMvBHzg83rxt11+WJibLW4Wb37xSZDvV5srb4fm+8N3mpnzn0W7DT6cJDqwwpknol1NHYpZrCOhsQ6/3e6fvRTk+/IXcQEwA5Tk2e5dvD+him+WQzx8aiJ2ZDx+dzN94r7QhseC9KUXLl+21pn6qG5yLci/vtlM6y1odneinkprkpQkJvoZAeHIwW5fcrC8eI1/8DNQYTOvjzh16lQh40me1rh1Wz95byrg+uj/t5XYPXBzlnN6wRnOkjoqtsny8DX5Wf1WP1arI2v9nu/JZ/VxrAS8hXISsTYB78MUA/GgOUO8jfRy9Jbf+w3Z0NF3GeQ1yUwf+aYZYvfN9ITNH2JF+HcRNDwzDOy+Ree+E7xTmYtdvb+dJwTT+8Wuybf3whnGSABvLwY6Xdeldn7VZ3XZtB+Tn9OnTxcTK5otA0w2fYSr61IIOgrapJgEQYeonhiQmrY0qBCZa+msd4I8SJP0iNvvsGNAGMxwQLAXqWE5RF2lHV8k4EVLXppK/JiXLR7zcznCjwY8yPdgi3tsdTwCH+czXwb5fu/15tIrv47Ndl4Pc5KYIQsTnQIFOJZioLb/SLPv3liodehwEO8vm/mr4cbtanhHKTIlwAmzkkKi3bMYFkVAfhwc40uyYTIWrB64/4lm/32Phw/wo7des4FPZKl6ydzr//7f/1vaoDqyk+RbvsgcCgB9TZIaJIj807ac70Q7GoY0+2OzonDUD0qzAXyXIQkhEu68hm4RIDPNcIxGfnab1lE/vRLwFqI5zU1w0qwhKTr+rgOhQvMtEi5JDJEWJEVENroO8o+syX+X2vYkVQQrQpj+b7si/dnhsO967rnnij0h0pdBZ2OAI/ZNwGl8uwryAlODG7aUFn/RJCnjroM6rP7S8htoqMOnTp0qK9DTns93flP/Ee6s96ulLeuNdqnuaBMW2XiO95hF8Z38abd9ER1thbwQt9duFtnkSiYoAUoh5YV5Lp4TTS3SHVx7EPLoU5zPh+cU5Jsf8HEwQSn+y2NH0Jlzn4Xm+7Xmypt/CvL9Vvj9/iTqSGQoYIrqtUTCJ/ZNh7nJobD7DjvtQpTDtC12AJ0NzffC7OIGRIv3uBeE7s+xTAHN58VQ3A4ePNbsu+P+Zt+dXwsNeMyUhf/0jYYcJDJLMuPE5puco/nuI2hLOegl57SvNPHSJvUxZqJ8nwoARFO7ytkleRCTlGtTbXLeRz68Qxs2e2dBphnL06dPL81cricvNptGMkP71Q+QL97bVZ+02bStdL0yzhlD5aosc2bDb4mPfMmHmGWqrH3uS0aulP78TjpgvdvxzvSO8lgJeAtNFYFJhJEYwdNXJ04QIiei8wwaF6GDYHRJ1PJ98p8a8O0RiXziykeN3rtoGCwENC2r8XUVdEJWO3M/BGOkL/HMtOSgq8t8Z/68WxrE7ADzt1EeU7BZ7IUI9OFfXfoJfiTAQhnmPuILL7xQsPcd7RtCAAdxI+Q7n+vonvQ2om3YSIErKQvc+DXnylJH08dgSnrICQRG3PY7ke8Sg3zkZFAh1KH1nYsY7xLKeXy+hYCXH8rPy9+Xay3CRMAXyejiJbv1sIB8n/+ykO4Lf/xVLLp8tez6mZrvqF5L5LuQ8elDzb6TD4S99rFmIezF527ETFpovuW5gNjWfMd53h+PiefE/8HfAI44nzwQZmH3PFrsyKeP3R2LLw+F+ffGF2cjqtZYqI/p7USf0ldAvvQj2gZTO4oHs6s+kznIt/ZH9mh7gnorkn/qcZJQZgEGEgYQZ8JTlFkmv/UZkH9282bLeEORzjbBHFVa5F3Z6YsMpvuaEd1q+rMfgQueQCaSrQZYfkszDOUpTwYV6qEyNRj0HSx3moTDHd5dK/62inOX91UC3kJXp51TISptXxWTMCQgRecZUgOucTnvOmgIhJ2IvHUVCDbkm0DPrZd9N+qACIpIH4KGCOY0pndlZ6Php+aHQOo66PgIza4JeBIBnRczDYtNu8xfEm+dAJx5LviLv/iL4loT/r7TKWSnvxWcvcMzRG1FpwNLfoJ9J4+0O47KtY9ATiDh4vYCJogQxSZc3OW1qyKujYAXP+CL58MacC8vZH1wXDqN+9iBM0Up/sVdtxsDDMNue+bCuebqu280l994OTTgb8QCzJj9C/U/rowsZyy7W07bJv5okO9wMxZmTLTec5fPhc/z8PgS8mxgdhKHuC8139axeowZhXxm+a24LgxvPKFJ338f05MnNuX7W9vSb5iFsbtlar7ZMHfZl2hPSbq1B3JFezCjanCaBFw/4rc0+VqpHUonuYhkI2jImvs9L9fpaFu+J1/6IHD6Bu+kSGA+Z7GzfI66T9TnIamUcGQIHHZDIPOUr/waPJGvylC/ZlClXEWfc2bDteShkARcvkQzomZCHfEd5UxWum4nQtY3dU4ZkKPyLO71UAl4q4RVQBUSOUTG+wpJyBAJI9cMzrNxtb/P30d9VPn7IODeQaNC802Qd6Vp0IDZOMKQ1xPeZQipDDngUt4aP0HQZUeZ71WWOsLh8s7fR3UkbGm+2X7LY9edpQ5d3nSQ/+E//IfiThMJZybCRESH0IVQzXZiY6W//uu/LmX4s5/9rDcCLk86yJFo5doEvE2wo1IUE5Qk4PGbzwh3IdpLbHux9rS+L0Te57xmVBVsxM9BvueuxgLbj95vLrz4qzA9eTlswJmRYMqR+Bb5dl4WXQZZnjoSG+TsPxh4WHR5sSy8LB5P5Nd1EZfIt8/x9dJn29OXoMOPaft9h5vpY6HwePCZ5sADTwa53/jGRfoPGmLrWuxwme2ua5mS5BtRJucMdmm+DXhTI2qwqp2Ia7XDrMs06GRnDqbNHlq4jQRbxP2Tn/ykKE/kuWuiSm7pIxJb8lx6Rk3Asz/AAXaKjC5WxlsOyle5KU8mlORcmvHpz5SR3/EIZSuSxTnAgp++XZRHZJsm3CyNGWh9sVlDfUTXdfWWjC1+yBlEZSx96tNadXSlZ4zrd5WAt0puJxoggafxaEi8neSiGMnyfR9ELSFQ8Wk1cjTs80hIxeILNG7CQONn9y0670qA63RobpifEFqIYXuGgZAldAh2Go/tazATybWPOeBSts5HHWAsbzQchCtCQMvRtXCllYGx7X0RYZtK0dD4vsuQBMQiT6Yu8irfqXnsOt86OuUobmuAgSkGCSwxeOEtBDsAnA+f1na1xCAHv4WmHKsuMQ5ATj7ZOi4UlW+47YpnFy347Mxggxnv2w0h0s+0Zu7yxebah+8G8Q5f32+/1lw/+z4D9kH+5FlyxaKpDoJxIEjiHTHzcfR4bC8fJkfhmnA2TE8sOFUOJXt5T7kv7k1c8jNuv3jNRJiyTJ98MPbdOd3su/vhZvr4PRsyPRmWawa9drpMP99dQay+aVsG8rTdX//618uME5J2+vTp0p8McJDBjYckb/oiRFzf5PkIPj/NCB956Xd5pDUmc7pqZ56rj/AeWvhMC9k+ykBmIt8iLrDTQfnCWj9BtiHd3/zmN8tCdudkK3OTNmfYSJoRcQonZalsac3JUNim9n8jzxnVNdl+lLGoH+6qLo0qzaN6TiXgLST7boCEY45uc2rJyC+DhqWBiNm5d1kxcyRKuKZJRnsqK9O11WMSQ1pv2m8kiTa8q0DrSmDZ3Ij2APmGdwblLS2i875CDqwIVuejDvJiYGG6lpYDEVWmXQZ1mWbqxz/+cfOjH/2oaOF0EKPWUq2VB2TEYIsJgDaj/ehsumwz0pNtWFm269daaV35tyCNYWssFjvwIQ03TXCxaw7CXzbkmQxSLX/hFUTAw0vIow/OaXZDQ2xxITtw5hlT0RYmwnxjNwTkm933jc8+bi78/lfN5ddeivNPB4ONyEChj0uLL+NT5H8idqRkKnLg3ofjfCLsxd+MRZufRP6ingduNtIpNya5js8FFmwbrn4XfC7XxMY7h8I2+uFvNAcf+WaQ+jsH5Nvv6wRyjfbOtD5vJz//+c/L4LdrIqG+MzEh39hG8zCkzVHk5GJ+7XJUQVvODUzIUu/63//7fxfZQuZ0pUjJ9CONZ8JsUdQ/jTq0FXC7gYAj3xRHTCd57lLW+gz9mrJXHluRN+4xsMrBFLntXSLTqa77itXKjZzWZsTbJSyzvdslx2vkU6NDXMQ+GiCyrSGo+ASmBpXTRpKZv+dvCEWOENfIxpZ/0gCSJNOCWxghDe1BwZYfHjfqpNjyIYUW9tDQIkijDjCUZpqhXARIcA3nQ6dB+628+yDgOeBSzjrJ4RmPUeGgc9JJpd13l4McaZYfnUJucEQLbT2DTqLPYJCqnBEDNqLerx533ZZ1aNqoOFzHNpV/ZCnIdzA/DHJJA16eEXyRHTft7iTiHGR6IrZYX5gJ8qrDWuSTjnm6fBLa4rh2Pq699kFsyX5zvjn0EA3viU0lr5OLdbrXrsYul5/GYss3Q/v9WnP1/TPN/PWrYfMeRvAFk8GbY3hSTvjk3n/nPaH9vjs+TxSzldmL54v5SbHgicvcVsxMQJkJD5iWvve7uz0y5OrUQdr0B8Pt4JNB6k8PvKmUH/Pm1Y/aG02w6XwLnU3n+66rgR/ya4BpsMmsjtmJtRZmn/QR7T5k9VRv/hd1W5tiUiYNiJLFfOS6wX7XcgYx1H8YYDuH7ygHGNn/76QJivzgBPou5Ws2McsYYR5F+bZnOCj+KA6S+OoP9fvw7XpAtVINVKYZV/p9r31XCXirRJGwnILqg5AhDLmILMl3W6AkYXOdzl3DJNi7HiEixabxTfkl+W/BtOVTzzQ1q6NCer2ni7zoKKSbtoZ2yJQsQTMcCFwmMH1NOSJqhJ20pRZjW4RtOEOLnxNnJj7Ouw6wZZOJCNDCDS8m7vr9+XztReeiLSHi2pZ23DUB1ykqT9H5lkOkf4J2m6kIAj68CHMmCPi1cCUYkybIN28d89dvBgGP6XJsE6OMuEQ48yRMUCamDgRBvdJceeeD5sDdZ8NuOhYu7jQBj842BEAsujwffr5fai6+8mJz/ZNYKByaThsGwaCMRQpxjvzJYpif2Gb+8KmnI/8Hm+sfn2lmYqOe2Svh71t+h0m270wYINqLEa8u5Dy+cpwKu28mJwceiIWX9zwSuNy9KbeDSIvdZf/t3/6tEHEymiKji6COq9dJulMz6jt1r91/dPF+z8x+i0bWjJc2RzvdNQHXjrN/RvpzgDOqPGf/35cCbrh8Un5RIJhF/P73v1/6r1OnTi3N6I0qr+13k1sUVQi3gaQ+wyCH8qKGbhGoBHwRX405GyBS1nWn7bXIGDs2o12kYaXG5TuCleYBcZPGLrTG7Wom78i3hmh6arsBydYhEWxIIdMTtmZddVIGKuwVTd+dPn26aERXmqprC3S4dh2QbbMdNN/SqCPrItBgsOcTnXcVdLzypP4a6LD5Zp8pjzsVtBdpgq/YxQBnOG/KcTQzGsEGJ0Mk04IHMyx23l62SKSLBhw5DVY6EVrgyQPY5sUBUV+8Jq8tR9fFoI9HlZmLV5qbF2+Gd5H3mplLV5vjz3+7eAnx+0ANPJyr7j/PXQ9ZFnLgypmw+44ZsWuhTZ25GO4Db8asWJRj/BUMyhE0B2KR2bHjoam+q7gGXAhb9plzYa/75WeR2MAiQiHhCHcr5Bb1t/j9Lr/Hxk8xmzB17K5YdPl0c/BrTzf7wuc32/KNBPIDSTGbZ+qeWV0qFjZy/2avoXU2sDTYZXJC6025MAoZvZm0kKXSwqxPu0e8yXTaaX1TV3IdQSTPvM8RCd++2ddyzvvuD5bfPDjTvytLmP7whz8sgyy23mY7ugy4h3g6+kqL5pFv/f9OEHDyO2OXed4tz64EPEoC+SY0NGjEUOXrmuSqAEnANTrnqwUEHKkRu9YySIO8I9/iKHCALQ2JVfQIuE0VumzcBJapO1oi5FCHoVEPBwLXYKuvAReipgMV1yrv4XRu5rO6DGtTw13bfiO3Og2kG9YIOCK6G0KM0rTjAABAAElEQVROs/aRFu1TnRO3M6iaKIQ5PMUECbdwcrDQMnKwSK4XboYGPMqW/fO+O8K850DU6Ym4FvdcgYBPTAfB3H84iHYTu0l+EOYr4a88FphNxKY1s5cHixWnQos8EeW4E2H2YsiYP70cZidvNNc+il1Mr4Y2v5jULJJv2YtYtNVxnIqdKQ89/Hgh4Te/+CzIeizgDsK+EItTCwB5vY9xPhx91bYN57awuBwM7ffh0883hx75ejMZ2vWNBjKMuYkZPQudtbku7WdT8418W+RMA017uVNB2z916lQxJWSWQnvapWKFbEPCybfsp7U5g4FRhFTA9TUj2k6z/oky7m/+5m8K+ab9hi2M+wqUfMwI9RvcA+uv+www6FNu95m31d61M5J3tdTs0PfZqHNknfZlXScHCUO+RSPQ1QKikwRcZ991SAJuIIKkbjcQmGwEaWQJaYseu9CSINoIkCk8iy9pinRQK5FveZK3FOSjGGish5PyNiAQt0PU1nuP/KYwWy3v6z1jrd/hLC8GEjoJxDtNT/rQOK+VthxMa8NiF/Vs+P3KMgn4tton7x5TIZLDvruwR1YMQayTW9OAN1fDBvxAeDGhAactb2i4B9fF/+WLg31OBDlnejIfCmW+tWevXA8vIVeb/ZevxOfwGBJaRO+b6pmAz9OShpnG1fc/DLOTPzdXorOfu2bznPBEFAS8aP8j14UwR5Ymo75NRn2bOnI8zENORpqnmpvnP2huhunJfJQx/+gujmq/RNZ9RtzLQ/I3H32fXlRi0eWB+x8LUh8uB+8/3UzfETtesnlZJ7Rn9JBv2m+kpSulgvpF/tOG0nqLNJWj9gKyTra/8rO6Tr4yOWOvTMYjsRRZXQRtW/R8ShOyG2ncLgFXnskBUvPrc19B309xoUyZFFFmnD498GLTVxq8J2eOzR4j/voOeHcdsq/Sd4hIeBf9Vtf52MrzKwEP1JKIadQESDb0rQC6mXs0vCTga2lE2wS8D4KDjBJEo9KAe46Oiv9Y2gWkqIuGraOiJbJYBSHUYa2mQfB+5W7QNap8rlf20te1BpzgkmdC1KIsmoxRd4g5kDD9/Xd/93fFVpEWXN3cScGpTHWm8que6aBHMYDcSLmqd6Iy3nKgAdcBIeEtDXjpAv0rplw3mqmZ2dh0JhZghiY82OhXbMVLGTBjaUI73uwvnvxmL8eiqiDgxYzlevgD/vJcmG+cb6YPh4ZtjcH/lvOyxo3IN7MT5Pviq6+FB5P3CzOeaGaDL89FDJZcePiAWDdh777vZLgbPHFn0XbPxaJN2vO5GEDw/V1Ci2y7PWOScuYnaYrCzn5iMsxZwtzk8JPfbQ4/8XwQ+/B6gny7YZ1AfrHzRrpttsPtoL6jq4B803ZbjIegrbampav3r/VcdS3XgKRHqS6xkBZtWvtm7qP/3G5AtpWnvoCyCAfoY+Ce6TaI4btd2TI/Wavfynu6OBrImMkgy5HxlOVd9NXt9CPc+hR8iPzc6X6knbauzysBD4SzQWvUScC7Bt7zVToChCZjLQJO05Aa8L4IOFK6XWKKDCHzFikxPbEjo2d21aARz9OnB3ZshAitQgqRdnlmuhA1gtexD4GrjJOAb4uotTOzwrkOUSctb4SqqUT5k+/MZ9ssZyWMhh+bU4PqH1wNcswysFWkufFO1+xk0JHSehs89qXJgp1ypQGHy3bK1bMmwiZZxCCHNdvh78Se4UXjywwluHeE+EcDXkKQRwQyNN/B0OPq6Wb2Os8pscV4mHfM3Rh4HJqP48y5C83NGKAcCNnTV+DVZD7I0/VPP2su/fm1QsDZfRsMlE119k/FgCDyH4OH+VnbyMeOeKHtnjoUW8PffV/Zan426vQs05Mg356VRPsrR1w6MmbcUo4wKtUzFnGGWc7+u8JF5kNPhvb76eLKcDLMcjZCvmGFpCHfr732Wok0v13MoGlP2pv+gWchZglMBHZa8w2DdkDWyAPRedcB1qPonzKdqXAyYCc/+tJ+K199Ow6gfGm+T506VeRIpq3PI9lFjlEkKEd1DxZd9deZN+/xPv03PHa6H8l09XGsBDxQRrqR7yTgfQDvHTpuwlQDXIuAq6BJwFXQrkMKJCRmOx2Le03LfhSLc9h9c4vX1TQtTBAgGgTCbDXy7brUeFjIY/CFlHYtZLyXgOvDBAXJ/8u//MtSr2hTuHtUx8XUhqtv6lUhfUjbGiGJgHtM+aqzp0+fLtoSdVfd7KNerpHE8pP80cIZcNBm+WzQ0VWAXZrj0GKJ28IhNLAWBfLXjS0OE3BksgQb69CSlzDYtr4wzWLCEvdOBzmPTWUoh2cvBmG9FrbVsbAxZ5MtcrypbZ+/ECYfo3cDupiwrxwQ5pshZ6+8c6Y594cXg4S/OrDhlrBIx8K+2FI9dp6cmIqZjCtRbpEBmv7pY3cESX4wiPlEbE8fpiefnY3BxMDfd+6QqSzSVhw8S9ruqNpLpihBxfkMn4pt64889e3m6JPPBxF/IMxbwid6mTH4SpJX/AL5yxm9XHTZhfzQPrU3M1kGujSkyNFuC0nckLdt1f8NZoz8JrspGEZBlvUByrHv/h9WZKeBC/Kt79Jv7VQg58l4ShtRuZKfXcpQeW3zG+e3U7i9crtKyWYD1Aiddx1UdB23ER+Bup7mrO8KijiPQsNAU2RzCsTbEb5ddFRJgpBBdt80sgTbaoHQNhBA0uS1izSt9G7CLTXgzrsKtAlMUGCgbqVpVRJw+fV+HcBmCbg6Kw9cPNJ6b+T+rvLZfq48KVMmN+qb+pva/vZ1ozxX73RUSBJcTKHCY6uBacTkvv2xcDLWg0zZOIdWNp4WTBxRTn/f3PPFj+U1xV1hfC7mE2zCJ/ZHfQ7t90wYc1yPneWuxHT6jVtlGjOU2SthxhHRzpidhygbaZ+JMrn81tvNxSDeV94+09wITfig7Q1se2WWe0UK/Ka5HDhMh1vA+4rPbwOM2SjfmfNhOhPttuyGuQh1gSjuWDoGdy8QBRFPDXgAFNAEqbgjFu2F5vvwqedCA/5EaNVjjcjSYGZtJBARsoMca3tz6oqgaMfIN29OIqK2GwkKOTKSAeja8C/9ql2Pco0HuYh899X/Z0ayfPVXbOjZ0pMpOxXILu9Xx0Tn25FnG81Hm9/0MYDbaLr6uK4S8EAZ6e5TA65i67ARmFxEslbDy5EyQtWHAB4VAadBtzGFaHpPZzvocEdbtZPY6qBM0eq0CLfVwqjyt9rzV/ueRiEJuPOuggGeOkMjBRv1G0nQcTkqgxSuGxGwrhFTEy7tiGd+31U+Nvpc+ZEvA43f/va3ZVGcutd1gIMBTuK8XTwKAQ+vJJMHj4ZWNojhwZNByNl4hyb/UphuzTDLKHw8slbsKRa15GHTHMSdWcrCROx2GUptiy3ng3iXreuHgQisaMGXSP3w7yP+jHzbwfP6J582X/7md82FF18q5i9FFkTZlVDIdPwzsFg8t8X80SefCbOUw2EnjrB/VEh48Q+eJDvqZSHbcU/7OHhGPNmzzAwEXuy8jzz1QnP0qW8Wbyr7TtwVuG18IIx807qaYeH1pGs3n+oWrahFzmbOyH51bLeFvgmUtk6mjWqGq+/+P8vPoIX/bWWsX0iZnL/v5FHbLO2zh0Toq3AhsQ9+00OWNvyKSsADqhwBI+EaY9dBhdP4CFhEcb1K17eAQ1BN8dEoJnnbDLlA9DyDOQD/sMxPaCS7atAGMYj317/+9WIWAdu1Oip5MiDoa5GetBCuSCuyJn3qQFeh/T7v3OuBNsw6A6TIRk+IUZemToknAm4GSzTQWavO5T1rHmPg5BlswBHphfnpYkayMIeUBlGc9nuchpa4MEvklda7LMYM8j0fttOh0J67MRteRYK0RxtcM9jC3jPEDokd14nXPvq4ufT6G83l198s3k8Q8qKebiUQUZ+LgcF0eG7ZdyJcOt55MtwEHo08zcROmZ+H7finxSylDELgELFNupc+D8Ym8eTAiyYvFpruuyPsWh95PAj9t5rDjz4VizrD33fsfrmZoJ6lizZH/QUy2EVQDxASMk0kMwyAd2OQLvXfDFAfaYS5Pjv7pu1i0nf/n/JZX9Au323Lj+0C0bo/CXhXfXbrVaUvVL/V9y77xfY7d8t5JeBREhqy6SdRY+w6pMbWqHcjmtA2AV+PrI8i7Qg0TQ8SDg+fNzM6R76RW50UUmTrec/rKhBkFihxz4UMrSfI2gK3j/KGnc7JQIGQMfvRRzl2hfduey7NN08UP/vZz8pgj4ayj3LVdkc+oxHEayGIcVkoGRvmzM/cLLbPU4cONtNHwj46SDh3fEUDHltlToZZxUQsKpyfm4hr7ZQZrvyCxBbTkuDVXw2YK1vz0KZOB7Gn6QpCM9iBM34bdYjn3wxvK+d+94fm/O9fbK59HAuCydiQKZJHN12CdIR3l5mLl2M8sT9I8qlm37EjxWZ85vyXxW3iQJs/cE+4RLYXSXixBcdPMXJhIq6L2QOzCQcfeKQ59uwLzZHTsdnOg7Fde2xhbxfNzQZKBJvtiOocItgFQSG/EFmywhoOkezYrSEJpTSvJ3tHkYcuNeC4QNch+wOzGhRHp0+fLn1C1+/d6PP7JN/S1FZIVgK+0VLaA9dlRbMwjUBFGpHHrkN23MjiRgi4Ssn8pC8TFAIODnBhx+1Ik7pR7QaybXc4XgKQcLh20VHBBZllesKN03q231mu7QFXHwI3B1BG+WY8NlLmmdZ6/CoC6lIOEmkhedf5xS9+UcxPbIbS5WCvnRoDaZ0oEu58dAGJDCIeG8zYer7Q1FiYWbzkxaf5GQSd+72gsOFOjwYcYWfzPWdr+jCVWDNgr7SpcAzCTkM9xaQoSPkoAxOYmUvh2i1232T3ffnNt8rCz1XTh5FHmpjT7D8ZG2gd2t9c/8jumOFuMIi1TYUkvZDrOA7OB5/xeJ+Li8GpIIL7wp1jlAkPKlOHQ5N+8ETZdGf66B1Fq76ZfGY/wayJQkG0fqQLmSZd5CzZRlaoX/oJpG23BqY58BCddx20fQNssltftd3gOX2aoKbcYPNtLc1uKl91GqYwFruq4+0y0x/CYKN8qH3vuJ+PVuKOGRoql0qGYCKJBGwfhCwJOOG6kY47CRwC3tcIETZIuKl8URo2qrWF5bDtdxdVA/ke3nKepnm9oIzNdhC6fWhKlfHINaXrZXIP/67NMgewqVP6YVbffO7D9CShbbfjUQ6qii14dEqTESeuhVlJ1FdbtFs0WUhnkNEDd18JghnkeyFEOFOV67GRTZidRO8ZycNSbw1fVYbHIs3QlN/44lyQ1MPhjjDc/Y2YgM9cDtkRJifn//RKc/XMe2FGEiYbFoQOVN8lgZkumnADgOkjR8PrSWj6DWiCiBZ77xhg7Av77QX2NUi2B9Bwe0IcS/A5PJzQ7A+I99F4ngWpBiyT4XnlvTifLtrv6eOb8zSRspBcs8DXQt8uB3kIuPpEbiDeG1V8DIDo/38utrfQvktcMmcIIrktkgXbDZ6TBLyP/t/ASr916tSpolRTxn3MHKyHk3qe5BsO+v9RDHDWe6+63o0iY7037/zvtzUB13gJDCN35haIuErYddgsIdNANVqEU2X1WcPoOq0aYGo2kP/1AjwJMyYAbL9piroiRAQWjTKvJ/xR0yZsdJo2BW5fq95TwGx0wLUezrfL79kh0KopM6Rbe2UKoMM0w0LzzSMF8u37PoNyzYHVRgbSG03bRGhwkUixkFBtveXJZPLg1dAkXwp3erGJTnjwsJCQ2cqqmuXFF5dOPmQHCjsXsm720uXQUAexDw34vmi7o9Kxpr/vG59+3lx69fXQfr9WFmDa6XLFYFQRcSpk3MEH7g/77JOxU+bV5uaN62G+cjHO477CtjMjPvqCrHZvkG+HMMMprht9iMxMxAwCs5WJ6RiUxEwB8s/cZrNB3UO+uVM9e/ZsGbx3qelV70XE1oyO2USy3yykOkcRspOELdul/kGbRLwNgM1E6S+6Dvo+BFHcDkF0r3KEM+WbvqrLck1c9OVmbUXlupNlmWlyTFzxIGWrP1fWXYfkQ/pH9ft2Crc1AdeAmZ6IhGwKvq4rQLvj3kiFQ7hVUgKYhpcWPBtIl2kljJKAc/G3Xkhim9vOOxJuow4EFq0Q8sN/qsgOfKNBuafGQ5q7DilgpHcj5d11esbl+TqEHARaZImMnDlzpqwpsK5A/eLjHDnqop6th1Nn5Rp1e/LggIAX/9Rp17yYIDbeN8Kuel90jsw1pqMTvxFEfN2uMuTIVDyXV5CbX55vbhz/vBBehDmE33rZ3fDvNPY3vviyuRLE7MLLr4TpyZtl45z2G1JxXfhzIczh/iwG1EeffKJo/i/GfdeD8Nr10mJSl9wSlj4Pnlp+R8IDuzKACZLqpoVg5Afvu6859LWHmv333jcY1NzyoPU/GPQhweqcQR652CUxQXxywad1DZRDNKbMFcgQpI382ynilooWWBiQGAD/5Cc/KQug9aVdB3KB3BadbzUoR9jKhzL2PHnrOujH7ThJaeR8t4TEAxbkbpd1vJ3nthx1fjuF256At4lYXxWuTcA3UuEIWloP1xK+RtAER9fCQiOkFUDCna8XNFydFM0kwdyVRhIOPMik+cmpU6cKLuulT/nCLDUe0reRfK333PV+V945xXY7E3D4ZxnAncDP6LNocKQjdERClJVy4lEnCTgSTuOts3dP1+1gpfLVJtVDhGjUtotl98cYaBe77KKxvjUFC7C6cLHYOR+IgfHU0SDiCOd6IdLs2Qj3DHO7L48VTXjRCo+CgCvf0MQzl7n89pnYaOf15up778dCyi+j3FdPHE3/vvB4cuDee2JB6f6SphuffR6eUz6JgUEQrPbNS8T71udF1oJwD77Lc4tMJ/eHt6HYZOdAkO+D9z0QA5DNEx6ylmcdkSzcDum7NdUrf9JGtAszdDTL6j/XqruJgGuftMZmBch7GxN1tSPoMErwT7kBq60GskMeRFpfz+w6kBtIN/ItbsRksus05fPlXx+uvveBhUEkXoPP6M8tOt6omWumedyPG5Da457F1dOvo0fA+zJFyJRkx71ZjSjNdy7GJDAIwS6DRpga8I00SIJMh/GHP4THgzjvKsDAxhQWXhJiPm+k4SJqcCNk5MuxD/KW5X27m6DoLHV6iLWBXUYC37k6kwNibZJm23fKSVtFxkWfHT2razK0Uh3Wieo8dJ5mXsRRDqwKAY9OaepwkEWEeSgR89EumY5MxWAcSZ8MucD2+SsXtu7zjInAfz7MMpizsCefvnA8zDLSbnz4La2bN3havLdEmdhq/svf/L45/4c/BskP96NLSkoMefCefBtNOJvv4888HZvknGiun/0o/H1/2tyMAUYh3uXCFutOwtX6SvLy65JU98TvdhXdFxvvHHzgweJV5VDICt5kNhvUT7bfr7/+eiEnm71/q9drE95p4ImkIG7qWco69XAngnas3el/yFPpzMFwX+3Re8TtEPDs/8kc512HlBvKUr9lQLUbNeB9EXD1mEJR/+2onzTbfzuF25qAEyDZ4ffRAHXaKphGlyO+zSyqVGGTgHdJcLMBIDiIKgHrfLWAxMKP7Tef3zoN94w6EGAiwoN8s/22LfpGyU/mB3ZJ4EadxpWeJ317RQOuw1PeBmTwzGP7O9/nb77P6DsdNuzVDzHJt/NhAu6z+qedbqejXalMtvNdtuFsizpUbXtUYeC7GgEPrx8rdEjzgelC4Dg/O1NMShbmbT2/vigf2InHvbH7JTMRbv8mw3TFYs/IwLaTz66c5toul5ffeCv8fX/QzPPiskiIh19QBhqxkHTfieOxCDRcA0ZaLr/1TnPtwzA9iTqizDdFMQtZj9fFTWzEp8MDyuGHH2mOPvZ4aL/vL0T/q7Ysw6la/ozgqbMGgmZcujKpW37jrWft/unWX27vT9oamSpup90lvn0p4PTfZIX+i/LNGqbN9P9dlzpZnnJ5Iwq37aZH3mEAD5woB5bbfe443b++1B6n3Gwyre0RsMbYddBxa4A6bgsGVbrNjPjaBLyPyqrz2YgGHI5MBHRSPARwPUjLOeqAfGu0yOwLL7xQdhDTgDcalDFh25fAzXSlBpzQdT6uASFCSpR31gtHJJpW2tFnU+aizwh3mpLk0f0EfMYk645+U06OPou7iXwrOx2/ToPpCS04EqBujiosacDDO0nZJn2RWLafn3bbhTz7PdKwwmWtWyxQjPIL+3GhkNtoS/uQgCDAtOjbDbaIvxAeT87/8U+x6DL8fZMBNO5Stpi4Nk68uOy/K1yxnryjEO3Zq2F7ej7MwuI5BgfltiFYB4svZSBTmw/OzwPy7f++E3c0J77xzeZ4DNblczPk29PUPfWZvGBq4ahe1rCzCOj7mCuI2yGwScD70oCT/dZS3X///UXjK+3t9rCzqMbuuS0Cru53HcjRLkz4uk73KJ9/WxPwJGQaoPOuw3ZHfO5Prdt2BM9G86lBJtFaq0EiWmn7raNyTxchiSx7SJtTWMiyGUKr8+xzxoNwTW2pGY/dpvEYLiPkWpkra8Q5I9zaEdlGsJVzarF959x3ScB9h3S3o2d6xziHdseh/o26E50M2+XpI7FDbsSVNODBngcENA5lAx363o0MAOI+xJ1tNFto9tFMUZh7TIVCgC12ec5GntUqQBp1m+tc/+Sz5uJrbzQXQ/t9M4j0ml5Z4h3TsUPloWjD++862cxcvlJsxdmPF1eFredv9rTYlAfhPvzIo83Rxx9vDj/0cJlN2Oxz1FWzekxAmFiYualh5xFAwCmwxO0ootr9QR/9v8E68s30JBfS7jyayynIAScZ3oeMJkcpMTZriruc4vE/u60JeDbAvjQb2XFvVRPaHvlvR/BstNpmg0So1iLgTAX6sv222Y7te5meID+bmUHIAVdf5Z3kW0dh4ETobia9Gy2nUV1H6CLNptx5FxERELMbMENClLVrtB11QnQfM5M8H/4+TVDyOKr07tRzciC41Xa8XrppvadjpqyYoARZXlL2Dt1Is5yzA4NrhtTFrl+8uWihF++30+SBu+8Krff+5tKbbxXtedlpk815kJsNkflWWgr5Drvvy+Hr++JbZ5qrH/BeEi5di157cGHx3S05zErMGMRs4HRoMI8+/lgZCJz/48tlweZsDOYleSknmfnFL4Y+Ll9pUCLEdcWm/OvPNCe+9Y1C8KeP20F0812des77yZlY9Ou8ht2BwKgIuP4gFTJ9EHAz3pRGovPdFsht8l3sA4/kQ6NexL7bcF0rPZuXSms9bUx+0wmISARSgXD0UeHaHbfKt9lA6z2KqbeNvleDNBoWnQ8HxAuGiFrXtt+m+U37P/fccyU63+wgJAdcfc54KC/ab6ZHfcxaDJfRSp/VfWQYHoiFmOYj2gOXf0m+HdsE3GCMZnC7C6BWSte4fJcdB1OorbTj9fJZNNRFAx4+goOMrxrmmJTEzF1skcldITMSCzSLhnzVm+KHaEtMV7j3uxK7VAbjjkWKD8WCxTuafeFbnCeSDYVFOWpB6KUg3hdff6u5dvbj5mZosQd8OQ1GklIPSHIxPYn2axAwEWmeux4zLGYhi7eUpRWbG0rC8kWxMJY9eZDtI6dPNcefe7Y59vRTxcSlmOksX7jhMxpvZnUIeNV+bxi2zi9MxUaaf231hW0CThZ2HaSX9psW3PluC/BIAr5Sfz/q9JKdqQHHjW7HsIZ037twICDIo6lxFW49De+okMiOe6tTLggcM4a+TBlglATc+XAgtGhIdVBMULgehOmoA/It7wjP888/XxZfbsb2O9NDwNDkin0MuNrlvZsEDPKNRCPa6d9Y+aVfbW3C78rXUYSXSDDfzuRbXeq6XGlrp02vBxku3k2W9cFZlYtmG9mevRy7Y9p2PTqzydCqLQRpRKxXC7TSZYv78IQyPxsmR5djsXRoo6++fzbI6l3NVLSzjRLWosiINPD5fe7FP0V8OcxZ4nmxCnLB5jjeVfTggyP1tDMa6mNPP1lsv6999HF4Pfm8mQ0zGM8r6u/F+9p5WPIbvvjlkGv0orXfF4PdY+FN5cQ3n2tOPP+t5sgjYXoSGG41IN02mRErAd8qiqO/L/sD7dD5VgP51qcGHOlmA35f+KXfTf1B4ke290nAt6uQzHSP8/G2JODIJK0fcpkLxYrw77gkt9txI6G0qWIf2lQ4wUckrBA3Ai+nqNn88nhiBzS23z53EUzXEVpPPPFE83jYdG7Vf2pb4DrvOuwWAaPcCFckgoCl5RYNmBBvJNziWbauBieVbKxdM5SrwWBXGnDeQGyuI65lOmGXRzbT3BVOhnu96eNHBxrxrxDwgT560UijuCKctbtkBNrryUPnis/tQw8+0BwIf9zTx46uDcDir1wYXo+t7C+feb9owK/yXlJMT1zgnW3Nd2io7fAZducWRB4MIjIZA4er78aC7Q/Pxm6ckR4EfCPBo0Nrn9vO03wbNBz+Wrgkfeap5uhTT4bd94Oxo+bmtpzPV+sLDDL1EeSaWSCD0Bp2BwI04GYUxc3OgspBrnVJeajfWknBNMrc6jMRcKaTaT45yueP4lltAt6ngqqaoIyi9MboGSoXAmL0i4gVTc5Ghf828rldQobAJwF33nVA3Gi0dUSOGijiTwDCDIa//vWvm9/85jflvKv00HbTfH/7299emr7bii21ckcws9y7Sm8+VxkhaV3ZCud71jumYDWdzkc7cyHE2+yFwVWaoCjjPgYm66V3t/++3YH0evljgjJYhBkEPEhqctlhJcFgQ54L8bjQKgdZL/7BL4YNNdd/t4RbCfjcTLgivHS5XDEf57PXY9OjWEB5Ley4j5x65JY71/pwM951ITbbOfenV+P+z5uZazGoDZlRQuHSLRIep0xbbDNv052JIOLMZ25eOB+bCp0vW8bLXxqtINitBw0U4/HF4Nu4KhQBbOQP3BtmQHfGDrPhQ/zQQ18rZicGElvZcGfxhYWgaTPaBXlBzvVBSPL99bg2AvqgNMXcCgFPxZKZb2VM5unrugrIN8UVRRLyvdP9wWr5VMf71ICTo2mC0gefWS3fO/n9bakBV9Fy6ikJeB+F0O64t1LhUgPO/rkPDThNgUhTkJuiGADAz2fa75deeqlsUoHIjTrkVCOh9a1vfauYnmiwmxW68kDApsaD4O1a4wGLHHB1pSldDW9ERn51LsgDG27abuWFgNu5DhknbF07TOxWe279nuJ1oMlSD7XDrbTj9XAs5DI6Jwsjp0Lbbrt5ZDsK6pZb5+I7Hkz8vv/uIKGRtusffRpkNcnrLZcvf689hAlKuS4e6fz6Z1/EBjpfbMgDiZ0zad9vfP5lc+G1t8L2++3mRng9Kfbn8colEl1oc1LmsHQJryeHH/5aczB8ftN434y6SYPPBnwzwQLOovWGTcwWTLH9Drl0MHbSpFnfHwR/o2Y0K72XbCAjtB2zpAamtY2shNTOfKfNaX/iVtpfKiTIPzMbXfcF+ivkOwcNFuVvRYHUFdrZX8BCve96RoAMlX+Y4BNw6YPPdIXfdp5bCXgPpghZQISF0e9WR8BJwGmEPUtF7qNj0AEhcCJS6fNvf/vb5he/+EUh37REXWhO5Zf3EKvGbbrD+4nGutmQ5JtgMVCQ/i41Hpk+ZdSlqUK+Z/gob/LIdtUMhUES8s0/u04HqTAYUXf6qD/D6RvXz9lxmEpOAt5JxxHt2kJJCxTLbpeh6Z2NwdTCog/vxG8uSPDN8+FCELENDTjSScucxDqvy+MwMU86P3sj3E5+HgQ84lwMrtcLxfQliP/VIPsX33inuRRmJExahp/vOYV++xf5mT5+ojn+9FNl86DzL4XXk3ffDxMYXk8GtuGuZzNewuIB5u3A9pvpCRt5i05vfhk77saAwIwB23fEfJr/9JhF2GpARJidiNpRbSdbRbKb+9omYM43G/RVbQXcZu/f7PXZ7+sLmM0gn8P1erPPHOX12V/oG/voH+WfDM1dMBOTUeZpXJ51WxLwdgPsY2qRJlelU9FyxLdZLa4KlaNGI2jPInyM5rsmk4jrq6++Wvyu5rTdz3/+80LCkXJkrosgj6dOnWqeeeaZcrSABZabDTBCOpFPafW5j6B8tjPg2mwaaXKQB50L8v3yyy83v/zlLwsBPxMLZc1aVMK9WVSXr09NVnsjra3Ux+UnrnEWxLMQ8KPHCtksGuubty6Etphy9ur1IM2xI2ZoyyeCfDahER4mwkm0l982ILX5PSJ/IxZPIvO00Z47MRnXRBpWCrTXl2PR5sW33w0S/klz4xy//4OnuSMJ9SAdCzEwONDsP3GseD2ZCq0Xonw9tOfXP/s83jXIU96z0vtW+m5AiiOJkc7JAwdD631neX6xm2e2s42gf6D9Fp3XNrMNMEd4q7amDSJuBsBbdUaQM+AUR330/zlgMJOLeO4m8q142v2jAWfX/SOlBUUaLkQL3okSY4T1rstHbU9SdZmyDp+t0Wl8fTXANnFGnlU63202pAZOg1aBEQHEsmsCjtD96le/Khrwhx56qJC8P/3pT8VrBkLeVSBkv/e975VIe0AAb0V4tctbh9pXSM0HEu6864B8WzRG4/0v//IvzR//+MelTUSYo1Qisb0SUIbqpKgj3Wp93GgqaHjtUjkdM15c+y00i9u65wPCY9/cQthzxw6XzFAmmaiEO8IhS5WvEPJFvfQiZQ7CHIR7Joj8THhUmQ378aJJjndPTK1MwJmNnHs5bL8j3rgQGuzCvQeGJ4Nt4Nu+T2LDnfBEcuyJx8L05K7mWpi6cDc4E4R/LjbwGXg3+ep7eEsRss6Wpw/YfUkfryn8iB+8/76y8PLk974T73i84JXwbPVoIEsT2PVU/FbTd7veh3zr81KJtVXNqT5A369f66M/0F9THu3WxZfZP/aFR/aL5Ggf/eJubi+3JQHX6FS2viocwZEjPkJjqyM+5FNMAu6ZRqxdCxFaYxpUeLEdNkKm+dZBdRHgheDwmcr05Nlnny3ajq2Qb+lrl3cfGg/EbHjGY6tlvhF85U9ZMDGh9WZ2YobizTffLPWjaxvHjaRxo9coY/jBS1TXHQnq/I5Nv8GGQYV8d13/M+1JwNOEbKv1MZ+33nFAwG0Vf6KZ+Pirtt2F+Ma/+SDgAw4cs0OBXTDnReK6SGKHbMIHmunW290/Hy4NQ/vNrSEN976jMdgNryXtwMabhvxqLLi8EH6/L535oJkp3lQGzDi12IPnx3++ycMUhHtACyOnw1vL5fA7fu2Ds3FfmEB5b9yKXC9y68WUSnd+s5yCsoFP1IWpgwcKqS/kO0j38We/3hx97HQsyLwnbnPf9kIScCR8nNrO9nK9++9GvnnCevLJJwsJJw+2EvQB+rK+FHBkGPKNhDvfbSH7x77waMvRSsB3W23oIT054lPh+ui8Nbo0RRhFhSN4aAFMwZkm7TqkjRjirVNCgBD/rgLyze2g7eaffvrp5tFHHy0mN1t9X9/l3Z7x0GlsVVOz0fwioTybsMv/13/91+IWko9vZdT17MhG07iR6xBaUXvJAat2Y7Gj+p6aL6SIpv9MDArlu482LP3a7ijb8XqYIOC8e+yLWBZiDvj00m1JpKM5hhnKbDHHCIOP4tebVjsYbrk2r8sby+ehZ/mtmKKEdpsvbwsbuQxsh0K+P/osbL4/bK58EPbR4YJwPuzHB2GRMBcH3YsEOsxhaL+5A9x/Z7gEjITeiHuuhseVeaYuiPdiOgZEnPlK+bYcB9R8cIHv2X7baOfgA/eHtvt02UXzSMiIQw/eXxZhjoJ8y4v6pU2JlYAvFu8OH8gFbe+HP/xhiWZEtxqSgPelgCPPkG9R37bbQt94pBytGvDYtXe3VYYu0zOwG4yJ3NCeIa5sYru2d5IfFY7AIEBGRcARFHGrWoDN4Ixwi7DqknhnmpBWxPsb3/hGw+TFQGM7IUf4BC5h03UY1YzHeumUF1pgfrxpvS2KRcJpwnPqfr1ndPl7EmoDEvVeTC12+wgv0XeuYeOpzBFvQtoxSbg6rx5aIPfiiy8WTRYzKAMNdbTLoCPNduy861A04IWA3zEg4Iv64XxvEuv5yDuN8uS0TXRCQxwmblwRzs8mec07lrXDg1+WP7uCe0Lkm7nLgZNDbS5uYKJy8Z33mwtvnAlTknPF/hxlTv21o+fmU6Xj0NceKN5JDBBmopxunLtQnrN85SAlgxTmnYOnuMbTJ6P+lMWVyHx4OKHpPvjgg82hhx8qbhPZf6trowptAt5H/zCcbu1FW3AUzQjthZD97/CxnTflmDOIKROYbOoT9Ad/8Rd/URbj+7zV0Hd/QFbQgO9WE5S+8SDjyXV8qA85utV60sd9tx0BTxKZ3iD6ELAqWWrORlHhkuAhI873UkhNxw9+8IMibDXU7QZE1WxHX1Ns7fImbLoKyDd/3vyw//M//3MhpAaWu4F8y7OyRCDMALSJNHKdUR3WmVob4eh7BJymCI7wE9uEHdE2iHYPl4rMoWDRNQGXDu0YCe+yXLO+8JVNAy5akJmEO3/PzxZhIrZMPPjGpjGfi10uF4JQC8sUd5mkDr5b/uw63k349kbCnS+FuFid8v25V95ozv35zeZGXLeQauvyhsGz/B/Q51A8RNmefPaZZt+xI2Gu8l5z5f0Py/M9d0DbBwS7vGdgSF5OC4VvJW1CPbg7lBehRd8fGvB9sVFQcYVoMB11oZDv1vWLD9nyQZ9gbY3YtwZcXtT1bAfI516R8eqQgTJMxRw0p7xK4q1taf85ELfx2lNPPVWUMjxh2codLlsNbY1vHwoZcozM6EtubBaXvdo/bhaHnbh+b7G3dRDU6HXU6clDJ56Nf51bt/XzqDtuAhpZ6UsDvq3Mb+JmOBG6tN4ELXs/JGu7oT3Cd951kI8uNaXqsZkImm4ab55O2H7bybKP+pz4IQtpr63DFHWMSZ7zXD1NLXZqshEM3zu2Cbjv3Ie4F2KVL1vhSAvuXgSlDy1h1+U6nMVbTFDCk0jYmET5umpAnwf/B+YnCDibam4L9wX5vnExFt3Gwsrlq53dylIH9y9/h7Sz6Z4NbTqteob52ZnQWl8rtt8Xw/zk8oefxGJNJiTC8v2ZrqnQxE8fCtKMMMdggJ0JH+NXz34SO2UOTE+WabpneJLntI++X9atO2dWw03iQize5B+dhr3sFNpOgtu2GbSvNEHpQ0GTxFNdTk0pEzxtQ1vYKwTcABnpThK+GQLO7lu/QH7AZCvB+5WtNU04gDLusnzJL3JMelPukSG7LexE/5gKyd2IR5/lc1sR8Bz59u1eSiXLClc14KtXb5rSU6dOlUU2hC2t6SgaaI7w+7T561JTinzT+vJy8k//9E+FhLP57pN8K8Uk34iCBbMZaagQCIMQZWgQldpsg0dl6ohYOOZ5ft4I+fZ++dWhil1rv71PHrosV+9oh1yEuT/s3/n4XigEPEjqgPnmITbSCQ34F+fLpjSHH7i3kNKrYaudGvLFy+PRtzLV4e9plbk79LyFFgHn6vDyBx+F+UlsGx+mJ0g6Ely02IvJCa5RgmdOhkvEQw/e1xy4687wroLQx26D4bWkkHbPdVHeMLjtK//btuHzNgoKH+UzoZFmYjMZtuUnv/vt5lDUs6kY9I06IGVJwNWtroP6TvHw+OOPN3/zN39TFp6Tf9Y8bLQtdJ3GUTxfe10p5rMR1hzUky0pDxBYMsRxO/2BsrSGKRVwiGeXckPZUUZIO8WCMvbdbgvJi/oy0Rw1H9pteG4mPbcdAUe++yJiWRDZceu8tyNA8nkIS2oQne+VQEix/X7uuecKgduqpiPxGNZ49DWlrIy7mHLUecmTOszVINeQSDjPNF12JIlndo46FWVFq6NOI9s2S0oC7pgEHIlwfXau+aztHpN86zwQJp+7Cpl2+UhTmlG04/XSa8dHZiUWMpaNZw4eCnIcGuQgv0LmmDs/piPToUGlAed3u22yktctv2/Alpe/H3yOqhV242FLX0jy8q9svy8E+T7/1nvN9dC0s+cW2jbfg6vjmzBX5ov7yCNfaw6EBtwOmba5vxka+WWzltRsD4YIbXMUKVl+8+BsPjTf80HkDQr2h7ybRMTCFnx/LO4cXihaErbNf9oSctY1Qctk0nyb7eNy9Uc/+lHZ9Vf7GcXsX76jHgf+rpmeima/aeC7DAYQ5KS+ejvez7pKo3oOAzMCfZjkZv+RMwJw2Uv8ZSvldFsR8PZUi467r5AjvlFpdJOA76UKrHEiay+88ELz/PPPF6G13fKh8WByhHjTfPQhdKW5PeByPqqQxICpyU9+8pPmZz/7Wdlm3vddEtBMf2q8reY3SBJzoayORidDuCKqonovJoHN52z3KK86DsRbmWrXXXam0p/arJxK7qPj8N54cZhz2GgmzDmCcPIiMjt7q2kJgjoTph0I7nTgv3AwKG10/gN62ya08bxldts6HRBw1xe77nLN4LsY2TU3L11uzr/2TnP+9TNxHu4DiybdRYvXKFAfY1Mcrgv3xaY7x04/EjtVTjef/voPzaW331vaKTPvMF5yPjAjH9iCl8/x3eC4+PzWwKrs+Hnq0eL95EAM/MrmQx1oFLN+9dWumJ38+Mc/LuSby1XkW/upYbQIZP/ft/ez3Wr7TWaaTdU3mvFBxLuUo/oP/WHa9qf54GhLebyedlsR8DRF6KsBZseNlCCXoyLMe42Aa5Qa4yOPPFIW25w6dao00u02JQTNdCNvNwRNH9PJ0ox0pg2481EFApL7PQsPbYT01ltvFQLaNfmmyVFGyKepcdq6b33rW4V8IwxMTtRJAraPkAMrnQYC3nW5It86DYOMnAov5LjrzAYTLTIkyBhzjgOh9Z1BgINsCyiqwPY7VNehuY4FiVFWCGzZkGeRIOd1SZiHP7t8EAa+Sfwu2pCHucnVT75sLr7/cXP548/DD3jYYJeLBzQ573PHdNSRAyePl7RKh019rodpzI0vY7Ou4hJxcM9A/z14x/JTllOV6Vy6Ii7iA9zGO0cff6xs6lNcM8Y7ugraVMau3pFmFmSF/Q60KYNbA9kaRo9A9v/V1GKALblJOUX7rW/RX3YZ9BH6+ZwRGGXf2GW6u3x2dxKsy1Rv8dk5Au6rAeq4kW+dtopHsI7CBmyvEXD4WOVOo/rwww+XwYo8bjekwO1rwJXpRVaZZojORxUIyt/97nfF5SAi3qdGHzFAEv7jf/yP5eiz/CGlyqoXQroIpHasTMU+ZrJ0FAYfZrBoJuW1z/xywXcwvIAciJ0kr3y8im138Fc8vJDxwKloqRcXbS4P0NDdAa0tJ4sEfXA++B4NTqUzm20LLi++ezZ8fof7wCth/hIkf6C2diUqTXs9OGMqc8dTsePl3SebKx99GlvNh9vP4i1Fwga0OrXy+c6ll2Va0vg7P3t2kO+J0KYzOzn+9BMDAh7vGvdgYEv2aUfMtrSpUcqLccdn1Olv9//Ouw7tfmA3ks02Hn3J0ewXdyMeXdeHlZ5/WxHwJGR9EXDEBEGh/UbER0EqFSLBTSNHeCf5We5kVyrm3fkdEkMLhNggd0xPdEKjmn7tW8DISw66jPJHNeNhKpx2wkJLNt/sv9mBd635JSTVM27ADI6+//3vl2lygyVlpB7uRDDw+OSTT4r5jfOuAxx0HGlC1if5ljeb4hy8J8h/kPDJGNAliUV8B2FArOfnFoopCttxNuCTUUbDCypdn/cv3rz0mflJkm9X0X5fevej5sKZD8OWO7aODxOXwZsG/wurjm8mw/TEjpdcBB6OxZfTsVPl+dffbi6//1E8g6cpb2rfM3jzgL63f5GyAaV3dX6Sj0Mx+Djy6MPN4YfDtvyeu8O8ZfsD9EEqvvqfLNXmxC4DWaEdtRU0Xb7vdn+2/l/f31f/T250MRM6qnJs86G+BiSJRx1oDkpxZ3rQUdWgTT4nCVlfGtHsuHXeo6xwKbiTBCUhGDcSjrDChc2jBUjf/va3i6Zxk8W66uUpYPoqb+VilsNsh2jQ5bvtBuSbuQXPJ6+88koxQfG564B82430O9/5TtF8myJnbqLejSJfW01/EnBuCPsg4G1N1ijb8UbzPyDgdwUJDwIeCyyLnXbcPEzALY68cf5i2aq9+AM/cbyZP3dxoLVuvWxVAu6Z8dBCmOOIgJ9/+4PmQkTnQr5zgvG2zw4xEJs+Ev7Hw/Z73/Hw0R1a8uvxXh5T5sNH+SC97oyLB7e5M6Iw+CK/9m7nbdtwW9mf+MYzzclvPlvMW5DviSD9XQVylC2sAW6XMpXcpkBJJUpX+anPHSCgP0gnDM67Dik3kM6dkBvr5a/Nh/rAI/kQPJzXcJvshEmIijprDZBNcB8VLhsgAj7KCkdw0z56JjLkPfLT5QKKLhoLgmrqlY9XkfnJKAVVCpi+NB46Ulpv5gryNioNcfr8ZvP9/vvvFw1Ol8TAwEhezEZYFGv7ZwOkU6dOlRmLHPB1USc28kx4wIEfdOddh53uOLggPHjXydCA3xkb7YQP5BjUMTVZrgMDMjobBPz6lxcLCWYOcuAkG+7QQIfddjusSsDDZIX2HAOetblPaL0vhQkK2+/Z8oxl0pv02XP54z7yUGyOcu9dxY3hjdiwx70zxQ/5QI89eP8iCS/k27PyKYNz2m8hryrE/uD+cDd4b3Pi6SebY08+1uyPQYWFnl2GnHFCwLvWgvehae8Sq3F6tj4yNeB9aHxTboy6/x8V5vCgnOqrf2zjMcp+flR47MRzbgsNuI6KFlFnne52up6+V5jtCud8VAEBSu0xExfaVosNx42Ap9eT7373u0WzqlGOUrO6VwSMhTI03zbbUX/V52XyNapatfwc5FudQrh5Z/irv/qrQsbVuZ0m31LJs82ZM2ead955p5wvp7ybs3Y73omOYyp8Xx8IDygHgoRz8YeQ2/2y2GMvZXmifHctFj2GcBhsJR+E+upnsTMqYptcN65fjYBbuGmDG74Eb1660lz9/FzcHy7bzl9edCE4IMhe6aw8Mv4xPbnz2SfjeKS5GOYql98/O9gps1yXJiWOcV/8K8fFJA2eyI58+dlxWVw0WNR56L57mqOnHmmOP/FYkPwHC9kvv3f4T9vSP+gzumxn5DWlkH5p3GR3h/B39ui+FTI7LTfWA7KNRx8DErKT9rtqwJdL5rYg4ITpsAP+LgVrwttlA0SEECUEnNbVKuY+GlHmbTtHRI52mPstZg3sv9nXjkpjnGlLAdOXCQoBQ9sxKo2HOioaXL366qtLpidd112mJzYFUTZsvx999NEyMNpp8o2kGFSZweKKsU8TlJ3sOIo/8EMDG2u+tZl6zIeGeWHuVs120YDH99NhBnU0/HAj6hP7YgOfJXJ7K8n9/+2deXdbt7X2oVmi5tlzJDuDkzTpTdK06ZzVtfoJ3k/b/pHV3rbpatN0WEmaex3H9RhbkmWNlESJku7zA7XtY72WrOEAPKSABD4kRZ4DPAD2frCxsQERzqZWnWCJCwmbPtl0ufJgzpPvmvW7Rrr5vvlpt2kMt8nfu0unXVIuiSS5nTxxqzoEaHvjWaSWrK+3J9+6R/ZaK8Oz0vh+xiqMrN3916bd4PXXdLCPIu2I6MdIPB8ZRQ6Z6M+QbzL9mvdFmeSGrHfse7PKAAdARyJLcd8LaYCj/2BIYhU0z+hneeNGn8P6jX7kdegUkg+FLnuo+4eVMKFKfcz7GhGjs/E6NIGx4uVNyOy+dqVDW1xiXjdKgmhjYbXNfRy+w/u8kwmYmEtsRtTysJTST1HKKI1vvvnG3bx50yuPvHHafz/qgNsJh4LghoIyqTf5pozWnhBvNmGyGoCVMnTKjuM82vVE5RW5bdPx7qVz4640OeE3WEKsaxsna1eOkq8sK5yYTo7EJ7tzaECbFUXA2VzJd/XgWrb3z19bRaZLciPp0G9XH85r8+VDt+k3UULca9+tXamBSIbc33rPj/uoJztS4BsKN1hZWlXM7w1FRVRs+r3fPHt25nmUyWeM3ZnPuTXkV/KMzZaj733PjXz/Le96wp9iJCNPeUWtOqjMjG0s4KzoQMLRTaFdXg4qSzN/DtkGY4g3V3AG+1CJ/mObazGQYdDgs6Kl/bwodPmQnaYfG4mvhMTlTFjATXHHImLWYHQyOlxeFlG7r125P5ZjMj6xjZIQSFhViabBFYzytDaZxQNhaxaP2EQtDwGD4kBpEP2EsINYKkJabmgDJkf0Vw7YefPNN70FJ8+2OU0fhaRg+b579663gofegMmkg2wE3KKgnKYOp/ltO4RXUUZKF+bc6sy8CO7q3u32LNuKgrK9syV3EVlSFbbP26oVnQSXErFcT76fPR/SW0u+niIIHPjTNTLoyS8EfPnuI/lxy2AhIg11N8s3V/5v7+1x/a9ccKWxIW8pX58l7KAO89Dza1/ZK5d/Uu0ee0/09/Nf8h9Qktp3KQsbSEvnxuR2Mq2Qg9Oqr46cl/KOlSBLkG8yK6cQlRCJCTbjmX5sh4Xx7CKStRfVn7LbxIE6oGeRs3wOwT1sMkE7I1eymXFGRBhw53VeOFAm9ECs8yCQobYyTV1YqS5Sol1oH9oOIwbYhNSPfkyrX7MigMEwr+hgRcL0pGU5cwQ8lDB9UQOY4obQ8DrvZAQ8FMHPu7x2P/P9ZoMfpAYhzCDNK6EAIK4IFrN4HKYM8nou7UFb5NUeCEiIN9FPIALUK+TqDYqDyRETIg7cYYMslpyiJDBgIyqZdg2d6JNgUpSl5PaSCPjFc6734WPX9j//8Zbj5zHQGBKX9RZlgoIzpFpEwDW+nt+0WftVjVjzlTYf3tBbzfv7/PfLj0TA783ubaSs3dPfvMas9SO5wMldZejVKzqAp9M9+ttXbunbe25zVUfG8x1j91bAp8O79ocsmecTH/7bl1cTHinp0ffecePvf0/W/nFPvkNvvLRicqXNIYKMBV6HTpAfyCGZvhZCV4Sog8knCwmKgQuZyzjF3eMgeWXkG2KKzCRTZ1wSOeQL2cPKG+Q1jxTbAGd6HzlK3YqWIN+0DzqSTDvGXhGIMa6KhvuLyhNeurzoqZE/yy61MBhDp+yML6QPmBG+elvmjoonFg2ELsIVCyunKDIbzpN8UxbamJm9WTxCCpds3U3w5jXhwqoE+cbqC+EMPYmgP9GXaB+ukJAiJOqNMieCEaeA4o6D4gid6K+QMKxZYMFkJO++epw6tCkiCJbh3vMTrlNEmXB8O1KmdvhO7V7ajCn3D6KfcHgN/twQ66oikuxUn192f0rA5fvdKb/ydt1zW+4gVR24s6aNlxuyZtc2ej5lz/4RflOoNlx2y+8byzTxwdcfL/q8q/KITivXNlbWXtVK9uzfLAnf+7a+iAW+e1QnBuswnxGFHRyU9Rs3mhas+BGTEXDaPAZRYJzPzs76jOwI4Y6XB3xM/smQN1bjkEuMRVZfKX+WgEPqmFi8yGBg+hFsjXxzJRwt92FPEGMtBAGPYYAzvZyXHsij7bL3oF3sBEzaCdkaMtHO9Gl0PW0KPinVEDgTBBxChsCItdkAxY0AQXnT8bjmtZyW7bh0ZIhSXhbX7L1DvIZ8swR18eJFh983MabBJu+Ube8YAtfKT3tg9cjL8oGiI9RerHB7TCBQguQiWb5REFjVWA0gGsyNGzf8e8M91JX2pL8yxsAG4lBXAq7y9OiUSUh4l4hpu0ISEupvR8fQZxMRUthE2d7b7Tr6Sp4ol6uKhrK1/9CiGrFmIyUhBNnkuLa0JuKtTYEbciHAdaVmRs/e3hP6gauXZJ0e06ZLRUlZWPJRU3Y4JXPP9O3dVDwJ56d6t+cCY/g9M5Dr1R6unSL0Yx+848a+L9enN665Ht0/puuJVRI5xaSLHIuAM9EmT01NWTEKd4VMMxYZh59++qk/lZfxyHvkLHIXcsd3MHocZjCwscTqJ7qRK7qS1S0m2ljBOXMgjxTbAJc1xBSRbMbWj0XHI48+dtJ7nAkCnh2AEQ5FpQAAMQ5JREFUMQiZCXCs3yF9wOw5CC5eFz1Btqenp93169d9zG/IjSnkPMuebW+ETehkSoS2ps1R3Hm0h1nAUcxYKkInSDfWbzJCsygJ6z8hB4kEc/v2be8TH2NVI6s4eB2irx4HY06bbG3rcd3DA66kzY89D2bdNjG68bnOpGplSyEEF133tvqhrNrdWzoYZ6msDZX7fZn3CHiXjAUi9cTYXnm86lZnRaorIlCt7aoz997xNNwTZR2A09GvVYHL5xV2sOTKKsPq/Zma64kIGgny/cz+zSfP3j0j3rXP+TYnZ3bL95xj7EfffdMNK6Qhm02x3NcjMXYZx+QYBIr+fefOHd+3OQ0YolvvvpbFnfJAprGaYvXmNN4//vGP7h//+Ie7deuWX2nMfv+kr3FfQeYxCclT3qEDsM7H2gNmhpiiGsZi60fDA8NUkfTKSftpnr87EwS8HgOQwYflLKQAx3IA6SOHsLDn2dG4F4SbmN/kUOSb58Rub7BncgHx5gqRzaM9UEb4V5JjTBwRjkUk4FjE/vrXv7q//OUvfoka8v2ipW3aPs9kiqNQS8nizBDTgalLItkiLHITqaw8b9neEgEvzy74A3v6L03KhaPdLd+fFQ2uEe5nGO0RcLl+9F2YcO0i4DN35Yt8d86tb2hDZ1una61uOe3Q0G9FlWWlbO1STHJZynsvjLvWlhY3O3fDLeneVTZr+i9xT//i2WP47d6n/k/2F33I552KcT723ltuXJbvkbde9S42RHypV6Ldkd2h5bfVj9UdIhyxMgjJtb5dFBIO+cayzUrcb3/7Wz8OsXxjGMhzLwarDchPcp4rD1l9EEuOIjOKSjizePA6dMoaMkLyodD1CHH/pibgNnOHyKDE8QuO0eHoZAxAcsgOF0pg5d3RKCeklE19xJXG/QSyGirRxrgbYfGIIXCxmOHfZiseeSkP6mGbs2L0W+tPTOjyqsNp2pg6Q05uy+r9z3/+0x9EhJXssKXt0zxv/29NceTlUrT//id936HoIwOKPsIhOYu3HjgnizXEFjszaXtT4e0Wy/6AnA6diIkbB2H9IOC1b3BVFAqNy46eZ24t2x3dsoDfcwsPF93OhtxJWmQBF/2u/UZ8Xpbq3gmd8jo+7J9XWZW7yoJOvVzWhlistvrv+WRPy1rE96zh+mobPt9D/W7otSk39u51N/K2LN/yb8fCXs9Eu9PmsdodGYXvM1ZwVnoIz4ruYENmPRMTXcYgehOy/fe//9396U9/8mOR8uZJvqkncufKlSt+dZTXeSXwjW0Bj6H/T4oPbRpTP8KBGEuh+dBJ8ajn75qagNvMHV9aFDfWhdAbDmhMU9x0OF6HShA/iCy5CITpoHpCvvErnp6efnrkfEjlYgI3ls9/tr3znHChAOm7LMfGcLmw9iuK5Q3yzSavf/3rX973m81e4BErxZpIH7c+HYqGMnDlvD+pEoKt5Ra/WdJboHWzbfli78o3HNcU/MTZpNkiWbELmRYnxqFkR9FRunpKiqqiTX+6F8fcr60pNJms6atPyp52t+/I4q1NmS3KcGtOuhx7c9r1jA66le/mXFnRWPxGTc+z98j3HluXcfwpcedV1i2Fv2FNZxPn+PffcOPvvqFNl6+rLJMqb/2j7jCebSUI2RU62TjHveOzzz7zxPsHP/hB3Qk4RA0DwNdff+0++eQT9/nnn/v9F5DvvA0byBwMGLjgkDFo5JWoR70IeEj9f1J86qUfIeFFxOOkOObxu6Ym4Ag2ZukQb650PFveywO8g+5hiju0BQU3B4gs1gIUBSScOseo40F1f9HnRBN47bXXfNQTrDshrd883wRMLAt43jN8Jo60Iys3kG+uvA+d7JmxnndQfZgkU28I99/+9jefif3NJDpmol1juiIctW5EIekelbuTNimyIbPbE2FFyZHrCax3V8brnZ1tRUNRnxGxaW0XkRYBxxWFqCY7u62uKut2Z3ev65qQK0n/gFueX3OLj8tudV5xr8ubrk2/gRTtyg+8tUMEuk3hARV2sO+ifLMVWYVDepbuzbit9Y09el0j3NDwPQ4OZ/fvoN98ysmZ7XIt6dTG0C5Zvge1kXPi/bfc8PVp3XdSBL8YUXcgCchujAbIKmQrLhihxiDjnYzBAL9qnmf+5+zviUla0B3IT6IMceAVPt5YvvH5Zg8GY5C/55moHzhPTU15HUEowjwiMJkcZdKOFR8eQDuGSowX08m0H5OIPPYC5V3e7IQk77Z8UVmz+jFmX35RWYr2WVMTcDoaridkXscipkbAQ1vAGfAMcAQ2JBwyDnGJYeU/TkfG3xuLjvl+H+e3x/0ubUxb2xIbr0MnhIotOeYhYFD0TBixAKM8EJIok9AJ5WThG0MqqpfVgz7MkjebvbC8QQCYTMVORsDpv7wuSmrRRsg2jfsubcYcvHrZrS+suu1b9+V6Iv9h/ttjwEQlqa5XvKtJq0g7Yf629H63qlCDLZ1uu0vuKcMjbn2r1T349IZ78t2CW55dFtGUBV03aWvTjRSisK1Trir4fos0d8riTujDdR15v6ZIKzsVIrDUXFuMfPurFcJs35JVrXp+6fyYG1KZR9++5oauXfa+52zApGxFSchU2tys4JApxkUoAm71htx+9dVXfuLD8yFzuOvlIVPsGYddaXPkDHWFbOP29ec//9m/hoxTvhBygUkG9eRcCK64KuaxQmpylMkE8jS0YYH2QhczeWBCgS87nxUtoU9irgiYfgxtkCwazkcpz5kh4DFmega4dbjQPk8QcDLPQ4gx8BGQRSHgKDImBoSU4lRFLBuUM1RCeVB/W/VA8MbAIjvhyoOoUQ8mDigMrqEVv7WHEV/IL+Sf5+Z9SJI960VX6spz2ez1xRdf+M1eX375pT/5Mtbk2crFuKItIV9FI+BYtbFI4xKCFbm8oFU+uY3syoVE3FwWcEUwUShCTqQk+kmHrM4dckXpGlScb8UIJyRgmybrux1dGiuylK8su4f/+9CtzIpQy2oOd97WqZo73KxTvx2ShXJChGJixG1tbLqKyPeGjpznlEwS7iXP2795X3MzaVMs8o5Sl8i7DraZHHGD8l0ffu0Vbba85vovyt9b/uy1Uzv9TwrxD6SJTNuzMZJweIxFcsiEjsK9gzCbrLzQ55FfhGulLJBSykXfzCvxDJ6LzIRgY6xitYlxh+sXbie4xiAL8h6DyBZ0BCsNkO/333/f64q8dAS6AKs3E4oYhilWoCm7xbumbkVK6BXasR4rAsjQoq4I1LONzgwBj2EJtYbMm5DZfQ+6MtDp3GQITGhFcVA59n8O+eaoedxPuIYOb5cVuAgZ3iN0QifaG4WZ14QLRYegDKH0DsMCJcySM25CKGIUM5O7WFYc+i5xgLF4/+53v/MWcCLAgEfeyv8wHLITW4hPURUH5HVw+oIrL1fcw9sLbld7Idu7RNC2FJNZvrtVWaeJhsJGx06R79Jm1VVWN1ybvMA7hvsV5aTNfffNI1dZ33IbK1o5k+VbQMOoPZ/eheyJvHdPjrrx712Ry0q7W9HpmEs6or6ieOGcuOm/+9TpBFT3fqwrfuc8d+DKpH5/zQ2/etkRlYVY5p3aaInVO+YJl4e1+Yv+hkED8gshnZub80TuRd/L8zP6OdZJLM88E0LOyiEEFUMG4zGv/T4mZyDejDt8vSHdRGQhtjfPxwc8lBxCbzG+pqam3I9//OPcV0jR+WbpjWGAi2V4O2l/ox2R8RimkLVMSvgsVEJvMGlkHDExgQ/E0iWh6pT3fZuagDPobADGIOAobut0MWd8RsARZgjNIiSwgLhg+ebUS6xIDMCQCcJtLhShhUu2HtkJF0I4j2QkkGusxHjBdYdoDCxBs2SI0mc51cqTZ1mYHGHhQymg6HkubidY3cgQH9o0JvmmfljmaEeWkFEeZnnMs+553Atf7JIikvRdLOvQmnG3ulSRQtWkU9br7Q4d0iOqvbZacW0ad8QOb5E7SXlBE9MlHd4j3+6KDttZmtfemLVNtW/Nb6Vmzd7j1W2KgtLd49oVdpDIJy1bWqEQoV++PydXFrl26aAeLPH4i2PpxlUle+2Shb53ctgNaZIwJpcTQh1ieW9VNBX9yHP957h7HqDkeA/a3wi4uYbE6IsYD8gYUhgfkCUsudPT0341hj6JqwN9FNlPhpSje0xeUE7LjDNecy/GOJl78wzujXsJm52NgLP3gjEZSmdSRsYYOpIzIbB8oyeQNXlNLugGsfV/Vg/wumgJWcpkK9aKAP0S3WGrN7xP6XkEmpqA2wzYfMCfr3r+7xCApriZ8eUdz/SgEtOxi2SpM7KGVTgb9/ug8uf1uRHIWNFPrNy0ufmA5yF4UU4oItrVFKo9K+QVRc2Ywfr1hz/8wT/q448/9hMnypN3WSAEWGNu377trd5Y33A9gYgzca4H+abSpjiYQNK2WWITEv/j3ru1TRMFnXbZO9LnBi+OuBWFJVy4owgVy6Le7ZrsiuhWduUGpnjePYpy0jW07Un62s6CcK+6NW2g3FLIQozWWLO97Vr/2FUVdy2qvwDxEVV2y9oQLJeWjZU1tyP3FiKZsCG0s6/b9cjFpFtW9S4dac+1Z1guJ3JZ6demzRIWbx3aU93ccQsPnvgJQt+4DhPSd7r6RfBVjyIm5Dekl4kg8tz6fwwSDh6MDSbCEGQ2Z+IbzUoibjG4bTBBNrmfnShSTsYW1k2uZMYSZJtxhVWdlSVcS+wYeSbAELMY5Az5hpyEcP/61792P/vZz3yd8pYxpv+pc6jJRLbfZgk4cqNoKTsh4XXoVHQ8Qtf/KPdvegIO+Y41ABEgzPhQ3Fh78yBjR2lECAPPJPO63ol6UxaUBZtqpqam/GQkdLmyAjeGgEGR2IoHipC2zwN/FCgYko38xVD6PAOlzZiBCFvdsJpQP1tGxPpGPfn7URLEHgJApl1YnYAMoPRZsWHJG4s3FjjiIEMC6pmy44k2MOJVzzK96Nl+M2arlnkHe93o1IRbfbzintx/4tYrcjHRJku3JSq9suW6ZOnGkk1rVRXre2OnTW0gK+iaIkLAtmv/6Fqzgu9RcB/tpE8W7G65kawtb7iKIqSsKz54tVWYKH54uzZmdvb1iGzL2DAhmTeiiCGytHdDxuX2Ahlvk/V8c1eW+FlFV1ld9xtGIe0lTRqyT/ZvCvYP/RyiS2xqyCJklbEQy8WPsUJmPDIpZQxyhYizosik3wg4Y5PyooNIRsCNhDP2IPRZAs5eD/ZbMA75O+M0dGIsMVm4fPmyd6thcz7Wb2Qn8jTPFFsf5G2IyRML7mV4xDJQgQeTxLT58uCWbHoCjsCJZQHPDsCYM2AIAwKMbAL44CYP/xeUweuvv+4P3cFaE2tigLKivWNNuCCgTLSob9YCdVqEuS/9h0zbophsGfm09z7K71maxuoH0cBadu3aNe/HjzUQMoLyZ/n4KAQcUm/KH2IN4Ubp43MK2YZQYOGDBFi40KOUMeR3wBxiQ4aAFz1hRZ5846LCB25oM+V3bmlm2W1uaMIjn2/ierfJknuO6GsiP4tPKsra3Kvj6Xf1/mnae4knCpFUIOH+vq9fcL2DJTd7U/e9ryPqnSx7w2M62EchBUW+u8e0OVO5T7lbVm7cUHbljrIh8l9+pJB1N2fdmvzFy/PLrqO7w41fFXGcHvCThm6Vu7X9aJO4p+WM+AJZythmTwRudOgRJomxCLhV1SbGjA/GDCtUkG2bpNNfKSvj0SaL/MayyQ7GISQMOUkdmAiT+Zzvhk6UDVnGpOZjraz9/Oc/97IlL8PF/vLH1ge0B5MiVn6LKDfAw6KD8Tp0Qn9BvsEkJh8KXa8879+0BByBQidDsZMRPKGTDcDYMz5TFCgLhHG9kglYyNk777zjc+iNl9m60sYmYGK0N1gzuYCo4Sec1+QHHLkXSpZlcEg+ihKrVoyEQjZLH2MHSxkZUo7lCkJCH2fSgdJHqWYzY8+s3rQDhJ77cS/aBwKO1RvyzX2xzMUgAEfFjna1SVVebXrUZx/le7uyVBLhpCqCvSWivb1Vdd4dpb/k3TqwSq+zqVKbKzFul1cq3hccsisvELct320O4/n/KRcsXMf1qE3bOuQmIPeWLt2TzZiLc2U3/2hFP9bfW7Qy4/Dh1uSwKtJX0cE+q1W3UV33BBAuR7zxTUVJIUQikVO479B5WdNF0ntHZR2X2wpkvciJPo1Mp6+/++67vv/iugERN1Ibo/yMDdNnMYhTiDoh05BlFvHko48+8gfuhNQPyJ6YBhn6Sp6b8fNuB8MjlgW8Xnwob9xC3q/YEvCENUdYsfTGLB+lj+UNUhE61WvGB0mADJHrSRhQWJAXhCoba9577z1PTkPjbvdHOZnAjaGoQglcm8hAwM23HEt0LAJueDJmIMdcIR1sRGMygMWKSQf9jfdmqQcP2p/xx9jDzYTfYbljAsFntAuv+RsbvfiM7xcpMalgQkXdjmLlj112yPf6MlblVbek0IFVHcCDO8iGIpzge91/bkhttu22iNEtaLmuzK94Qt0t4ovP+LbcVaoKSWjJ6DhW8dYO3FpKilLS6e/J85Yfr7qVJzqFVG0FTffuL3q/KGs7RLpdhJ1JwJ4hXScB0aa17w6KeF95b9qdv37Ru8pgLcca3igJgwJRSBgLbBLGFYV+jI5J6eUIIM/IkO9f/vKX7qc//akn30zkGWehkhFOdEIsfWDyuogW33rgkSzgh/fupiTgCMaskud1DCVfrxkfpKcILigQRoQsLgvE/MZvMqYgygoYXodO1t4hlthQWCgn3D3AFBKLJTlmwsqH4iJjwbZEfzPLPGWkjY18GwHnNxAWCDhEGxLfKITFCDh1KyIBt3bYEcnFCo6bye7yuo8HjtsJtNcy392qKNrJ3Irr0bWNA3VkhW5dkkx0Lx4jWL5HXxlz/fLrXlXUlLKs2KuLOhAKi7qSJ9l7RNwzfD6T74oRrfbONtcp8l4a0CRGZH/0lXF3/s1LblLuLKXhXpHv4rv1+Iru/UM/wJWOcKrsacGNig2M9O+UDkeAPoGswCjDEfM/+clP/MZ8dAOrTCEScgtZg7zE+IbsDGm8oI4Yn+gnTNZiuVweFztkshmoYuhH9AK6MbZHwHFxqef3m5KA07mwfKP86XSQ71gEvB4zPkgPg77eAx+rKEIWyzekkQEYi8DQvrQ1bY6QiSlgEDIQ0LwTAh2XDzIKn7oVIaHcINXgjXLLup+gjEhZFxS+z/tGSUbAmVDG6r/HwaYNC7VINFFIiKO99FCuPXcfuwVtwHx857FbfLTofcDNx7siN5XFh3xW9X7dEGB+W7NP82Ss1bV2o/l6hnrd5e9PeRJ951933ex/Zt26rOvPrVP4dq79Drrvo6jo4J6a9VybQq+MufHpCTf56jk3puvIpTFPvglT2GiJ/o0sY/MjrhP0e4w6iYAf3pI2IRsfH/f+3ka+2ZwPKQ+VkDdmgGOljdd8FipZ/7DVQSYW9VyJPqie6MR6EPAQBqqD6thonzeeNDwCwkbAIeFGwI/ws1N/pV4zPgY7FnAIOEQQwRdjwmGAIYCYBCBo8ZUkM+hiCSEje1g8IIQI3ZAWD6t31gIegoAj0Nn0SGbpuygJvA3zopQpz3LQnyHfRbWAQ57bu1RGT4I11lmpKGtjnfy+N7QRU3NREWy5/cgyXpV/eHVzW+4jOqVHrjVEKOkoSUbIH/wZoa6RbyzXuKj0+xCBOnK+uisLuE7ZlPUcP/Nn36/RdQg8v+ReHV3as6ATL0tyXekf7/f+3li+sXqPXB5zbLhs13caMSFPmYjh34tsQ86wcRj3Kdsr0Yj1CllmMINkoxPM8k3Ek6mpqeBuiay22Z4T2or3IRN6Dnc89C91DqELTlN+ZDUTkOyKQEhMkJ9mxCjyisBpMM3rt40pEV9S+9gzPSuOEfDYMz7IL7NuSDhlYAAw6GKRcHs+y4ooKAsrZbiEviJMsEYhdE3gUv/QKUvAwT3vhDBHYZFDWozyLnej38+UR1EJuOHbJuLb3S8rfceoK8lqPXFtUr7eq27m5iN38y833cy3M25NriO4peyIoHf1Vz0J5uh3T8C1GRNW7S3YuimuJ2MKZzh4blg+5huurN+uy7WlKh9wfLqNcNeIeM1+zmGY7bKoc1T9yIURNybXldKQYpBrFuAt7bLQMyFohgTJwr0OecNqFCST2PUQ8ZSeIWATFlZBifHNKZcffvihj6keQ45hdMNNiMzr0Ak9wOSsqNFPIN+sWJpxiv4ackUA+Uk7w0cYM0WXo6H7x2H3b1oCjoAkx3BFMIFDR6vHjC9rsaMMkEEET8hBlu1UDLbp6emnMb/x96NMsRIKEV8/VjxCC5dsnbITrhBWD/Opx/+USR3CjPrFsO5n63nWXjcKAWcjZDsbIJV75G+N5XrowqYijfS4bW2w7JAf9tztx7JgL/vTLiHSNeu4LNcan94NxRNrkXAR6S5FT8FtpH+0z1vMn+jQnHWdpLnDEfVK2LtrNNw8v2uf+j/qbwqPUrOG67n4gPtoJyUmCIqUor81ejKihayDUDIOmfgjf1h1i6FriowhMh9jDMSLvSuEboSA45KIEQEXxRgJ3cem9VgEPLQeOC1m9E+MU+hI3HFC6w/6AG0NF2IVN9ZK+Glxqsfvm5aAm69TjBmwKWwIEpZoCCmfxUpMAEgoCMpAhnzHIuAMNqKesMSIDzyC2MoUA4PsikeM9rY6gTfEmByCgCPIWNbEkoQfODGACYOGsk8pHAIoDBQHOeY4Pm2NiELSKfeSMbl8dMkdZOTSqLv1+X/c/a8fuDn5hlcVQrCiw3fwG9cglb92uz/Rcnd3x0cwgcRPXB33hP7B/z50M7fm5NKiPTSQa58wZfParrzUVk58zGeWdFXIScX8PvfaOXf1w2tyPdGkUWS+q1ercjyzSRLEAlJJP4HYQGiIa1+UPRr1gtlWQjkD4uOPP/b6gNf4zsewfFu90QGQb0h4DH0QWg9YvU56BQPjQzEmiRiOcD0ih1gZPikORfxd0xLwmBZwI0o24+N97AThNQEIAbdNciHLATlhgGHtIO63uZ7EJN/UDwETM/43EwzqDkFj8oHFJ0Sb8xzwRZBhTUKIUlfcbHAviuViFLIPHXRv60P1qKPhDva8bpQEZrileOuzwhGWhsuygnfJKi0xr3oQdnCNg3lkMWczJMR4a33TW6e79ZoIJYQzJOwgPuPknaqs5k8ByJJvxQNnHMi63dmte4n4E7qQzBHzA4qg0j+meN9ya+E7zZQgGJBKLIvIHfooWDBBhpDHIH1FwhPZB8Fm5XNqaspPTn7xi1+4t956yxsnWJWNmcAf8k2O4R6EnMDwROZ10VLWQBWDgJvOSgT85T0hEfCXY/TSbxSlw9lmEAg4ZC10MsHDJkEsHaF3tx9UHyPgsZYcId8oHIg3ObSlFMFO7Fz82jkFj3qi/OtBTg9qgzw/h0gaAee+sesJmcKqBbFoJALusZJLSUUH4Mzfm3ePbs64GbmgLM6suArH0csNBFLdKbLNRsxeWaU35OONC8vI+SG5ngwo3ndZVuxyzfVkzz3FR1PZY+E1Cl7zBseCXhrscYOTg27sisKNyf97wkc8GfWfQb6byfK9v4/buMTwgjxADhArH+J3lhJ1h3gTKx3ijTGGGN/gEmJl8GXYog+QkbH0QVH0/0G4ZAl4jMmh4cGEjNcpHYxA0xJw/IHJEJXQyXx16XC8rleCMOCyQA5hkd1fL4g+sXGxdLABM5aP3/5yxBa4KBXqyqYblG5orMGZuOpsovn3v//t/U6LeILk/nY56ntvSd1bUaDvMqnBlYuJDhYsfBeJOhHL9cYIOMqjkQj4rgjztizWHLxDZuKClRuf8I21Tb+ZcksRUXoGWt3wxWF/WiWuKdSRTZScTknUEwj8yIVh1yeLOBFWuK/f1OwtvcQ8ruUuYn1rw+XQHgEfFQkflftLrzaENovf92F9mLGP8QHDBySHK1h+88033gBiK1WH3aMR/8a4RAYilyDZuMex+olbDhsuIePIRL5Xj0RbxFoBx1CQ1f9FJJwx8aC9jYAnC/jLe3/TEXCUjnU4CDivQycGIG4YLEvWk4AjFGPtxkbw4Pv8wx/+0P3oRz/ygjg0zgfdHwKOb3Qsnz8EDJOtWAIGxQ4hRbF9LN9KFNvvf/9774qCn39sC/FB7XDSz6kPVjQmcVjPrl+/7id2jCWW+AnB+Jvf/MYfXx+jrpSHZ5PrRSJOgiWbJTd1WA5kuWegW9bocW/t7hWR/vbz27Jur8ja3eY3WV77r1f899hkCeG2o+FXRMAh1u/86i25kPT5DZiEIKx6Qu9ch35vGz85zbKTzKZLWdTxO+e1J9+SD2chIQeRuWzKRB4iEz777DP36aefurt373qMY/TZmFijZ6grEWHY+4N7HIYYxi+rApDvek5cMbphrCCH3HBI21NPJmLof3I99f9BfcD4UKygFKYfkwX8oBZ59nnTEXCqBimBlMWIiMEghDxgCcESwGCsV8p2/JCCgOdgqbx69aonTAhfCGK9EkIWaxN+7yEFrtXPLF+43MRob4Q8Sg/lTkxd+jf15TMswygaPosRetEwOM2VMWMkl36EMmfyikK3MJZY/PEdhYDTl7EqokCIOhFqUk25yEx4aFee30gE3LeJeG+7dw2pyaGKDt8ZUHSUC2+cc4OycuPQzXss40RK6ZXPNv7fo5dGRJ7ZuyKruUj0iN6PykoOyRYknoDzN3zHIeDE/YZo++Pn+cIZTvQTMv2UMcmVsUjfxhUQv3CiT8RYjQ3RDIwBSDVjgpU/2xTORPmDDz7w0a9wOamnDsjWG1mI7g+t/2lr6gweyGbaO/RqaLaeR31NX0RmkkPqCOsn4MBkJJaB6qg4FPF7TUnAARrSQkahhkpGJFgyh4ySIeP1SigBQtZhieB1qER9cTthyRGiVO+ZLu0Qo73Bk2dRf5QPmdexEn0L0o/gR8gx4fvkk0/cjRs3PCEPKVzzrCOCmkkcpPvtt9/2kzgs39QNayJ1Y3nbBDp9DCsbrihGxPMsj93LxjNlA2syZLxREmQY8gw5xm2E0ysXdEpmRdFJXv3wqt+gSZzwitxR5r9b9G4qxBEf0GbJK29flMtJyU2+MuojnxD9ZOHRkpuQXzfRUXZ790IRevcTQhhqskIOKF8bBXcrp7mKQcqQw19++aX7/PPP3ddff+3u3bvXsAQcUsmYnJqq+XkzZtnzg57BBYX6htQ3hu9xrjFWHZiQgAl6H7mF3EBmFS0xRpFjZPRkqGT9BD7AhCwR8Jcj3Tja5eV1efoNBgKNz8wUtwR8R/MckAwym/2y5AYZZSDymmfXKyEE6fjEqYXMYD20XfmnqT8DmIFL3SCcECLcTrB+8Lx6TjrAGosTbQ2hw0qKJRwryGnqnG1DI2Y8BwsQ9cfnkTaPYQG3siDgeD59D8wpD1Y1lCOWcNobaziWH+qeV/3t+Se5mvCnb4IVmfKisMAPYk0GT9qQscVvLFFX+hgbvLB+k7EmYs2hjfNIPI8MpsgNxg7Egv4eUmHlUfbsPSDEba3Cb7tlz2Kt97JS48t9/rVJ1yMf78WZZb8x8+5X3/kDesYuDfu/jeraJ3/uXmVI+vyDRW8hb21TdKUGPcEyi02M1/RV+jV9nP7Dyg6knD5169atpyFE0UdkVmmLtHLFGDA5z1ggm583pAq5xwochocpjV1kUXasxsD4KM9ALqILyGxaR2bkKQ+Rw8gzDCAYoTAe0O5Fnawjx2g/rNK3b9/25cxTP9JnwIT+broRWc44KGL/OEofivWdpiPgNDgKHlIMIUFRo7Dz7HAmaFkyx/cPP2iUNgO/njNgEzwISMpF3dmVj3806aSEjAFGnRnEWD6I9/2xfJEhTQieeifaG9cFyGd20pGXOwptihBDoEMW2WgExggZMI+dKAuTPZQhQg8/TPykv/jiC79JEzIOMT9pe+dVH8YiGUUOdigsJodYjBg7EGv6D4qcid1+8m3l4DuMMeqDQrVDlxjXeSTKiPKkfzOx/Oijj/xrPuNvjZY4en5Vp1juyMXk3NUJEWhZMHU8PNdW9eWVhTWf8RnH9eT8tQlPzv3JmnJHwXrOPSD0uJukdDwEbKKMrIR8Iy8Zk3fu3PH7GG7evOmvGIfow0VZuTLyjUyxcQqhwr0Siz4yx8ZqkckVkx+IMcQbf3wMEnnJQ+QBdcf6j1HgV7/6lX8WmBU1sULxxhtv+KgwhMpER9Lv8tKP9HeeQZ+BF6Af6SuNKDtjt2FTSlcIGbNSSDcz+AcPHvgByPvjJJs125UOBUngnpAvhBPClc7NAKz3DJjnUzaEA+XiPcII0mIWQ4R9lphRpxdlw8lmtwgdZtDUFWxZhoRUFWGQUWfawvz+KCcWJuqcravV6bhXJh+QSHCF6EPCec1z65Hog7QHRJx+B3FEMUJUyWz+gqSatRhhi7XNlFAemFi9bUwghCmPZSYmZHCjjOCFIkdIk6dkQaOs1IU+dliirvwWv3fGMu8hNNTvNOSFslv/xqJFmSD6TGwo28vKdViZ6/s3opbs+mPnhweGvFtKd5+Itfy/IdX8raLNmris4APOyZcQbSPc+IT3j9Rc6dqbLIZ3jHahT5Pp//R9Jp4YB+j3EFlzE6Qv274GG6PIMOQW4xWClPdYpc+jF5BpZMYr5eSKPEN3ItfNpZKJMmMXGcO4a4TEZB4ZjWygjpQffLPy7yi4gpVlk1Nc0anII3QBsgLjG/KvqAkZTBmRl+xJQFfQH+lj4GD5uOUHG/CgXyAvMUphvOAa0zXzuOUu0vdbBP6zcxaKVLJTlAUhBgFBuGFlwA0D5c0APE4CGkg7gpArCpnORudiENLpyOYDV28CbnWj/kSAYbBRfyNjfA4G2YmICWQECIOJzGck6kudENDUkUzdEdIMYkhLERJ1QsDSzszuaXdeU1/qepouDhYoJ6sz7U7dec/n9UzUCyVDPRGo1JvYt/fv3/cn82Fxw/eUkIV8znfA6jSkNVtfsCHTD8DFJgMoazITIcgGVkAwo++gDMiMI5Sj3SN73/2vrZ4oEIg3E0rqRBszNk9aH/o6ZaA8jGPKb1Y++jp/a8TEQTqEHcSSTdQTSDTWbQ7hmbv3xN3+4r774r+/8Zsvf/b/PnDT717ybiZt7bWJEJZx7kGyjZaNiENRykz/NBll7if0ZcYk4xMiTp+2SE7IMGQ33z2t/MpiYJNNiLaNV8YmYxWDEitSTBZ4T//ne2TGKrKO8dIICWIJvshDMOWK7ENHgKflw/QCcgm8qHPWuIAutIkKMgN5gfzgu/ymiAkZCSbgYLoATgAnMm5DHz0MD6tXto5ZbmBY0I9MNzZKf7G61ePalATcgGSg0fHIDD4623ESnZLM78h0KIQRmUFoBOI494z5Xas/Aw1hDlGzAcdgM/JjQoYBxWsbZEbAEb4IGQSR/S1mPY7zLOqFBcnqe1TBctAzqC/tTHsjfIssaK29UeD4nBoBR7nbRIxxwHgwJWT94TCcwIB6k+kf1l/oD0ZgUegoI1PoKHEsaSh1/kYfymOCSvtSB+pIG1N+yn6SZPWgb1NGJhJFbt+j1hHinSXQWLZJT7Sp8tt/ivDdmHFzd5/4TZfv/EKb6RQhpVcH6iRf76MifLrv0YfJkEQIEeMzS8Ah5vRv/o7MRp7ZOLXfUgL6vfV9xqhl68N2pZ8z9hiDZkyxCSfjlQxxYrxiLYZA2W9PV9P6/hoZB3bIC9MHhuNh8o5SG5bgtp+AgyOfgWsjJfCwiaD1raPiYfUEF0tgQ3+CD2FcKbp+tHIX6drUBBxhxUAzssH74ya7B1c6nwkzOh9CqsjJyk79DxpoJmi47he69jc+b4T6WlvQ5lbfk7S53ceuVn/aHkyKmqy9IdhsRCWjfCzzHssHyojPmJghiHmNoqKfWMrWk3qjdCDbXCGsCFxbFUEAI3z5m2XekyG1pqyy97TnnORKOakjbUydT9rGlMfaNu8ynqReuf1GYs4w8ZjTZfXZg29n3ee//bd7/GDB9cn1ZHC8z42c0ymW2oA5cWXEk/DcypBudCgCtA/9l7EHybZMv7bXjFNbvTQCaStY/J5xwLhF3iGfGaemn+jPZD5nDGJAIDNmeW9j2cYrVz638ZrXWD0UhMB/BCPT/1l9wOfklyUwMBmBnCCDr71uNIxOi8d+vAwH+pj1v0bDZH+dYr9vagIeG8z0vIRAEREwhYNyZynWiPlxCHhWYWcJOEod5Y0wTsK3iK2vcxHkToLP931Zvv/xyf/4Y+avvFmzenMQT7+ipFx996IbnowXUrOYSBWjVEaUIOK4WTFJZszyHgJuE2VIJQSc7xvxtut+As6YZaxyZSynlBBICNQfgabchFl/WFMJEgLFQcCIMYqX5WUUMUocBW6WISxFKPIXJX6ftf6YxcMsbIl8vwi14nxW2dhyjxX3e2m+7LoVitCHJbw67gv4+LslhSPcdpc2JotT4DNeEhtvTGxxjcJqzThljGbHqRF1rvzGslkm7T5Gyu16xuFN1U8IFAaBRMAL0xSpIAmBcAigjFHA5JTOFgIb5U03c3fBLc6t+ugmQ3I9GT0/5DdlblU0EduSy9am3HnkO04/ccX1sjozDUc72ET3zFQ6VTQhcMYQKLYT8xlrjFTdhEBCICGQJwIsaqyLgH93S9GBZlfc8LkBd/FVRbkYKfkIJ5BtwhJuK/IJ0U8OWgXJs0zpXgmBhEBCICGgSHMJhIRAQiAhkBBoPgS2dRAPPt6rS9qIq6PlScT3HproV2xwbdLTCZe4pHDFR3xtRdFx9JuUEgIJgYRAQiA8AskFJTzG6QkJgYRAQiA6ApDq+YeLbhnfbx2u06Nc6lcINcUGb9Gm2U4R7xFtvCwrPvjq0oa3kI8rFjixw1NKCCQEEgIJgbAIJAIeFt9094RAQiAhUBcENtYq7qHifS/MrfiY3yOTCkGnEzE5AZPU2d0hl5R+rYO2uGWOrleswoFRnXPguutS3vTQhEBCICFwlhBILihnqbVTXRMCCYEzgQC+3OXVDXf3Wx26M7OkEIP97uK1cW8FNwAg4KPyCe8b6nZLi2U392jRETElpYRAQiAhkBAIj0CygIfHOD0hIZAQSAhEQ6Ba1VH065tueYkTcDd8ZBM2XQ6N9Xn3EytIe0erP3ynq7fTldc33Ppmq+JK1w438tFQ7IvpmhBICCQEEgK5I5AIeO6QphsmBBICCYH6IYDv98zDBfdkfsV1lDpcr9xOcD2p+X4/izGIH7gOS3St7S1ua1enoBIXXvHhiYqiP9VCEtavGunJCYGEQEKgqRFILihN3bypcgmBhMBZQ2BtbcPduzPnZmd15Pxwj5vUUfOlPd/vrGWbkN/4g7PpsqvU7lplEV+TJXx1ZV1cXIQ8pYRAQiAhkBAIhkAi4MGgTTdOCCQEEgLxEVhdXXfffvvAPZyZd6OKcnLl2qQn4AeVpLNLmzHH+11poMst4gs+K1/wSvIFPwiv9HlCICGQEMgDgeSCkgeK6R4JgYRAQqDOCHjf741Nt7hUdssrZe9CMqi436PjA3I/OVjUd2kz5vi5Idf6uEW/XZFZfNcNjfS5vr6eOtcoPT4hkBBICDQvAskC3rxtm2qWEEgInCEENkS+Hz6cd/PzSz7uN8S7t18H7Yh8tyrU4EGpu6fTnb8w4gaH+9yThVXd44lb1ybOlBICCYGEQEIgHAIHm0XCPTPdOSGQEEgIJARyRmCtrLCDd2fd3JzCDopMT0wOeyt2217c74Me19HR7gaHet2TJ8si3hVFQtlyW1vVg76ePk8IJAQSAgmBHBBIFvAcQEy3SAgkBBIC9UZgtSzf75sP3MzME3fu/Ih79dWLR3IjwTre2dnh2kXEd3Z2PPne2d7x0VDqXaf0/IRAQiAh0KwIJALerC2b6pUQSAicCQTw/Wbj5ZLifq8ogglhBEdHBtzExJDr0gbLlyUio2Al75SrSk+PwhWKiOPOQjSVFA3lZeilvycEEgIJgZMhkAj4yXBLv0oIJAQSAoVAALI882jBLciFpLe3242PDyr2d48n0of5fu8vPGSd3w4MlLSJc02uLCkayn6M0vuEQEIgIZAXAomA54Vkuk9CICGQEKgDAutrFXfv3qx7/HhZvt/97tKl8ae+39m43y8rWnd3p5s8N+JGRgd0JP2mLOrl5Av+MtDS3xMCCYGEwAkRSAT8hMClnyUEEgIJgSIggO/3rVsP/cE758+PuldfO5rv9/6yd3d3uQsXRt2kXFd2d52D2G/LFzylhEBCICGQEMgfgUTA88c03TEhkBBICERDYGuz6hYWVhxRUPr6e9yI/L/x5z5u6uhoc/36Pe4ru/pva4tj6RMBPy6O6fsJgYRAQuAoCLSUy2XZOlJKCCQEEgIJgYRAQiAhkBBICCQEDIHaJvU2197OeQr52qzzvZuVOF0TAgmBhEBCICGQEEgIJAQSAg2MwK788arVqiJDbeiMhHwPKEsEvIE7Rip6QiAhkBBICCQEEgIJgYRAeAQg4pVKJbcHJQKeG5TpRgmBhEBCICGQEEgIJAQSAs2KwPb2dm6W8ETAm7WXpHolBBICCYGEQEIgIZAQSAjkigCW8Dw2qCcCnmuzpJslBBICCYGEQEIgIZAQSAg0MwKQ8NOmRMBPi2D6fUIgIZAQSAgkBBICCYGEwJlBAFeU06ZEwE+LYPp9QiAhkBBICCQEEgIJgYTAmUGA6CinTYmAnxbB9PuEQEIgIZAQSAgkBBICCYGEwDEQSAT8GGClryYEEgIJgYRAQiAhkBBICCQETovA/wGEvxHCBpQSbgAAAABJRU5ErkJggg==;" vertex="1" parent="1">
          <mxGeometry x="311.52" y="1172.5" width="85.98" height="25" as="geometry" />
        </mxCell>
        <mxCell id="7oJAKyxnwEzEujUSBb01-78" value="" style="shape=image;verticalLabelPosition=bottom;labelBackgroundColor=#ffffff;verticalAlign=top;aspect=fixed;imageAspect=0;image=https://miro.medium.com/max/860/0*zIIIzNCpvQ8UvDmv.png;" vertex="1" parent="1">
          <mxGeometry x="408.89" y="1156.83" width="71.11" height="56.34" as="geometry" />
        </mxCell>
        <mxCell id="7oJAKyxnwEzEujUSBb01-79" value="" style="shape=image;verticalLabelPosition=bottom;labelBackgroundColor=#ffffff;verticalAlign=top;aspect=fixed;imageAspect=0;image=https://gitlab.com/uploads/-/system/project/avatar/278964/project_avatar.png;" vertex="1" parent="1">
          <mxGeometry x="492.61" y="1158.44" width="53.11" height="53.11" as="geometry" />
        </mxCell>
        <mxCell id="7oJAKyxnwEzEujUSBb01-80" value="" style="shape=image;verticalLabelPosition=bottom;labelBackgroundColor=#ffffff;verticalAlign=top;aspect=fixed;imageAspect=0;image=https://www.sysage.com.tw/rails/active_storage/blobs/proxy/eyJfcmFpbHMiOnsibWVzc2FnZSI6IkJBaHBBamdGIiwiZXhwIjpudWxsLCJwdXIiOiJibG9iX2lkIn19--e86726a601c4e1a27bbdd5ccf753d22542bd79d3/kubernetes.png;" vertex="1" parent="1">
          <mxGeometry x="560" y="1166.8" width="59.01" height="44.75" as="geometry" />
        </mxCell>
        <mxCell id="7oJAKyxnwEzEujUSBb01-81" value="" style="shape=image;verticalLabelPosition=bottom;labelBackgroundColor=#ffffff;verticalAlign=top;aspect=fixed;imageAspect=0;image=https://upload.wikimedia.org/wikipedia/commons/thumb/7/77/Apache_ZooKeeper_logo.svg/1200px-Apache_ZooKeeper_logo.svg.png;" vertex="1" parent="1">
          <mxGeometry x="385" y="983.51" width="79.51" height="42.97" as="geometry" />
        </mxCell>
        <mxCell id="7oJAKyxnwEzEujUSBb01-82" value="" style="shape=image;verticalLabelPosition=bottom;labelBackgroundColor=#ffffff;verticalAlign=top;aspect=fixed;imageAspect=0;image=data:image/png,iVBORw0KGgoAAAANSUhEUgAAAWQAAABmCAYAAAD8pOufAAAMbmlDQ1BJQ0MgUHJvZmlsZQAASImVVwdYU8kWnltSSQECCEgJvQkiNYCUEFoA6UWwEZJAQokxIajYy6KCaxdRrOiqiIuuroCsFXVtLIq9LxZUlHVRFxsqb0ICuu4r3zvfN/f+OXPmP+XO5N4DAPOdQC4vQHUBKJQVKZIiQ9mjMzLZpMeAACiAAciAKRAq5dyEhFgAZeD+d3lzDSDq+2VXNdc/5/+r6IvESiEAyFiIs0VKYSHExwDA1wvliiIAiGq9zeQiuRrPhthAAQOEeJUa52rwTjXO1uBD/TYpSTyILwJApgkEilwAGHegnl0szIU8jI8Qu8tEUhkAzGEQBwklAhHE6tiHFRZOVONKiB2hvRxiGA/gZH/Fmfs3/uxBfoEgdxBr8uoXcphUKS8QTP0/S/O/pbBANeDDHg6aRBGVpM4f1vBG/sQYNaZB3CXLjotX1xrid1KRpu4AoFSJKipVY4+aCZU8WD9gBLG7SBAWA7EZxBGygrhYrT47RxrBhxjuFnSKtIifArExxAvFyvBkrc1mxcQkrS+0PkfB42r1ZwSKfr9qX/dU+alcLf8riZiv5ccYJZKUdIipENsWS9PiIGZA7KbMT47R2owskfDiBmwUqiR1/LYQJ4llkaEafqw4RxGRpLUvK1QO5Ittlkj5cVq8r0iSEqWpD3ZSKOiPH+aCXRTLuKkDPGLl6NiBXETisHBN7thTsSw1WcvzTl4UmqRZi1PlBQlae9xaXBCp1ltD7KUsTtauxdOK4ObU8OM58qKEFE2ceEmeIDpBEw++DMQCHggDbKCCIxtMBHlA2trV0AV/aWYigAAoQC4QA1etZmBFev+MDF6TQQn4AyIxUA6uC+2fFYNiqP80qNVcXUFO/2xx/4p88BjiQhADCuBvVf8q2aC3NPAIaqT/8C6AQwjjLYBDPf/v9QPaLxou1MRqNaoBj2zmgCUxnBhGjCJGEJ1wUzwID8Bj4TUEDg+cg/sN5PHFnvCY0EZ4QLhKaCfcnCCdq/gmylGgHfJHaGuR/XUtcHvI6Y2H4oGQHTLjRrgpcMW9oB8uHgw9e0MtTxu3uirsb7j/lsFXT0NrR3GnoJQhlBCK47crGc4M70EWda2/ro8m1uzBevMGZ771z/uq+iJ4j/nWEluI7cdOY8exs9ghrAGwsaNYI9aCHVbjwd31qH93DXhL6o8nH/JI/+Fv4MmqK6l0r3XvdP+omSsSTylSHzzeRPlUhTRXUsTmwreDmM2XCd2GsT3cPTwAUL9rNH9frxP73yGIUcsX3bzfAQg82tfX98sXXfRRAH7yhcf/4BedIwcAPR0AzhwUqhTFGh2uvhDgvwQTnjQTYAFsgCPMxwP4gAAQAsJBNIgHKSADjIfRS+A+V4DJYDqYA0pBOVgGVoN1YBPYCnaCH8E+0AAOgePgV3AeXARXwW24ezrAc9AN3oBeBEFICB1hISaIJWKHuCAeCAcJQsKRWCQJyUCykFxEhqiQ6cg8pBxZgaxDtiA1yE/IQeQ4chZpQ24i95FO5BXyAcVQGmqAmqP26HCUg3LRGDQFHYfmopPQEnQ+ugStRKvR3Wg9ehw9j15F29HnaA8GMB3MCLPCXDEOxsPisUwsB1NgM7EyrAKrxuqwJvicL2PtWBf2HifiLJyNu8IdHIWn4kJ8Ej4TX4yvw3fi9fhJ/DJ+H+/GPxPoBDOCC8GfwCeMJuQSJhNKCRWE7YQDhFPwLHUQ3hCJRCOiA9EXnsUMYh5xGnExcQNxD/EYsY34kNhDIpFMSC6kQFI8SUAqIpWS1pJ2k46SLpE6SO/IOmRLsgc5gpxJlpHnkivIu8hHyJfIT8i9FF2KHcWfEk8RUaZSllK2UZooFygdlF6qHtWBGkhNoeZR51ArqXXUU9Q71Nc6OjrWOn46iTpSndk6lTp7dc7o3Nd5T9OnOdN4tLE0FW0JbQftGO0m7TWdTrenh9Az6UX0JfQa+gn6Pfo7BovhxuAzRIxZjCpGPeMS4wWTwrRjcpnjmSXMCuZ+5gVmly5F116XpyvQnalbpXtQ97pujx5Lb4RevF6h3mK9XXpn9Z7qk/Tt9cP1Rfrz9bfqn9B/yMJYNiweS8iax9rGOsXqMCAaOBjwDfIMyg1+NGg16DbUN/QyTDOcYlhleNiw3QgzsjfiGxUYLTXaZ3TN6MMQ8yHcIeIhi4bUDbk05K3xUOMQY7FxmfEe46vGH0zYJuEm+SbLTRpM7prips6miaaTTTeanjLtGmowNGCocGjZ0H1Db5mhZs5mSWbTzLaatZj1mFuYR5rLzdeanzDvsjCyCLHIs1hlccSi05JlGWQptVxledTyGduQzWUXsCvZJ9ndVmZWUVYqqy1WrVa91g7WqdZzrfdY37Wh2nBscmxW2TTbdNta2o6ynW5ba3vLjmLHsZPYrbE7bffW3sE+3X6BfYP9UwdjB75DiUOtwx1HumOw4yTHascrTkQnjlO+0wani86os7ezxLnK+YIL6uLjInXZ4NI2jDDMb5hsWPWw6640V65rsWut6303I7dYt7luDW4vhtsOzxy+fPjp4Z/dvd0L3Le53x6hPyJ6xNwRTSNeeTh7CD2qPK540j0jPGd5Nnq+9HLxEntt9LrhzfIe5b3Au9n7k4+vj8KnzqfT19Y3y3e973WOASeBs5hzxo/gF+o3y++Q33t/H/8i/33+fwa4BuQH7Ap4OtJhpHjktpEPA60DBYFbAtuD2EFZQZuD2oOtggXB1cEPQmxCRCHbQ55wnbh53N3cF6HuoYrQA6Fvef68GbxjYVhYZFhZWGu4fnhq+LrwexHWEbkRtRHdkd6R0yKPRRGiYqKWR13nm/OF/Bp+d7Rv9IzokzG0mOSYdTEPYp1jFbFNo9BR0aNWjroTZxcni2uIB/H8+JXxdxMcEiYl/JJITExIrEp8nDQiaXrS6WRW8oTkXclvUkJTlqbcTnVMVaU2pzHTxqbVpL1ND0tfkd4+evjoGaPPZ5hmSDMaM0mZaZnbM3vGhI9ZPaZjrPfY0rHXxjmMmzLu7HjT8QXjD09gThBM2J9FyErP2pX1URAvqBb0ZPOz12d3C3nCNcLnohDRKlGnOFC8QvwkJzBnRc7T3MDclbmdkmBJhaRLypOuk77Mi8rblPc2Pz5/R35fQXrBnkJyYVbhQZm+LF92cqLFxCkT2+Qu8lJ5+yT/SasndStiFNuViHKcsrHIAH7Ut6gcVd+p7hcHFVcVv5ucNnn/FL0psiktU52nLpr6pCSi5Idp+DThtObpVtPnTL8/gztjy0xkZvbM5lk2s+bP6pgdOXvnHOqc/Dm/zXWfu2LuX/PS5zXNN58/e/7D7yK/qy1llCpKry8IWLBpIb5QurB1keeitYs+l4nKzpW7l1eUf1wsXHzu+xHfV37ftyRnSetSn6UblxGXyZZdWx68fOcKvRUlKx6uHLWyfhV7Vdmqv1ZPWH22wqti0xrqGtWa9srYysa1tmuXrf24TrLualVo1Z71ZusXrX+7QbTh0saQjXWbzDeVb/qwWbr5xpbILfXV9tUVW4lbi7c+3pa27fQPnB9qtptuL9/+aYdsR/vOpJ0na3xranaZ7Vpai9aqajt3j9198cewHxvrXOu27DHaU74X7FXtffZT1k/X9sXsa97P2V/3s93P6w+wDpTVI/VT67sbJA3tjRmNbQejDzY3BTQd+MXtlx2HrA5VHTY8vPQI9cj8I31HS472HJMf6zqee/xh84Tm2ydGn7hyMvFk66mYU2d+jfj1xGnu6aNnAs8cOut/9uA5zrmG8z7n61u8Ww785v3bgVaf1voLvhcaL/pdbGob2XbkUvCl45fDLv96hX/l/NW4q23XUq/duD72evsN0Y2nNwtuvrxVfKv39uw7hDtld3XvVtwzu1f9u9Pve9p92g/fD7vf8iD5we2HwofPHykffeyY/5j+uOKJ5ZOapx5PD3VGdF58NuZZx3P5896u0j/0/lj/wvHFz3+G/NnSPbq746XiZd+rxa9NXu/4y+uv5p6EnntvCt/0vi17Z/Ju53vO+9Mf0j886Z38kfSx8pPTp6bPMZ/v9BX29ckFCkH/pwAGB5qTA8CrHQDQMwBgwb6NOkbTC/YLoulf+xH4T1jTL/aLDwB18Ps9sQt+3VwHYO822H5BfibsVRPoAKT4AdTTc3BoRZnj6aHhosE+hXCvr+817NlIKwH4tKyvr7e6r+/TVhgs7B2PyTQ9qFqIsGfYHPcpuzAb/BvR9Kdf5fjtHagj8ALf3v8FNfSQwUv6+PQAAABsZVhJZk1NACoAAAAIAAQBGgAFAAAAAQAAAD4BGwAFAAAAAQAAAEYBKAADAAAAAQACAACHaQAEAAAAAQAAAE4AAAAAAAAAkAAAAAEAAACQAAAAAQACoAIABAAAAAEAAAFkoAMABAAAAAEAAABmAAAAANAD0sYAAAAJcEhZcwAAFiUAABYlAUlSJPAAACceSURBVHgB7Z0JlB1F1cfvzGSbxCAQwr7MEIwBhAARFESCQSBsQuIJEUE/WVTwCO6AKBIVQeR8yvaxu4CiIIRV1iCLgAgCAgGEhDWQQCAQyDr7++rXedVzu16/fv3evDd5Pal7zkzXeqv61ut/37p1q7ohZ0g8eQl4CXgJeAmsdgk0rvYe+A54CXgJeAl4CQQS8IDsfwheAl4CXgJ1IgEPyHUyEL4bXgJeAl4CHpD9b8BLwEvAS6BOJOABuU4GwnfDS8BLwEvAA7L/DXgJeAl4CdSJBDwg18lA+G54CXgJeAl4QPa/AS8BLwEvgTqRgAfkOhkI3w0vAS8BLwEPyP434CXgJeAlUCcS8IBcJwPhu+El4CXgJeAB2f8GvAS8BLwE6kQCHpDrZCB8N7wEvAS8BDwg+9+Al4CXgJdAnUjAA3KdDITvhpeAl4CXgAdk/xvwEvAS8BKoEwl4QK6TgfDd8BLwEvAS8IDsfwNeAl4CXgJ1IgEPyHUyEL4bXgJeAl4CHpD9b8BLwEvAS6BOJOABuU4GwnfDS8BLwEvAA7L/DXgJeAl4CdSJBDwg18lA+G54CXgJeAl4QPa/AS8BLwEvgTqRgAfkOhkI3w0vAS8BLwEPyP434CXgJeAlUCcS8IBcJwPhu+El4CXgJeAB2f8GvAS8BLwE6kQCg+qkH74bA0gCP/rRj+SMM84I72jMmDHyxBNPyFprrRWmZTEwf/58ueGGGySXywXdb2pqkilTpshGG22U+na6u7vl9ttvl1deeSWs09LSIgcddFAYr0Zg4cKFsmDBgrCvQ4cOlXHjxgl9TqLFixcH9WyZhoYG2XTTTQvGDhl0dnbaYsGVsoMHD46k9Ufk3XfflaeeeirSVGtrq/BniTKXXnqpdHR02KTgno499lhpbm4O01Z7wAh2zaOurlzn3JdyXfNez+V6eury/nuWLM11Pj8n171kSV32L6lThxxyCIgV/u2333458/AmVclE3r/+9a+cAZzcoEGDgr8PfehDuUceeaSsvq9cuTJ34IEHhjzgtf/++5fFI03hE088MTdy5Mjwb+LEiTnzMihZ9ZJLLsmts8464d8GG2yQ+9vf/lZQb9GiRbkvfOELOcbW/h122GE58yIoKFvrhD/+8Y85A6qRv7/+9a+RZufOnZszCkGusbEx/Ntss81yb7/9dqTc6o6scRpyz7uLZdm5F0nns8+JDDJv9PEfk+GHHSqD1Nt0db4lc23t0nbnXbLy5lsl98FSaRgyTIYfPl2GHbDP6uxWWW0//fTTYXm0pu23314M8IRpWQ2Yh1W6urpCrVOHy7kntGTqWurp6bHBqlzhf/fdd8vSpUtDfltuuaUYMArjxQLLli0TtGRLaNbwc4nZzrBhw+Tqq68OsyhrQFo+97nPhWn9EXjmmWfEvOjCpswLRcaPHx/GbQA5a1nrsC2zuq/Zf0rKkaCZYi077xLpeOxJkSajwHU1SMfjj0vX3Dky4n++JEP32EPMr7YcjlUt2/O+eVlc8H/S8fSzIp3mIejOSW5lhyy79AoZsvuu0vjhkVVtrxbMXnvttch0nCnyxz/+8Vo0VRHP2bNny/e+970IIBoNT37wgx9E+L388suyfPnySNqrr74aiQPQlBs+fHgkPSnClFkDJWWJ0y+XPvKRjwSg56aXijN9f/755yPF0o6BflFYBnFmDkwTP/3pT+VPf/pTKMv29nYxmqkccMABJU0jljdXANVo9NLW1hYmA+rf/va3w3hS4D//+U8kG9PMFltsEUnLSmSNAuRcR5d0PsEPn9l0nkywZ/kyWfbHK6TrrQXSvN8BBvg+bHP752re3B1PPykrZ84UY0oxHXI0pvYO6XxytgyduFv/9CemlTfeeEN+8YtfxOREk7CNAlSWCPPQ/v3vf7dJ/XLdfPPN5Yc//GFBW9gVAY5//OMfYZ6Ztspxxx0nxgQRpn3961+Xx83LWpOrEQOu2CDjAEvX02HkgRaq6dFHHxVjUtBJQfif//xnYPctyEhIQOu79dZbZcWKFWGpIUOGyI477hjGkwKuNswMp5hmjYw/9alPyf333x+yvOOOO4SXMhp5WuLF8/7778vDDz8cVnnnnXfkq1/9qowYMSJMiwugzesZGWV23XVXQVvPIq1RgCw93ZJjqthQOFQ58wNuu/Umoy0/LyO/cbw0jhpdWKgWKWY6uPLvs2TltX+W3PL2/LuCDvaCGs3mVvZqD7XoRimePCAXX3xxqWIF+TzgN910U0F6rRPQCOMAGdA95phjBLCz2uALL7wQgNj06dPDbi1ZsiQydQ8zVABwpVxficUxbSboCz+A2JX32LFjZZtttknF1srEFk4CZMoY+3cEkFk8u+qqq4SF3WJAbnnbK+B55JFHymOPPRYuFD777LNy5513ytSpU22x2Ostt9wivFAt0SYviazSmgXIwShFgS4ycCar6+U5suTs02X41OkyZOddDXjHoHekUuWRnvcWyYobr5WORx6WnNHaeimhj72FfKhCCfDAot1hboAAodNOO00OPvjgikwEFXajJtVeeuklcU0rX/ziFwu8JIo17npOUC5pBoB3yKmnnhrxXsAThRnHeuutV6yZgvS99tpL1l13XcE7BOJl97Of/Uw+85nPCDbhOMLEccUVV0Tswti1UQJcExAzPNdmzL0+99xzQbtx/N200aNHy4YbbugmVzW+BgJyCfmZH0L3Owtl2Z8uk+Z3FsiwvQ6QhmFVdosxbXTNe0WWXXmxdM+bZ2zFJfrks6sqgZaWFtlzzz1DQIY5WvK///1v+fSnPx20hStUqelyXKd4yLVrFRomvLiWS5XUueuuu+SDDz4ImwLkjPdD6vZdQC6lIWMCQku+8cYbwzbnzJkjL774YlmAbMfkmmuuCflgW8ZdErCOI9owXi6RLBb3vvKVr0TSiADw2kZNGrM++p6WmFmde+65aYtXVM4DchGx5drbZMWtM6VrwTwZPuVwaRq1flW0ZUwm7Q/cKW333iHdby8yvxTXPFGf2jGr6qV+vEw59fQR88AeLJSuBvroRz9atFWmtSeccEIwtWeKbcm4d4WA/Jvf/KZg8c2WK3ZFA2O6fvnll4dF0BKJr7322mFa2gBafDnEi+Ciiy4KTTHU3XnnnWXjjTdOzUa/TKhUCpDRSFkQnTVrVrgIymKocUWTXXbZJbXZgjH51re+Jdig7QsFTfe6666TSZMmxb5Q7rvvvgKQBXi1/TzpxsspCx9XNkm8K83zgFxMcuCi+euc/ZgsXfi6jJh+tAweY+xw5odTEZkfSm75Ulk56wZpu/8uM0/ONxAw06CswxW1VJNKbO5gsagYYUv95Cc/GQHkffbZR2aahcp6pO22204++9nPitbIbr755sBzAJBJuwim7w1Afuihh3RSsLjEIhPT3VoS4II9VW84ob19991XWNRLSyx4upRksqAsoI9ng14ERWMGqNF809InPvGJYHGTcbAEQL/11lsFm28Aa8aO60CiCtFlIInA3oujmYKLeep515gwrjzHaLU3Sa6j8AdryyVdu+a/Ikv/8L/S9pABY/PwrCLbSD5uo3GrjknM6yDv3nvvDab9titoVnvvvbeN1t0VjeyII44Qs3kicFvj+t577wlT/iwS0/Hf/va3ka6vv/76Ze8AdAG5lIZMg/iY46YG8Ns/s3FErr/++kh/SkUYk2nTpgXjYfkAxu59wQftmIXZgUZroIYM6llAdIYzBEQnnRptK2XFPTdI9/sLpXnSVGlc22g8BnRKUa7TuKw9/4SsvPUq6V78XkzTqj9ht8JAKfZ1kc9DjGubXjTBTxXNsJ6JqTAAzMOPnZe/UaNGRbrMg+9qvZECKoKWqt3pyGLmgPkjrT0a09Dxxx+vuKYL4ndsdhJGCh999NFluZ9RWW+wIA4gl9KQKcMinuu6Z3b5BbZb8tMSC6v4EOvf0ocdN1T8ts8666xIGcAcv+VWY9OOI+zF1NEvHPiefPLJEXfHuLo2bdttt7XBml3XQEAuBnb6R2PCrhZL3ExJO558SLrffFlGHHq8NK2/WeLA5Hq6pO2+a6X9kXskt8Jo1rFNq0TdhUTO9ZXJCrb2IaV3O+ywg+BfWs/Ehg7MLEmE/7Q+lyOpLHmAsiYA+Ze//GWsDVSXs2HOjSgXkJm2n3/++YEvr+XDiwVfaoCqHHIBmbppeGCScQG5nHZtWWYqdmHVprlXFvvclw9ufbg5ui9UW5cFwF//+tcRQGaN46ijjqq5Ocn2Ic11DQTkBLGEz5IJ8FaPAGQ+Yh647kULZOmVxjVu8pdlyLa7rSrrsM21LZMVN5tdgf81uwLNjrte0mGTGmgP+TQnq7dOfYfYGPDmm29GOmnODuj3HXpM0dFoq0kArNbWKuENDxeoi/FJW07X555ZRNN10TTtoUdohUz70/g6u+5iLGThWsaiXV8Je3baHYPF2sI0g6arN9cws2ExM8nNrpiWTnqxvGJ9qGW6B2SLuiEYArzmD00n8IAgbsJ5PA60XMLGhNH+yG1moW+8NDT37vCyg9U593HpfPEpG81f4ZPnbXNoxzJvIAzl21wVqev/rGi7vqB0mIc/DQBU8+bs6nwxnvicJm3kYGrOAlWWCO34yiuvjHhW0H9cxTDFQIDqOeecI7wkyyXA/MILLyy3Wmx5TAQakBkLxiSJ8DTRXiKYmFj00y8ftr7vvvvuSWwyk5c5QO7417+l/dHHZMiE8TL0E7uwolCmsBXYEbQIG4Rt3FxDDTkPkg5WGp1Hut97S3o+eEeaHEDOdbabrdAPwixKFozDtvLZASibBoI2bEPRqpXEeozdrO2Ou8zuxJw0TznI2L2rvyUc7dj1Ba2kr/1R56STThJc24oRGha2xiTCfQ0zR7W0Ksw9TME1wCS17+axo43jPF2qVv9cvtWM87vBEyeJ2K5/yimnBEV4OeCXPHny5EgVziYZKFQumq32+1766wvNAtsyaX/wH9J1wL5mR91UaRhZzjm7CvBs0F5doIzcLYWcAt0dZkvz0kipINJl0lfgnG/qUMVWC4DXKR7k8892gnw37tQpFcXW/czTsuzCi6VnofGz7W6Spo03kWH7fqZUzbLyeUCYKnJ1CUBIY3t065UTB8T6ak4opz3K4i532223VQ2Qf//73wdnNlTivoW/L/7UpV4i5d5jvZZni/WMGTPqtXtV6VfmADm3xBzMwkzMgE7brDul67W5MnzaF2TwuI8ZHAPISlEM2AWmApMeYGIMj4CvBkzbhilr+lFAuijhMG7btleTEeaZckHTNs/lGmS6iQXxng8Wy8rbb5H2++6XnsW8LEw9A1w55+SygooVJMTtlLJszFmz8v3vf79mB5YDxhz96Ho12PbXhCubJtLcPy9HtvzGLdhpObGFnK3LWlvH7IFtHvOTPv0O8w7ppTwwNH99eJNO9+FeCWQOkHu7Dpj1SNcrL8mSc8+U5v0PkubPHiQNwwvtub11CGkEtDka7MgHxFTRQLPVZSgRjVtOpa/Us33QYZUc8LZlLEc3btPzV2NL5OW0/C+/l65X5xkbNy8Kzb9EfYddqSiaKbZjvTNP12HVna2mLLjUggANFqDSAJJtH3MDIGKJBaIkm7Itp6+0qwFL51USrpQXtnu8N9LUBwjTyImNHbvttltkRxoeDyzosR0ZW7UlZIk7YGtrq00q+4prpB4PGAD87vZty5gXBkpA3IzMlil2ff311wtmU7SDyafYWRnFeOHJgTdMLSiDgAywADSazD71+2434PysDD/4CBnUMk5npgw7fGnCbUZxwoZcGpRhoIFQhy0ztwzpceVs+cIrvs5t99wobQ/cbbTi6NGOhaWrk8IPGUDOEv3qV78KDhGyfcae/N3vfjcVqNk6fBbpggsuqJrJAvetNKBq2+fKiwS7KedvVJPYzOGagHBdrJU9mgVU18ebg5A4UySO2ObOAfjubsS4sm4a9+XOELhfNrSUe3+cTMciaS0og4BsUdJe82Lp7pKu+S/LsqvPk+Z9psnQHScaQC3HB9Phl0bageacpqAtQxsu2Kp4BV3o+cCcGHfDJeYc5ReMPdscLRoQPOPaymf38cKPm5X3rNkurRuYvX02LpRLnBDHmQurk1jE+93vflc2kJfqM7vi3JdD2mM7S/GOy2ezzFZbbRXJSppR0Tc2hZQ7q4k0oCL8jt2PBajsosFKNPSizJyMchDLqbq6owrIVFdyy5eYsyJmSo/xFa47igNc7NP2VoKrjaTrffujd0jnPKMpmR9XVKUvj0+61laVYtrIwpb78JbDw5etTAL4e3PWsD7ophw7blKr2I+1hozmyCKmp/6TQAY15CThrEK8XPsKs8X5LWkcXcLOEweQSezdvGCxz03UcQOKtGHbicNItOyAj86kgo5rntFw13x8S+3Coq2Tvn6UW+kYdjyOIMQmZ4mzDLAH6ikhNk4+rVOrLzfwMsiahm7lVekV++o3v/lN+e9//xuyAIw///nPB59OChMrDPClD/2SxbaqfYArZFu1atwrs5xiNmb6jklJv1T4bTITcj1+WKDk7BJNbFt3t2nrfBsu1+Zs66W5ZhCQAR2Ncvo283lcDHDEkwIri19BQcs3vlZhquJTmNmbAttIO71ZvaF8AViG6N2buyoUZDqJxpJt7McB/0h2yQYdPumjbJG+7LLLIg8uR13aRR7LibMVOFy8llSJq1hf+wMo8OBWi9B0tfdCMb6ADYtq7tdA2BDxpS99qSqAzLqAJvyya31KnW6vVJjFNO6/2Lize4/zU/RCM4tvnFLo7uLj23/uFnW2Ucd9ZcbtF6cB1ooyCMgR5HHkkpTnFI1EAbCEurGacIk6Ef46YtuhvgVO0kzYRnsDqmKYqdLyvc5XXxWjnE2IrxNhUEYEzeS8886LaChowHhTuN/MA0D0tLqMZuq66E477SR/+ctfyl4IKnZT1157bbDxQWt1blnyABC+oKHBCHMCC6vuF0Lc+mnizGjcRcKWlpZUGmMa/tUog5Zb7KwK+MfNxkjDk8MFZBQIlwBa1+vDLVPreAYBWQMOwKNJ5+l0HY4DKZcP5S0vgipcipXOD4ExkgjDfIJtNx+3Ubd4EI/PDGpadiFfy4A6YaZNrPh6zz33FOwKY6UczYK8NYF4aPmAZ7kr88VkAwCU4gUgM+1mIU+T/bpyNQCZD4W6W89Z0HOn+rr9egtjMtMvLPrHjCZL95BBQLbAZK/6ZxGXpvPLCafgFZ49UQ5fByB1M05WlGt8ZlAdDT7Sl/iyUX7lxbAZA7x6es3UnU/Bx2kmgAz2u1oSQOU+gLVsb3XxRo61NP8wm3nwwQcjX99g/AD8LBGLkmj6mjg9Lu73qcvUU7i2T0xN7hSwAYbsVTdi0zTK6fy4sFuWuPlDKw4OF8rXcYqV9kGmHv3RlO9foHHn03U7IajSmFtX8+kNB6UCHr1pQf+D/qbjoWvGhXlg8b1lwcQSDywH0LORII7wX+UcYBb7akH0icVFvD36k/iIKL7LpbTatH3CbptkrkjLpy/lMC1xaA8ytYRm6bqk2bx6vaI04KOtCdNEkiudLlssjFyqNd7F2rDp2QNktMGiZPN6f1iFRRXYhaBl61E6X5d2YpItv4o2hgR9N/w1X8uQdoOm+RdbICypA0FJy1dnqIdLJ1cSfuCBB4KFPF2XQ8TPPPPM4CvNcX6ZaCZodX19GHSbOsxDoj+sqfNqGealVKtNAbXsdxJvvFUwWWhi9tPa2qqT6j7MNx31S4UOjx07ts8mCz4jxSyFr5VzhnYtKXuAHIBWKZEkAZpioIKlOK5CS5dvKQYmnyq2WjGQtPmlOxFfAr5FedDHopnx/FQqdjkWjj72MXNWiCIOP6/3A+hVd30wQQJsdnE3SDC2q3uBK6HLBVnMMtxTB9Hyq2Hq+fOf/yz88Z1FdhKyu69Ws4fsAXI4FJWCDPVcINWgFcM3TgMN+hFTNuxfPgBrt7kAIG2G4hEE+VdQwaSpcnnWhRe3LnzS1CvkZFPQcDnRzaVa24fd9voj7mpX/dFmPbSBZunOcgCytJ+dquU9pB0TTEkczamJhdBKPlareRBmyzaAz1kfTz75ZHC2R9yRp269SuIZBuRKwaYU2OX5crFFA83WBTYTt/mpJW952IrECefTbXIsv8TMfF/cMpZ/LMPUifag89QVMlowzcPPVL4aD7kVEduV58yZUzDVtvm1vnLPN9xgvhWpvt7MeHNmRH/ZTZPuMY19nb7//Oc/L9goxLnVHHDfF0I+2vuEtmp5al0GAVkBWFFJu8CkCxYDKVMn0ITzZSmWx8lVKW67lNd804Rj+hWrfRfrY5o26qMMU2AOr68VmPOgcLh7NQme7ERM0v4x3aAdVcuVCnPQN77xjQggVvOeSvFid5779WbMFdUwR3FIEF45nBiH+aAS0i+KYvXZrHTVVVdFXmp4Vnz5y1/u8zjxe9A7UOlDS0tLsa70OT2DgGxR0F61DCxoxuXZcjGgGGSZOsWybL5lYa/aC8OmJV7pl9OIAYFVZPJCLwublshMZeq6JFM/pi1Vo9ZBPhd0yCGH1LSZYltoK20UQGaVXmtALvCiNeKLXC3tMQn8K72PtPXQPt2vhVOXzyxVY/GKzUIzZswIPni7xx57BB9B5cqCb1oqtbkIsOQYUleT5jzupM9xMdYuxYE/7Wv7Ol5D1XhZuW3beAYB2Xbdgo6Nm2so4zCgMm0wBqhscbLKIluxWCWnrTj+aMjBj8PwCtjF8YxLU22GzYQBk1mijqpeiyA/eNcuWYt2qsmThxqNTgOy6yWCnyvlKtX4qtnfvvJiq3HcJ60mTZrUV9ZBfbYw8xtgsY2/s88+W44++mi5/PLLU/N33dh0RXgfd9xxwdZonU6YWUfSORxx4/f+++8HMxWdx+e19MYbNO9tt93Wba5q8QwDcowMALeSpIDKFrdXlVWSDQVKtmcYwjuJP2Ac8NGNU8GN02AxsmXt1a1frF710uM0jupxrw0nt89oSBw4o4/l5EsbaLFMXSEO9pk2bZrg9lcN7ZYH3tXuanO3hVxZCMN+rQntFdurS66s3Py4OBs1XCp1epwrC22/1byYHXHqHdvYXeI8C873SKK4BUtMUXy9m7FlBjRv3rzAtdOOPfxYQ9hkk02SWPcpL4OADOholNP3n5RnyymwsvgVZNm6tlypq+KTVBS2kXbiCucLwDJEb7dckOkm9irVkeySDRbw6WuCO4VHy6jGtDepX2hPfTFbMB3VQMODh0116623Dpvl7ApOAGOlHaJNFsGyTtw352OgFWpisw+A5JI7vm5+XJwFS01olxxElUSuRsxxoy4xRhzQf/3110fGj3IALWYS9+wKl0dra6ubFKxJcPg8Zir+NBDbwnHnYti8alwzCMgR5HFkkJTnFC2IOnXBtJK45tQp4BmXQB2XcT4tTA4DikFcWh6+C1gWJCg+/RPkweMDnrXatgqgnHHGGcLhPJWSq30B0HzBgy8hW9sx4HzEEUfI+eefv9o02UrvL6ke5gTsx/qFhMZ/8sknV2XMmG3wRQ5NvKCx7RYj6mBG0YS5gAPp0UwhNrFw3ChHu+q+k4cSwHccJ06cSDSR2Ba+/fbbF2yIoRJauqupkw5/vE9qqWhkEJABJgs4XDXpPJ2uw/HApksEYVi77COFDJ+Si3q2n7qi274qk9ie5tEbDri5LHuz+y3kPhzYXpmeujbYanWI9lwtqFwtbv78+ZHuwHPmzJnBF0Hsmbd4iXDKGtoSHhEuYEQYZCTCfaLlu14qeJCMHz++KnfBy86VFdprnPZtGwTA3Tp8ronFwSlTpgTF2ArNYjGmHr1GwQv0K+a7f6eeemoq+z7jetZZZwUvWzv7sf2Iu/LbwhRy7LHHhi/ruHJ9TcsgIFvUstc4ESTlxZWvJI02qoCEuqsVsAuqY4MOPTS4lwoYVSKC1VzH1WKsVpumW4ASZza7RBouVBwEbwntjAUpDlfi7Aw2BwAcbvu2fF+u7kumL7yK1cVrQH+w1JabOnVq0bNHkFc5hP3Y/dQStnm9YOrywxTh1sGEga14woQJgU8xXg7f+c53AhvvaaedFizCAa5o9qTrBTmXvxvHPPOHP/xBfvKTnwQfzI0zUVAHM8XBBx8clEtzgL3bTjnxDAJymtsr78eThqOrLTcAesFiXFJtpx+r0NNUyKcTd4okcSueZ5hE+DiMg3aL185iDgDhPkDlmEfQ4FjUcgmenNGB69cuu+wSakNo+tiT+YNovxaAXK6W7/Y/TZzpvrurDaBhsbJY+3HpSffPQT+uSSjJXEG/OWhJu5jZe+GcZj5Qi3sbgI6mfdJJJwXgzaLeiSeeGHhVlPNChjfgfeCBBwYHZLF9HJs3LwD78iGftjC/2YU+26daXTMMyCCQizRuPE5sCqxs8QiYxdUxabqMqRfXemxN2oi0oxgFQcvJXINyKh7LsNxEw6+kaaVcnoXl4x7YwlLVSwE43U/wrLvuuqkbYAUdjSyOOEDo0EMPlUsvvTQ40S5O6+J+49Lj+NVTGot4p5xySmS6z7187WtfK7ngpu8D4MLkMWbMGJ0chjEzuAuura2tYX5cABc8C4Y6H+C/5JJLBK2bK+OMvXvGjBmB2xu78coFY80ffuX8dnTdaocz/JHTJFFYBIwrA+DlyQaLFbf5try9BummEtO4OC2ZrLh0Wz+82gbyV8s3gv5h4eIB6gX3kL8RyzaokU8rXrsqOXEPUlUYxzBh8YfdZY8++miYC6iwSJOW7r333sjZzm49NLzDDz88mC6jUaLt9ec9uv2pVvyWW24JFi41P75Tx2FRSS9Vdy0Af+3TTz9dXDs84In2HeeJkrShAvliCipGvIDhiekAOz8vA0C4paWlT2BcrL3VlZ49DTnElzAQI7sIIjn51CuS77LUcR22HM1bumFEzPfVBg+VRpPeI+b8YJoKmyOg2g955tPCuG1AXxMzVRv5JoKqYcOaUSbCaGDaxxQwROMCCABIvq2mp7cABqdwpSF4u9+mox62Ym3DRANn4YezoNHu0MT4w6ZIWXbsYb8EyACHJEBL0y+3DPywc1bL75VFMA6Kck0N++23X8kzH/g2nUt333237LXXXsHWaOQPX2YeDz30UMHsBY02aeccZgl3cY02MSNY0xQvYg7SZ6s0/uF8uQVTAmE0XLwfMFvRlh0Tt899jTPO+GmXct+rtJ3sAXJ4pxbcwgQVMOBlfszxlABSCVm9oGq4Gt5wH7S5+cTNhzcoaKZh0GAZOmFf6Z5vvuLbtXIVBgelqKUaCUwJxPNpKquAqS0TyTD8zA+kl1wGuj3CtaNqgxEaE4toaQl7L2cmpCFMFe7343iw2RTAhy9nz54dAS1eAqzq89efBLCwWaEagGyn/ZxYpgnbMfbYUh8SwJWMFxAvM03I0ZWlzifMb2P69OmJHhwALXK2BLCiCaMV86ED7VEBMKOZ88dZ3f1JyImXWq0AWT/N/XlfFbfVtMHo4nUBYTSVoc3SOHJUTDlASYOULmLALMQsEwDbQnwzcfLgPdhoRM0jZMiOe8rwyUdJw7C4A6sbZPBWO0nzAcdI46gNpWGI+UqtebikMWwgz9q22Zuue9QbNl8s6I1EQk0btZrVCc077LQplw+bfjeOSm9fjTSQgQgfvsQLIu7DlXHdx9Shd5EBGNhQAXS8KND6SgFUHN96TuNlgvuePhsCwOfrJ0mmBHtPfF+v1C47W9a94vOLz3gxmQKwzIasJkx9zhtmizKnuGHLx/uk2i99t5/1EM+chjz8yC/K8t9dKbm2ZQZ4zeeBPjRUmjZcT5o220SaNtpYmkaZ8Iabmr+WQvk2Gc122FDJtRuttYAM5IVYBlACvuYDiWuNNLw3l0FbbClNm2whTettKI3rjC4CxIqpAcEhW+8iQz46QXqWLJaeRW9K18IF0v3GPOl6ea70cMbqctMP7NC9DSsGOmj6bfoRR82TDpPBW+5o+L0t3e8sMlr5Aul6Y77k3l1qPNw7Av6Dt9nOvEC2i6ue6TTMBXg9oEHhFZGGMElceOGFkdPVcMfiZDCI8w9uvvlmue6664IzFzixjANssmw/pv/Ye12TAAty7ExLQ7z0AMYTTjghMEm4Zo84Hpgx9txzz8BrJekYTHbcufZjNHI8HCC2QeP2xhkYjIs2Y8S1m+W0zAHy0Im7y6BxY6X79XkGHNeTRmM/ajBTqTTUYKZBQ/eeKG233WWK90SqNGB3Gj5UGkYOlybzUA4et7UM2mqsAeKtDPAPjZQtK9JoQH1t00/zN2irXlDsWbRQOue+IF1znpfOF+dKbrFZNFpuXG7aO8WgRaSJxvXWlcET4hesGoaNMH2dEClPpOc9A84GmKVxkAzexmwFNi+IWhI2PD21xs7al5Vv6mp+tu+ko2kBnOygA0jdBSdbNu7K6j9TXc178uTJom2kTM3hzdchsFfPmjUruOImh5cCmhyABEjXEqjx4kjjyodMLHjZe7baKP1kxyT3oMugHbOrTd+3rVvsusMOOwQmFF5YfGX8VbOLDhOGBmf6jBmEHY7IldPdaKsYcVjTNddcEzk/hLJ6PQDNGG2ZF++Pf/zj4Pt/2JHR+vGIQetHy7ZjUqytaqRzL7XcqddgflChXliNDtc7j5zRFlZcebWsvO1OY0YwpoWxYwxgjZOmLVtlkFlEaFxnHWOSaF5lYsAEUmvq6ZacWazqMTbTHrNTqcv8yLuenyudzzxn4oulaYONZMTXj5QhH9+x1j2pmD8/IRbA9LmxaK+AcqXEA+aeY8CDyQMPYPIHWJU7jQVQ3d1gHKiT5PDPg05/+OPhx56pAaBWjxD3xlS9FCij9bt2XLRfXpL0kwOR9NgwJgA2pgTkWAnpl5Jbn34DXGleyPSP7dDaXEH90aNHJ56lTT3+WOhlPLhaQGY8ajkmmMb0y829/77E1zhA7ouwfF0vAS8BL4FaSqC289ha9tzz9hLwEvASGGAS8IA8wAbU346XgJdAdiXgATm7Y+d77iXgJTDAJOABeYANqL8dLwEvgexKwANydsfO99xLwEtggEnAA/IAG1B/O14CXgLZlYAH5OyOne+5l4CXwACTgAfkATag/na8BLwEsisBD8jZHTvfcy8BL4EBJgEPyANsQP3teAl4CWRXAh6Qszt2vudeAl4CA0wCHpAH2ID62/ES8BLIrgQ8IGd37HzPvQS8BAaYBDwgD7AB9bfjJeAlkF0JeEDO7tj5nnsJeAkMMAl4QB5gA+pvx0vASyC7EvCAnN2x8z33EvASGGAS8IA8wAbU346XgJdAdiXgATm7Y+d77iXgJTDAJOABeYANqL8dLwEvgexKwANydsfO99xLwEtggEnAA/IAG1B/O14CXgLZlYAH5OyOne+5l4CXwACTwP8Dvxvm3BDTTVQAAAAASUVORK5CYII=;" vertex="1" parent="1">
          <mxGeometry x="347.99" y="893.66" width="149.01" height="42.69" as="geometry" />
        </mxCell>
        <mxCell id="7oJAKyxnwEzEujUSBb01-85" value="" style="shape=image;verticalLabelPosition=bottom;labelBackgroundColor=#ffffff;verticalAlign=top;aspect=fixed;imageAspect=0;image=https://pbs.twimg.com/media/D1EqfxpWwAAZH9m.png;" vertex="1" parent="1">
          <mxGeometry x="397.5" y="1065.8600000000001" width="40.5" height="55.27" as="geometry" />
        </mxCell>
        <mxCell id="7oJAKyxnwEzEujUSBb01-86" value="" style="shape=image;verticalLabelPosition=bottom;labelBackgroundColor=#ffffff;verticalAlign=top;aspect=fixed;imageAspect=0;image=https://www.seekpng.com/png/detail/221-2211816_elk-stack-logo.png;" vertex="1" parent="1">
          <mxGeometry x="480" y="1072.8999999999999" width="110" height="44.21" as="geometry" />
        </mxCell>
      </root>
    </mxGraphModel>
  </diagram>
</mxfile>
